<svg width="17" height="18" viewBox="0 0 17 18" fill="none" xmlns="http://www.w3.org/2000/svg">
<path d="M7.79167 9.26568V12.8782C7.79167 13.066 7.86629 13.2462 7.99913 13.3791C8.13197 13.5119 8.31214 13.5865 8.5 13.5865C8.68786 13.5865 8.86803 13.5119 9.00087 13.3791C9.13371 13.2462 9.20833 13.066 9.20833 12.8782V9.26568C10.0683 9.09015 10.8324 8.60156 11.3526 7.89464C11.8728 7.18772 12.1119 6.31284 12.0237 5.4396C11.9355 4.56637 11.5262 3.75699 10.8751 3.1684C10.2241 2.5798 9.37768 2.25391 8.5 2.25391C7.62232 2.25391 6.7759 2.5798 6.12485 3.1684C5.47379 3.75699 5.06448 4.56637 4.97627 5.4396C4.88805 6.31284 5.12722 7.18772 5.6474 7.89464C6.16758 8.60156 6.93172 9.09015 7.79167 9.26568ZM8.5 3.66985C8.92029 3.66985 9.33113 3.79448 9.68059 4.02798C10.03 4.26148 10.3024 4.59335 10.4632 4.98165C10.6241 5.36994 10.6662 5.79721 10.5842 6.20942C10.5022 6.62163 10.2998 7.00027 10.0026 7.29745C9.70542 7.59464 9.32678 7.79703 8.91457 7.87902C8.50236 7.96101 8.07509 7.91893 7.6868 7.75809C7.2985 7.59726 6.96663 7.32489 6.73313 6.97544C6.49963 6.62598 6.375 6.21514 6.375 5.79485C6.375 5.23127 6.59888 4.69076 6.9974 4.29225C7.39591 3.89373 7.93641 3.66985 8.5 3.66985ZM11.4821 11.0507C11.3891 11.0311 11.2931 11.0301 11.1997 11.0477C11.1063 11.0652 11.0172 11.101 10.9376 11.153C10.8581 11.2049 10.7895 11.2721 10.7358 11.3505C10.6822 11.429 10.6445 11.5172 10.625 11.6103C10.6055 11.7033 10.6044 11.7992 10.622 11.8927C10.6395 11.9861 10.6753 12.0751 10.7273 12.1547C10.7792 12.2343 10.8464 12.3029 10.9248 12.3565C11.0033 12.4102 11.0916 12.4478 11.1846 12.4674C12.7925 12.7861 13.4583 13.3599 13.4583 13.5865C13.4583 13.9974 11.7229 15.0032 8.5 15.0032C5.27708 15.0032 3.54167 13.9974 3.54167 13.5865C3.54167 13.3599 4.2075 12.7861 5.81542 12.439C5.90844 12.4195 5.9967 12.3818 6.07516 12.3282C6.15362 12.2745 6.22075 12.206 6.27272 12.1264C6.32468 12.0468 6.36046 11.9577 6.37801 11.8643C6.39556 11.7709 6.39453 11.675 6.375 11.5819C6.35547 11.4889 6.3178 11.4007 6.26416 11.3222C6.21051 11.2437 6.14194 11.1766 6.06235 11.1246C5.98276 11.0727 5.89372 11.0369 5.80031 11.0193C5.70689 11.0018 5.61094 11.0028 5.51792 11.0224C3.36458 11.5182 2.125 12.4461 2.125 13.5865C2.125 15.4494 5.33375 16.4199 8.5 16.4199C11.6662 16.4199 14.875 15.4494 14.875 13.5865C14.875 12.4461 13.6354 11.5182 11.4821 11.0507Z" fill="black"/>
</svg>
