<svg width="225" height="258" viewBox="0 0 225 258" fill="none" xmlns="http://www.w3.org/2000/svg">
  <path d="M49.3702 241.748L48.0965 247.122C48.0965 247.122 39.3088 258.572 36.5966 257.978C34.8219 257.613 37.0046 254.636 40.3464 245.97L41.0621 242.392L49.3702 241.748Z" fill="#f75555" />
  <path d="M36.2388 256.289C36.2508 256.348 36.2752 256.404 36.3104 256.453C36.4 256.6 36.5289 256.719 36.6825 256.797C36.921 256.927 37.1915 256.987 37.4625 256.969C37.8179 256.935 38.1583 256.809 38.4501 256.604C40.0234 255.335 41.5037 253.955 42.8797 252.475C44.2715 251.013 45.583 249.477 46.8084 247.873C47.2735 247.258 47.6456 246.75 47.8889 246.392L48.168 245.984C48.2022 245.936 48.2333 245.886 48.2611 245.834C48.2611 245.834 48.2181 245.877 48.1466 245.963L47.8389 246.356C47.5168 246.771 47.1232 247.258 46.7153 247.787C45.7564 248.997 44.3896 250.65 42.7652 252.346C41.3943 253.816 39.9341 255.199 38.3928 256.489C38.1612 256.679 37.8818 256.802 37.5851 256.843C37.2885 256.885 36.9861 256.844 36.7111 256.725C36.5143 256.629 36.35 256.478 36.2388 256.289V256.289Z" fill="#263238" />
  <path d="M37.484 252.646C37.484 252.646 37.7631 252.646 38.1996 252.646C38.7642 252.738 39.3046 252.942 39.7883 253.248C40.2805 253.534 40.6899 253.943 40.9762 254.435C41.1765 254.822 41.2338 255.094 41.2624 255.087C41.2573 254.837 41.1935 254.592 41.0764 254.371C40.8095 253.838 40.3914 253.394 39.8741 253.097C39.3717 252.781 38.8041 252.583 38.2139 252.518C37.9635 252.496 37.7118 252.54 37.484 252.646V252.646Z" fill="#263238" />
  <path d="M45.7994 249.949C45.7994 249.949 45.7063 249.562 45.6348 248.94C45.5457 248.126 45.7001 247.304 46.0784 246.578C46.4478 245.851 47.036 245.258 47.7601 244.882C48.0691 244.746 48.3871 244.631 48.7119 244.539C48.6194 244.524 48.5253 244.524 48.4328 244.539C48.1862 244.583 47.9459 244.658 47.7172 244.76C46.9485 245.119 46.3232 245.727 45.9425 246.485C45.5509 247.237 45.4057 248.093 45.5274 248.932C45.5679 249.175 45.6278 249.415 45.7063 249.648C45.7218 249.752 45.7532 249.854 45.7994 249.949V249.949Z" fill="#263238" />
  <path d="M48.8121 242.664C48.5662 243.196 48.4045 243.763 48.3326 244.345C48.1752 245.297 47.9963 246.056 48.0321 246.063C48.2718 245.527 48.4263 244.957 48.49 244.374C48.6546 243.429 48.855 242.678 48.8121 242.664Z" fill="#263238" />
  <path d="M40.2248 246.721C40.2248 246.771 40.7257 246.721 41.3197 246.893C41.9136 247.065 42.3501 247.258 42.3716 247.222C42.0859 246.967 41.7335 246.798 41.3554 246.735C40.9869 246.627 40.5959 246.623 40.2248 246.721V246.721Z" fill="#263238" />
  <path d="M40.0101 247.637C40.0101 247.687 40.4323 247.637 40.9261 247.759C41.4198 247.88 41.7633 248.102 41.792 248.059C41.5681 247.821 41.2658 247.671 40.9404 247.637C40.6402 247.527 40.3103 247.527 40.0101 247.637V247.637Z" fill="#263238" />
  <path d="M39.3088 248.796C39.6241 248.777 39.9405 248.789 40.2534 248.832C40.5576 248.926 40.8504 249.053 41.1265 249.211C40.9231 248.937 40.6279 248.744 40.2945 248.667C39.9611 248.591 39.6114 248.637 39.3088 248.796V248.796Z" fill="#263238" />
  <path d="M40.7973 246.342C40.8962 246.343 40.9949 246.331 41.0907 246.306C41.3533 246.254 41.6117 246.182 41.8635 246.091C42.2431 245.964 42.6097 245.801 42.9584 245.605C43.1666 245.494 43.3674 245.369 43.5595 245.233C43.6806 245.162 43.7837 245.065 43.8607 244.948C43.9377 244.832 43.9865 244.699 44.0032 244.56C43.9922 244.486 43.9653 244.416 43.9244 244.353C43.8835 244.291 43.8295 244.238 43.7662 244.199C43.703 244.159 43.6319 244.134 43.5579 244.125C43.4839 244.115 43.4088 244.122 43.3377 244.145C43.103 244.226 42.8934 244.366 42.7294 244.553C42.4434 244.83 42.1734 245.124 41.9208 245.433C41.7478 245.639 41.5854 245.854 41.4342 246.077C41.3727 246.153 41.3221 246.237 41.2839 246.327C41.2839 246.327 41.5558 246.005 41.9995 245.504C42.2213 245.254 42.5004 244.968 42.8224 244.66C42.9669 244.492 43.1552 244.368 43.3663 244.302C43.5667 244.245 43.8243 244.352 43.8314 244.567C43.8386 244.782 43.6382 244.968 43.4593 245.104C43.2804 245.24 43.0729 245.361 42.8797 245.476C42.5393 245.67 42.1854 245.84 41.8206 245.984C41.198 246.206 40.7901 246.313 40.7973 246.342Z" fill="#263238" />
  <path d="M41.2552 246.206C41.2552 246.206 41.2552 246.113 41.2552 245.934C41.2486 245.694 41.2295 245.456 41.198 245.218C41.1592 244.852 41.0676 244.492 40.9261 244.152C40.8371 243.95 40.7189 243.762 40.5754 243.594C40.5027 243.477 40.3904 243.39 40.2589 243.35C40.1275 243.309 39.9858 243.317 39.8598 243.372C39.7565 243.457 39.679 243.569 39.636 243.695C39.593 243.821 39.5862 243.957 39.6165 244.088C39.656 244.304 39.7209 244.516 39.8097 244.717C39.9646 245.053 40.1778 245.358 40.4394 245.619C40.6099 245.796 40.7968 245.957 40.9976 246.098C41.0648 246.158 41.1424 246.204 41.2266 246.234C41.2266 246.234 40.9261 245.991 40.511 245.519C40.2774 245.255 40.0845 244.959 39.9385 244.639C39.8611 244.447 39.8035 244.248 39.7668 244.045C39.7668 243.851 39.7668 243.601 39.9314 243.515C40.096 243.429 40.2963 243.551 40.4323 243.701C40.566 243.856 40.6769 244.03 40.7615 244.216C40.9032 244.541 41.0042 244.883 41.062 245.233C41.1068 245.561 41.1713 245.886 41.2552 246.206V246.206Z" fill="#263238" />
  <path d="M48.0964 247.122L48.7119 244.539C48.7119 244.539 46.5651 244.939 45.9997 246.549C45.6694 247.431 45.528 248.372 45.5847 249.312L40.9046 254.321C40.9046 254.321 39.7238 252.024 37.5985 252.575C37.5985 252.575 35.924 256.26 35.9812 257.183C36.0385 258.106 37.1047 257.992 37.484 257.82C39.0304 256.921 40.4422 255.808 41.6774 254.514C44.1534 251.967 46.8942 248.703 48.0964 247.122Z" fill="black" />
  <path d="M93.0509 244.467L93.0939 237.311L79.6762 237.146L79.5045 247.637L80.3346 247.702C84.0343 247.952 99.1694 248.711 101.653 247.988C104.422 247.172 93.0509 244.467 93.0509 244.467Z" fill="#f75555" />
  <path d="M84.3706 247.573C84.1819 246.444 83.583 245.424 82.6889 244.71C81.8124 243.994 80.6987 243.634 79.5689 243.701L79.5188 247.451L84.3706 247.573Z" fill="black" />
  <path d="M98.604 245.984C98.604 245.984 102.59 247.186 102.082 247.837C101.574 248.489 86.2527 248.295 79.5045 247.623V247.322L97.3947 247.701C97.3947 247.701 97.824 246.013 98.604 245.984Z" fill="black" />
  <path d="M79.3184 247.308H79.5474L80.2129 247.358L82.646 247.494C84.7069 247.594 87.5551 247.694 90.6966 247.737C93.8381 247.78 96.6934 247.737 98.7543 247.737L101.195 247.666H101.86H102.089C102.013 247.658 101.936 247.658 101.86 247.666H101.195H98.7543C96.6934 247.666 93.8453 247.666 90.7037 247.666C87.5622 247.666 84.7141 247.544 82.6532 247.473L80.2129 247.387H79.5474C79.4748 247.351 79.3979 247.324 79.3184 247.308V247.308Z" fill="#263238" />
  <path d="M97.3947 247.909C97.5062 247.507 97.6622 247.118 97.8598 246.75C98.1067 246.412 98.3899 246.103 98.7042 245.827C98.2858 245.976 97.9368 246.274 97.7238 246.664C97.4614 247.023 97.3439 247.467 97.3947 247.909V247.909Z" fill="#263238" />
  <path d="M93.4588 245.848C93.4946 245.848 93.6878 245.648 93.8882 245.34C94.0886 245.032 94.2174 244.767 94.1816 244.739C94.1458 244.71 93.9526 244.946 93.7522 245.254C93.5518 245.562 93.4231 245.827 93.4588 245.848Z" fill="#263238" />
  <path d="M92.3783 245.261C92.3783 245.297 92.6216 245.154 92.8577 244.953C93.0939 244.753 93.2585 244.553 93.2227 244.517C93.1869 244.481 92.9794 244.624 92.7504 244.832C92.5214 245.039 92.3496 245.225 92.3783 245.261Z" fill="#263238" />
  <path d="M91.7056 243.987C91.9343 244.071 92.1787 244.103 92.4212 244.08C92.8076 244.08 93.1368 244.08 93.1368 244.016C92.9085 243.931 92.6637 243.899 92.4212 243.923C92.0204 243.909 91.7056 243.937 91.7056 243.987Z" fill="#263238" />
  <path d="M91.4837 243.086C91.7122 243.246 91.9848 243.331 92.2638 243.329C92.5373 243.375 92.8183 243.34 93.0724 243.229C92.8096 243.187 92.5441 243.166 92.2781 243.165C92.0159 243.117 91.7502 243.09 91.4837 243.086V243.086Z" fill="#263238" />
  <path d="M93.9311 244.682C94.2149 244.735 94.5061 244.735 94.7899 244.682C95.1031 244.647 95.4123 244.583 95.713 244.488C95.8961 244.437 96.0736 244.368 96.2425 244.281C96.3446 244.222 96.4211 244.128 96.4572 244.016C96.4722 243.952 96.468 243.886 96.4451 243.825C96.4221 243.764 96.3815 243.711 96.3284 243.673C96.0016 243.507 95.6274 243.46 95.2698 243.54C94.9122 243.619 94.5933 243.82 94.3676 244.109C94.2302 244.276 94.1324 244.472 94.0814 244.682C94.0656 244.757 94.0656 244.835 94.0814 244.911C94.175 244.652 94.3104 244.41 94.4821 244.195C94.6718 243.975 94.92 243.814 95.1978 243.73C95.5382 243.619 95.9085 243.648 96.2282 243.808C96.3642 243.916 96.3069 244.073 96.1567 244.159C95.9992 244.244 95.8338 244.314 95.6629 244.367C95.3732 244.461 95.0765 244.533 94.7755 244.581C94.2603 244.66 93.9311 244.66 93.9311 244.682Z" fill="#263238" />
  <path d="M94.1529 244.732C94.2587 244.55 94.2968 244.337 94.2603 244.131C94.2349 243.906 94.1564 243.69 94.0313 243.501C93.9595 243.372 93.8563 243.263 93.7312 243.184C93.6061 243.105 93.4632 243.059 93.3157 243.05C93.2285 243.067 93.1517 243.118 93.1021 243.192C93.0525 243.266 93.0341 243.356 93.0509 243.444C93.0655 243.581 93.112 243.714 93.1869 243.83C93.2995 244.022 93.434 244.199 93.5876 244.36C93.7223 244.515 93.8913 244.638 94.0814 244.717C94.0814 244.717 93.9096 244.56 93.6735 244.281C93.5378 244.12 93.4202 243.945 93.3229 243.758C93.2012 243.58 93.1296 243.25 93.3229 243.215C93.5161 243.179 93.7594 243.408 93.8882 243.587C94.0031 243.755 94.0834 243.945 94.1243 244.145C94.1491 244.339 94.1587 244.536 94.1529 244.732V244.732Z" fill="#263238" />
  <path d="M79.6404 243.644C79.6404 243.644 80.0197 243.608 80.628 243.687C81.4136 243.796 82.1553 244.115 82.7748 244.61C83.3836 245.119 83.8415 245.784 84.0987 246.535C84.299 247.115 84.3133 247.501 84.342 247.494C84.3706 247.487 84.342 247.401 84.342 247.229C84.3199 246.987 84.2744 246.747 84.206 246.514C83.974 245.722 83.5082 245.019 82.8697 244.497C82.2312 243.974 81.4498 243.657 80.628 243.587C80.3901 243.561 80.1502 243.561 79.9124 243.587C79.7263 243.608 79.6333 243.63 79.6404 243.644Z" fill="#263238" />
  <path d="M81.1003 238.077C80.9477 239.909 80.9 241.749 80.9572 243.587C81.0658 242.673 81.116 241.752 81.1074 240.832C81.1593 239.914 81.1569 238.994 81.1003 238.077V238.077Z" fill="#263238" />
  <path d="M86.0738 246.284C86.7146 246.445 87.374 246.52 88.0345 246.506C88.6912 246.55 89.3508 246.504 89.9953 246.37C89.9953 246.327 89.1151 246.37 88.0345 246.37C86.954 246.37 86.0809 246.241 86.0738 246.284Z" fill="#263238" />
  <path d="M83.4475 246.249C83.4475 246.285 83.5119 246.435 83.5977 246.635C83.6836 246.836 83.7337 247.022 83.7838 247.014C83.8339 247.007 83.8554 246.807 83.748 246.571C83.6407 246.335 83.4761 246.206 83.4475 246.249Z" fill="#263238" />
  <path d="M82.4456 245.004C82.4456 245.004 82.5029 245.175 82.6388 245.318C82.7748 245.462 82.9108 245.547 82.9466 245.519C82.9823 245.49 82.8893 245.347 82.7533 245.204C82.6174 245.061 82.5029 244.975 82.4456 245.004Z" fill="#263238" />
  <path d="M81.0573 244.424C81.0573 244.467 81.2434 244.467 81.4438 244.539C81.6441 244.61 81.7801 244.717 81.8159 244.689C81.8517 244.66 81.7372 244.474 81.4939 244.388C81.2506 244.302 81.0144 244.381 81.0573 244.424Z" fill="#263238" />
  <path d="M80.0483 244.145C80.0483 244.188 80.1128 244.252 80.2201 244.302C80.3274 244.352 80.4348 244.345 80.4562 244.302C80.4777 244.259 80.3918 244.195 80.2845 244.145C80.1772 244.095 80.0698 244.102 80.0483 244.145Z" fill="#263238" />
  <path d="M102.182 102.168L95.9205 241.375L75.0248 241.819L78.4955 125.275L54.9878 242.706H35.1153L61.6501 102.168" fill="#263238" />
  <path d="M81.9733 103.936C81.8963 104.214 81.853 104.499 81.8445 104.787C81.7801 105.339 81.7157 106.133 81.6298 107.113C81.4724 109.081 81.2863 111.808 81.1003 114.813C81.0073 116.309 80.9285 117.74 80.8498 119.05C80.8646 120.193 80.7299 121.333 80.4491 122.442C80.2096 123.166 79.6958 123.767 79.0179 124.116C78.7557 124.216 78.4851 124.293 78.2092 124.345C78.2092 124.345 78.2879 124.345 78.4382 124.381C78.6564 124.382 78.8728 124.341 79.0751 124.259C79.4491 124.101 79.786 123.866 80.0645 123.571C80.3429 123.275 80.5567 122.925 80.6924 122.542C81.0252 121.415 81.1963 120.246 81.2005 119.071C81.2864 117.761 81.3794 116.337 81.4796 114.835C81.6656 111.829 81.8159 109.11 81.8946 107.135C81.9376 106.147 81.9662 105.346 81.9805 104.795C82.0132 104.509 82.0108 104.221 81.9733 103.936Z" fill="#455A64" />
  <path d="M79.8265 105.782C79.8265 105.832 80.0054 105.975 80.0197 106.305C80.0297 106.39 80.0208 106.477 79.9936 106.558C79.9664 106.64 79.9216 106.715 79.8623 106.777C79.7892 106.842 79.6987 106.884 79.6021 106.897C79.5055 106.911 79.4069 106.897 79.3184 106.856C79.2259 106.823 79.1446 106.764 79.0839 106.687C79.0231 106.61 78.9853 106.517 78.9749 106.419C78.9768 106.333 78.9969 106.248 79.0339 106.171C79.0709 106.093 79.124 106.024 79.1896 105.968C79.4329 105.739 79.6762 105.789 79.6905 105.725C79.7048 105.661 79.4329 105.496 79.025 105.725C78.9065 105.796 78.8064 105.894 78.733 106.01C78.6596 106.127 78.615 106.26 78.6028 106.398C78.6058 106.574 78.6603 106.745 78.7596 106.89C78.8589 107.036 78.9986 107.149 79.1614 107.216C79.3243 107.283 79.5032 107.301 79.6761 107.267C79.8489 107.234 80.0082 107.15 80.1342 107.027C80.2228 106.92 80.2846 106.794 80.3145 106.658C80.3444 106.522 80.3415 106.382 80.306 106.247C80.1772 105.797 79.8265 105.732 79.8265 105.782Z" fill="#455A64" />
  <path d="M60.1616 109.081C60.6807 109.437 61.2765 109.665 61.9005 109.747C63.3996 110.05 64.9561 109.877 66.3521 109.252C67.7481 108.627 68.9139 107.582 69.6863 106.262C70.0425 105.745 70.2706 105.152 70.3519 104.53C70.2875 104.53 70.0728 105.181 69.443 106.111C68.6433 107.327 67.512 108.289 66.183 108.883C64.854 109.476 63.3828 109.677 61.9435 109.46C60.8343 109.31 60.1902 109.017 60.1616 109.081Z" fill="#455A64" />
  <path d="M94.9187 103.936C94.8109 104.437 94.8356 104.957 94.9902 105.446C95.2723 106.659 95.9283 107.753 96.8656 108.574C97.8029 109.394 98.9742 109.9 100.214 110.019C100.718 110.108 101.236 110.064 101.717 109.89C101.717 109.825 101.137 109.89 100.25 109.732C99.088 109.552 98.0008 109.046 97.1143 108.274C96.2278 107.501 95.5782 106.494 95.2407 105.367C94.9974 104.516 94.9831 103.936 94.9187 103.936Z" fill="#455A64" />
  <path d="M105.51 43.4099L124.988 48.4692C124.988 48.4692 141.09 30.579 141.848 29.9708C142.607 29.3625 152.482 32.4754 152.482 32.4754L141.032 53.7289C138.292 60.656 134.22 64.5632 130.255 64.735L98.3393 58.4019L105.51 43.4099Z" fill="#D17D59" />
  <path d="M141.204 30.7578C141.204 30.7578 143.437 26.2924 143.737 25.6198C144.489 23.6637 145.136 21.6691 145.677 19.6444C145.677 19.6444 147.001 19.3511 146.915 22.3208C146.829 25.2906 147.43 24.4676 147.43 24.4676C147.43 24.4676 153.584 16.9895 155.08 17.4833C155.638 17.6694 154.865 19.4441 153.849 20.403C153.068 21.182 152.35 22.0219 151.702 22.9148C151.702 22.9148 157.499 17.698 158.822 18.5138C158.822 18.5138 159.474 19.029 157.635 20.5676C156.104 21.8399 154.669 23.2223 153.341 24.7038C153.341 24.7038 159.066 20.6535 159.731 21.09C160.805 21.8056 154.987 25.949 154.006 27.4875C154.006 27.4875 158.336 24.1671 158.45 25.2333C158.565 26.2996 153.183 30.0351 150.722 35.4737L141.204 30.7578Z" fill="#D17D59" />
  <path d="M145.834 25.1904C145.798 25.2548 146.228 25.4766 146.721 26.0348C147.36 26.7586 147.727 27.682 147.759 28.6468V29.1548L148.103 28.7756C148.754 28.0496 149.601 27.5277 150.543 27.2728C151.258 27.0724 151.759 27.0867 151.759 27.0152C151.344 26.8902 150.901 26.8902 150.486 27.0152C149.445 27.2063 148.499 27.7434 147.802 28.5394V28.5394L148.16 28.6682C148.131 27.6077 147.683 26.6017 146.915 25.8702C146.636 25.5346 146.257 25.2964 145.834 25.1904V25.1904Z" fill="#A05135" />
  <path d="M55.7034 44.2471L36.2317 49.2993C36.2317 49.2993 22.6924 34.2715 19.8657 31.3018C19.372 30.3071 17.7189 27.0081 17.4756 26.4571C16.7296 24.4997 16.0847 22.5053 15.5435 20.4818C15.5435 20.4818 14.2196 20.1884 14.2983 23.151C14.377 26.1136 13.7902 25.2978 13.7902 25.2978C8.83822 16.1166 5.25303 20.7752 4.91669 21.6267C4.58035 22.4783 4.6376 28.01 4.6376 28.01C4.54457 28.8472 6.66992 30.1568 8.78097 33.3055H8.73803L20.1878 54.5518C22.9285 61.4861 27.0003 65.3933 30.9648 65.5651L62.8809 59.2248L55.7034 44.2471Z" fill="#D17D59" />
  <path d="M15.386 26.0276C15.386 25.9847 14.878 26.1278 14.2912 26.6717C13.911 27.0338 13.606 27.4673 13.3935 27.9474C13.1811 28.4275 13.0654 28.9448 13.0532 29.4697L13.4038 29.3409C12.7077 28.5436 11.7616 28.0062 10.7203 27.8167C10.3049 27.6917 9.86191 27.6917 9.4465 27.8167C9.4465 27.8811 9.93311 27.8667 10.6559 28.0671C11.5991 28.3217 12.4473 28.8465 13.0961 29.577V29.577L13.4467 29.9563V29.4482C13.4826 28.4851 13.8519 27.5644 14.4915 26.8434C14.9925 26.3139 15.4147 26.0849 15.386 26.0276Z" fill="#A05135" />
  <path d="M79.8106 1.48363L79.9374 1.46069C80.1241 1.42688 80.3166 1.46865 80.4726 1.57681C80.6286 1.68496 80.7352 1.85064 80.769 2.03739L80.8799 2.65002L79.2955 2.9368L79.1846 2.32418C79.1669 2.22745 79.1692 2.1281 79.1916 2.03233C79.2139 1.93656 79.2558 1.84643 79.3145 1.76756C79.3733 1.68868 79.4476 1.62277 79.533 1.57392C79.6183 1.52506 79.7129 1.49433 79.8106 1.48363Z" fill="#f75555" />
  <path d="M79.8106 1.48363L79.9374 1.46069C80.1241 1.42688 80.3166 1.46865 80.4726 1.57681C80.6286 1.68496 80.7352 1.85064 80.769 2.03739L80.8799 2.65002L79.2955 2.9368L79.1846 2.32418C79.1669 2.22745 79.1692 2.1281 79.1916 2.03233C79.2139 1.93656 79.2558 1.84643 79.3145 1.76756C79.3733 1.68868 79.4476 1.62277 79.533 1.57392C79.6183 1.52506 79.7129 1.49433 79.8106 1.48363Z" fill="black" />
  <path d="M84.0056 29.3767C84.0419 29.4622 84.0825 29.5458 84.1273 29.6272C84.4381 30.237 84.8729 30.7752 85.4039 31.207C85.935 31.6389 86.5504 31.9549 87.2108 32.1349C87.8712 32.3148 88.562 32.3546 89.2387 32.2518C89.9154 32.149 90.5631 31.9058 91.1402 31.5378C91.6683 31.2444 92.0989 30.8027 92.3787 30.2673C92.6585 29.7319 92.7752 29.1262 92.7146 28.5251C92.9464 28.7931 93.2693 28.9656 93.6209 29.0093C93.9726 29.0529 94.3279 28.9645 94.6181 28.7613C94.8985 28.5424 95.1249 28.2622 95.2799 27.9421C95.435 27.622 95.5146 27.2707 95.5126 26.915C95.5067 26.2067 95.3883 25.5038 95.162 24.8326C95.4578 25.0899 95.8343 25.2358 96.2263 25.2449C96.6184 25.2541 97.0012 25.1259 97.3088 24.8827C97.605 24.6325 97.8279 24.3069 97.9539 23.9402C98.0799 23.5736 98.1043 23.1796 98.0244 22.8003C97.9353 22.4237 97.7724 22.0685 97.5452 21.7553C97.318 21.4421 97.0309 21.177 96.7005 20.9755C96.9983 20.9914 97.2956 20.9355 97.5672 20.8124C97.8389 20.6894 98.077 20.5029 98.2615 20.2686C98.446 20.0343 98.5715 19.7591 98.6274 19.4661C98.6832 19.1732 98.6679 18.8711 98.5826 18.5853C98.2677 17.5406 97.1514 16.9967 96.0708 16.7176C94.9902 16.4385 93.8667 16.2739 93.0509 15.5369C92.4673 14.961 92.0965 14.2041 91.999 13.39C91.906 12.5721 91.906 11.7463 91.999 10.9283L88.1633 11.0357L84.0056 29.3767Z" fill="#263238" />
  <path d="M71.3322 13.34C71.1963 14.163 70.0871 16.2883 69.3858 16.7392C68.662 17.1583 67.8908 17.4898 67.0887 17.7267C66.2848 17.9644 65.5324 18.3503 64.8703 18.8645C64.5393 19.1235 64.2755 19.4583 64.1011 19.8406C63.9267 20.223 63.847 20.6417 63.8685 21.0614C63.91 21.4782 64.1081 21.8638 64.423 22.1401C64.7378 22.4164 65.1458 22.5628 65.5644 22.5499C64.9979 23.183 64.5451 23.9093 64.2263 24.6967C64.0682 25.0905 64.0115 25.5177 64.0616 25.9391C64.1116 26.3604 64.2666 26.7625 64.5125 27.1083C64.6423 27.2718 64.8036 27.4074 64.987 27.5071C65.1703 27.6068 65.3719 27.6685 65.5796 27.6885C65.7874 27.7086 65.997 27.6865 66.1961 27.6237C66.3951 27.5609 66.5794 27.4587 66.738 27.323C66.4857 27.9382 66.4374 28.6181 66.6004 29.2627C66.7633 29.9073 67.1288 30.4827 67.6431 30.9041C68.1574 31.3254 68.7934 31.5707 69.4575 31.6036C70.1216 31.6366 70.7787 31.4555 71.3322 31.0871C71.4547 31.8073 71.8036 32.4696 72.3282 32.978C72.8529 33.4863 73.5259 33.8142 74.2496 33.9139C74.9733 34.0137 75.7099 33.8801 76.3525 33.5326C76.995 33.1851 77.5101 32.6418 77.8228 31.9816" fill="#263238" />
  <path d="M74.0659 41.0912L86.9468 40.0608C87.0327 38.558 86.9468 32.7258 86.9468 32.7258C86.9468 32.7258 92.3139 31.8957 92.3783 26.5286C92.4427 21.1616 91.5124 8.83164 91.5124 8.83164C88.4613 7.52014 85.1152 7.04754 81.8202 7.46272C78.5253 7.87789 75.401 9.16577 72.7706 11.1931L71.9763 11.8014L74.0659 41.0912Z" fill="#D17D59" />
  <path d="M91.5768 16.961C91.4981 17.054 90.9685 16.6461 90.2314 16.639C89.4944 16.6318 88.9505 17.0182 88.8718 16.9252C88.7931 16.8322 88.9147 16.7177 89.1509 16.5388C89.4658 16.3077 89.8481 16.187 90.2386 16.1953C90.6273 16.1994 91.0041 16.33 91.312 16.5674C91.541 16.7463 91.6197 16.918 91.5768 16.961Z" fill="#263238" />
  <path d="M83.5477 17.3474C83.4689 17.4404 82.9394 17.0325 82.2023 17.0325C81.4652 17.0325 80.9214 17.4118 80.8427 17.3116C80.764 17.2114 80.8856 17.1041 81.1217 16.9252C81.4328 16.6962 81.8089 16.5726 82.1952 16.5726C82.5814 16.5726 82.9575 16.6962 83.2686 16.9252C83.5119 17.1327 83.5906 17.3044 83.5477 17.3474Z" fill="#263238" />
  <path d="M86.5174 23.5803C86.8985 23.4289 87.3027 23.3442 87.7125 23.3298C87.9057 23.3298 88.056 23.2654 88.0703 23.1581C88.0753 22.9646 88.0257 22.7736 87.9272 22.607L87.3475 21.1043C86.7935 19.8335 86.3691 18.5101 86.0809 17.1541C86.7588 18.3626 87.3149 19.6355 87.7411 20.954C87.9272 21.4764 88.1132 21.9773 88.2921 22.4711C88.4177 22.7184 88.4556 23.001 88.3995 23.2726C88.3723 23.3471 88.3275 23.414 88.269 23.4675C88.2104 23.5211 88.1398 23.5598 88.0631 23.5803C87.9567 23.6135 87.8454 23.628 87.734 23.6232C87.3291 23.6801 86.9173 23.6655 86.5174 23.5803V23.5803Z" fill="#263238" />
  <path d="M86.9539 32.6543C84.4756 32.6984 82.0399 32.0061 79.9553 30.6649C79.9553 30.6649 81.6084 34.5292 86.9611 34.0426L86.9539 32.6543Z" fill="#A05135" />
  <path d="M91.6269 10.1841C91.6269 10.1841 88.4853 12.0018 84.0915 10.1841C81.2291 9.00338 77.9087 8.56686 77.236 9.17513C76.5633 9.7834 79.7335 8.54539 77.6797 12.9392C77.6797 12.9392 75.4899 23.931 72.3341 19.1292C71.139 17.3116 70.9029 10.5419 70.9029 10.5419L76.0409 7.54355L81.7658 6.01215L87.3117 6.38425L91.6412 7.22868L91.6269 10.1841Z" fill="#263238" />
  <path d="M72.6346 17.3617C72.5416 17.3259 68.9493 16.274 69.0566 19.9379C69.164 23.6018 72.835 22.7359 72.835 22.6286C72.835 22.5213 72.6346 17.3617 72.6346 17.3617Z" fill="#D17D59" />
  <path d="M71.7115 21.2761C71.7115 21.2761 71.6542 21.3262 71.5469 21.3763C71.3933 21.4395 71.221 21.4395 71.0675 21.3763C70.8256 21.2384 70.625 21.0382 70.4866 20.7966C70.3482 20.555 70.2769 20.2808 70.2803 20.0023C70.2607 19.6902 70.3096 19.3776 70.4234 19.0863C70.4553 18.971 70.5141 18.8648 70.595 18.7765C70.6758 18.6882 70.7764 18.6202 70.8886 18.5783C70.9621 18.5578 71.0404 18.5629 71.1106 18.5928C71.1808 18.6227 71.2388 18.6756 71.275 18.7429C71.3251 18.843 71.275 18.9146 71.3251 18.9218C71.3752 18.9289 71.4038 18.8574 71.368 18.7071C71.346 18.6176 71.2927 18.5389 71.2177 18.4852C71.1671 18.4473 71.1092 18.4202 71.0477 18.4054C70.9861 18.3907 70.9223 18.3886 70.8599 18.3994C70.7102 18.4356 70.572 18.5091 70.4582 18.6129C70.3444 18.7167 70.2586 18.8475 70.2087 18.9933C70.0638 19.314 69.9999 19.6654 70.0227 20.0166C70.0122 20.3438 70.0991 20.6667 70.2724 20.9445C70.4456 21.2222 70.6974 21.4422 70.9959 21.5767C71.0951 21.6 71.1981 21.6018 71.2981 21.582C71.398 21.5623 71.4926 21.5214 71.5755 21.4622C71.7115 21.362 71.7115 21.2833 71.7115 21.2761Z" fill="#A05135" />
  <path d="M87.9844 14.8499C88.0989 15.0503 88.8002 14.8499 89.6446 14.8499C90.489 14.8499 91.2118 14.9215 91.3048 14.714C91.3979 14.5064 90.6751 13.9984 89.6089 13.9984C88.5426 13.9984 87.8628 14.6639 87.9844 14.8499Z" fill="#263238" />
  <path d="M79.7478 14.9358C79.8623 15.1433 80.5636 14.9358 81.4152 14.9358C82.2667 14.9358 82.9752 15.0145 83.0682 14.807C83.1612 14.5995 82.4385 14.0914 81.3794 14.0914C80.3203 14.0914 79.6333 14.7569 79.7478 14.9358Z" fill="#263238" />
  <path d="M73.9299 13.7192C73.9299 13.7192 101.08 10.1412 101.975 9.1608C102.69 8.3951 98.8688 7.54353 92.0205 8.08739C90.2028 10.1412 81.5869 11.9517 73.9299 13.7192Z" fill="#f75555" />
  <path d="M70.7526 14.5708L92.3783 10.5276C92.3783 10.5276 92.8291 4.83856 86.2097 3.0567C84.106 2.43664 81.8802 2.35546 79.7369 2.82063C77.5936 3.28581 75.6016 4.2824 73.9442 5.71876C72.7157 6.81065 71.78 8.19269 71.2226 9.73887C70.6651 11.2851 70.5035 12.9462 70.7526 14.5708V14.5708Z" fill="#f75555" />
  <path d="M86.6462 25.0831C86.7106 25.1618 86.1238 25.5482 85.351 25.3622C84.5781 25.1761 84.206 24.5893 84.299 24.5392C84.3921 24.4891 84.7857 24.8612 85.4297 24.9972C86.0738 25.1332 86.6033 24.9543 86.6462 25.0831Z" fill="#263238" />
  <path d="M70.7526 14.5708C70.7526 14.5708 74.4237 13.8552 75.3038 13.7192C76.0195 13.6262 78.0947 13.1969 78.0947 13.1969C85.7947 12.1234 101.56 9.79772 101.975 9.16083C102.554 8.28063 98.8688 7.54355 92.0205 8.08741C90.2028 10.1412 78.4096 12.8033 70.7526 14.5708Z" fill="black" />
  <path d="M80.2272 2.67022C80.2702 2.72747 79.7263 3.08528 79.0894 3.8796C78.7243 4.34547 78.4145 4.85217 78.1663 5.38953C77.8839 6.05904 77.6751 6.75729 77.5437 7.47195C77.3292 8.79938 77.2932 10.1495 77.4364 11.4865C77.523 12.0384 77.5732 12.5954 77.5866 13.1539C77.3678 12.6342 77.2302 12.0839 77.1788 11.5223C76.9592 10.1715 76.9592 8.79412 77.1788 7.44333C77.329 6.70127 77.5694 5.98033 77.8944 5.29651C78.162 4.7367 78.509 4.21848 78.9248 3.75795C79.1981 3.4419 79.5135 3.16499 79.8623 2.935C80.0698 2.72748 80.2129 2.64876 80.2272 2.67022Z" fill="#263238" />
  <path d="M89.1509 9.533C89.0936 9.533 88.8932 8.90326 88.3637 7.95151C87.6898 6.71153 86.759 5.62966 85.6335 4.77816C84.5081 3.92666 83.2138 3.32516 81.8373 3.01382C80.7854 2.77051 80.0984 2.7562 80.1056 2.69179C80.7002 2.59248 81.3087 2.61439 81.8946 2.7562C83.335 3.00836 84.6945 3.60011 85.8606 4.48244C87.0266 5.36477 87.9657 6.51227 88.5998 7.82985C88.896 8.3548 89.0834 8.93404 89.1509 9.533V9.533Z" fill="#263238" />
  <path d="M70.6667 11.9803L72.3055 11.415L72.8422 13.34L70.6953 14.0198C70.6269 13.3421 70.6173 12.6597 70.6667 11.9803V11.9803Z" fill="#263238" />
  <path d="M42.4432 47.3099L45.7135 66.4094L62.7593 62.9674L62.1653 82.0669L60.4049 104.072L104.629 106.984C104.73 102.54 100.973 62.8958 100.973 62.8958L111.514 66.4739L117.238 45.0557L99.7991 40.3399C95.7219 39.1518 91.5404 38.3563 87.3118 37.9641C82.8365 39.3808 78.033 39.3808 73.5578 37.9641V37.9641C71.6041 38.0281 69.6724 38.3975 67.8329 39.0589L42.4432 47.3099Z" fill="#455A64" />
  <path d="M71.7115 37.914C71.8817 38.0769 72.0745 38.2143 72.284 38.3219C72.828 38.6591 73.3974 38.9534 73.9871 39.2021C74.8687 39.588 75.7837 39.8922 76.7208 40.1109C77.8584 40.3714 79.018 40.5247 80.1843 40.5689C81.3491 40.5932 82.5136 40.5069 83.6622 40.3113C84.6005 40.1578 85.5228 39.9182 86.4172 39.5957C87.0203 39.3827 87.6064 39.1243 88.1705 38.8228C88.3838 38.7252 88.5835 38.6001 88.7644 38.4507C88.7286 38.3792 87.8413 38.8443 86.3242 39.3238C85.4354 39.607 84.5263 39.8223 83.6049 39.9678C82.475 40.1339 81.3333 40.2057 80.1915 40.1825C79.0511 40.1399 77.9164 40.0011 76.7995 39.7675C75.8885 39.571 74.9938 39.3055 74.1231 38.9731C72.6275 38.3649 71.7688 37.8496 71.7115 37.914Z" fill="#263238" />
  <path d="M108.68 65.3217C108.836 65.0808 108.961 64.8211 109.052 64.5489C109.267 64.0408 109.567 63.3037 109.918 62.402C110.633 60.5701 111.549 58.0154 112.501 55.1673C113.453 52.3191 114.24 49.7143 114.77 47.8251C115.042 46.8805 115.249 46.1077 115.378 45.5781C115.467 45.3043 115.522 45.0208 115.542 44.7337C115.406 44.985 115.3 45.2516 115.228 45.528L114.512 47.7393C113.875 49.7 113.045 52.2333 112.129 55.0384C111.213 57.8436 110.311 60.3339 109.639 62.2947C109.352 63.1606 109.102 63.8977 108.923 64.4988C108.808 64.762 108.726 65.0384 108.68 65.3217Z" fill="#263238" />
  <path d="M60.1616 102.083C60.1616 102.19 70.4592 102.891 83.1684 103.643C95.8776 104.394 106.189 104.916 106.197 104.802C106.204 104.687 95.9062 103.993 83.1899 103.242C70.4735 102.49 60.1687 101.968 60.1616 102.083Z" fill="#263238" />
  <path d="M69.6792 102.691C69.579 102.691 69.4931 88.4502 69.4931 70.8963C69.4931 53.3425 69.579 39.1019 69.6792 39.1019C69.7794 39.1019 69.8652 53.3353 69.8652 70.8963C69.8652 88.4573 69.7794 102.691 69.6792 102.691Z" fill="#FAFAFA" />
  <path d="M77.6081 102.877C77.5008 102.877 77.4221 88.8509 77.4221 71.5618C77.4221 54.2728 77.5008 40.2397 77.6081 40.2397C77.7154 40.2397 77.7942 54.2584 77.7942 71.5618C77.7942 88.8652 77.7083 102.877 77.6081 102.877Z" fill="#FAFAFA" />
  <path d="M85.8591 102.369C85.7589 102.369 85.673 88.3427 85.673 71.0465C85.673 53.7503 85.7589 39.7244 85.8591 39.7244C85.9592 39.7244 86.0451 53.7503 86.0451 71.0465C86.0451 88.3427 85.9664 102.369 85.8591 102.369Z" fill="#FAFAFA" />
  <path d="M93.5805 103.235C93.4731 103.235 93.3944 88.8509 93.3944 71.111C93.3944 53.3711 93.4731 38.9802 93.5805 38.9802C93.6878 38.9802 93.7665 53.3639 93.7665 71.111C93.7665 88.8581 93.6807 103.235 93.5805 103.235Z" fill="#FAFAFA" />
  <path d="M100.4 63.9263C100.3 63.9263 100.214 58.5879 100.214 51.9971C100.214 45.4064 100.3 40.0608 100.4 40.0608C100.5 40.0608 100.586 45.3992 100.586 51.9971C100.586 58.595 100.5 63.9263 100.4 63.9263Z" fill="#FAFAFA" />
  <path d="M107.714 57.4643C107.519 55.0484 107.447 52.6241 107.499 50.2009C107.426 47.7764 107.476 45.3497 107.649 42.9303C107.849 45.3484 107.923 47.7751 107.871 50.2009C107.945 52.6231 107.892 55.0475 107.714 57.4643V57.4643Z" fill="#FAFAFA" />
  <path d="M60.5552 63.4182C60.4478 63.4182 60.3691 58.5879 60.3691 52.634C60.3691 46.6801 60.4478 41.8498 60.5552 41.8498C60.6625 41.8498 60.7413 46.6801 60.7413 52.634C60.7413 58.5879 60.6554 63.4182 60.5552 63.4182Z" fill="#FAFAFA" />
  <path d="M51.0376 65.3646C50.9374 65.3646 50.8516 60.7847 50.8516 55.1314C50.8516 49.4781 50.9374 44.9054 51.0376 44.9054C51.1378 44.9054 51.2237 49.4853 51.2237 55.1314C51.2237 60.7776 51.1449 65.3646 51.0376 65.3646Z" fill="#FAFAFA" />
  <path d="M120.151 60.2195C119.186 59.7149 118.281 59.1027 117.453 58.3947C116.547 57.7785 115.716 57.058 114.977 56.2479C115.94 56.7566 116.844 57.3685 117.675 58.0727C118.582 58.6888 119.413 59.4094 120.151 60.2195V60.2195Z" fill="#FAFAFA" />
  <path d="M115.027 73.5727C114.922 73.3084 114.85 73.0319 114.813 72.7498C114.684 72.1415 114.526 71.3829 114.333 70.4884C113.932 68.5778 113.338 65.9443 112.558 63.0747C111.778 60.2051 110.977 57.629 110.369 55.7755C110.082 54.9025 109.839 54.1726 109.653 53.5786C109.55 53.3124 109.473 53.0368 109.424 52.7557C109.579 52.9961 109.702 53.256 109.789 53.5285C110.004 54.0295 110.29 54.7665 110.633 55.6754C111.306 57.5073 112.158 60.0763 112.938 62.9602C113.718 65.8441 114.269 68.4919 114.612 70.424C114.777 71.3829 114.898 72.1701 114.97 72.714C115.021 72.9972 115.04 73.2852 115.027 73.5727V73.5727Z" fill="#263238" />
  <path d="M48.3898 66.2663C48.2634 66.0387 48.1603 65.799 48.0821 65.5507C47.9104 65.0712 47.6742 64.3628 47.3665 63.4826C46.8227 61.7222 46.1428 59.2605 45.5489 56.5126C44.9549 53.7646 44.5542 51.2457 44.3252 49.4209C44.2107 48.5049 44.132 47.7607 44.0962 47.2741C44.0618 47.008 44.0618 46.7386 44.0962 46.4726C44.1862 46.7268 44.2439 46.9912 44.2679 47.2598C44.361 47.8466 44.4755 48.5622 44.6186 49.4066C44.912 51.2242 45.3342 53.7002 45.9425 56.4625C46.5507 59.2247 47.1662 61.6649 47.6456 63.4397C47.8674 64.2626 48.0607 64.9639 48.2181 65.5364C48.3043 65.772 48.3619 66.017 48.3898 66.2663V66.2663Z" fill="#263238" />
  <path d="M13.0818 11.2289L11.0352 15.4223C10.653 16.339 10.0389 17.1405 9.25328 17.7481L6.74866 19.6802C6.57717 19.8124 6.44381 19.9877 6.36222 20.1883L0.823428 33.5845C0.803632 33.6294 0.793127 33.678 0.792537 33.7271C0.791948 33.7762 0.801288 33.825 0.819999 33.8704C0.838711 33.9159 0.866404 33.9571 0.901425 33.9915C0.936445 34.026 0.978068 34.0531 1.0238 34.0711L8.5663 37.1911C8.65757 37.2272 8.75927 37.2264 8.85001 37.1891C8.94076 37.1517 9.01348 37.0806 9.05291 36.9908L14.5559 23.6518C14.6429 23.4414 14.6701 23.2112 14.6347 22.9863L14.2482 19.7804C14.1609 18.8093 14.293 17.8311 14.6347 16.918L15.9156 12.381L13.0818 11.2289Z" fill="#f75555" />
  <path d="M13.69 25.7629L8.60924 23.6661L4.9167 32.5898L9.99751 34.6865" fill="#FAFAFA" />
  <path d="M16.3309 11.1881L13.6525 10.0809C13.3493 9.9556 13.002 10.0998 12.8767 10.4029L12.8357 10.5021C12.7104 10.8053 12.8545 11.1526 13.1577 11.2779L15.836 12.3851C16.1392 12.5105 16.4865 12.3663 16.6118 12.0632L16.6529 11.964C16.7782 11.6608 16.634 11.3135 16.3309 11.1881Z" fill="#f75555" />
  <path d="M13.3752 16.4457L11.028 15.4725L12.266 12.8963L14.4701 13.8051L13.3752 16.4457Z" fill="#FAFAFA" />
  <path d="M11.8438 30.2283C11.6922 30.5928 11.436 30.9041 11.1075 31.1229C10.7791 31.3418 10.3931 31.4584 9.99841 31.458C9.60372 31.4576 9.218 31.3402 8.88998 31.1207C8.56197 30.9012 8.30637 30.5894 8.15549 30.2247C8.0046 29.86 7.96521 29.4587 8.04227 29.0716C8.11934 28.6845 8.30941 28.329 8.58847 28.0498C8.86753 27.7707 9.22304 27.5806 9.61012 27.5034C9.9972 27.4263 10.3985 27.4656 10.7632 27.6164C11.252 27.8205 11.6401 28.2099 11.8426 28.6993C12.0451 29.1888 12.0455 29.7386 11.8438 30.2283Z" fill="#f75555" />
  <path d="M13.5326 26.1422C13.0699 26.0385 12.619 25.8875 12.1873 25.6913C11.35 25.3765 10.1549 24.9113 8.73804 24.3388L8.95273 24.253C8.4518 25.4695 7.88647 26.8578 7.29251 28.3248L5.58937 32.3894L5.49634 32.1747C6.92756 32.7687 8.07968 33.2768 8.89548 33.6489C9.33738 33.8218 9.76355 34.0325 10.1693 34.2786C9.70651 34.175 9.25567 34.0239 8.82391 33.8278C7.9795 33.5129 6.79159 33.0478 5.37469 32.4753L5.21725 32.418L5.28166 32.2606L6.94902 28.1817L8.64501 24.1242L8.70942 23.9739L8.85969 24.0383C10.2909 24.6322 11.443 25.1403 12.266 25.5124C12.7052 25.6862 13.129 25.8968 13.5326 26.1422V26.1422Z" fill="#E0E0E0" />
  <path d="M13.597 14.2559C13.597 14.3561 13.1677 14.2559 12.724 14.0985C12.2803 13.9411 11.9511 13.6906 12.0084 13.5904C12.0656 13.4903 12.4449 13.5904 12.8886 13.755C13.3322 13.9196 13.6399 14.1629 13.597 14.2559Z" fill="#E0E0E0" />
  <path d="M13.2034 15.2149C13.1677 15.3079 12.7741 15.2149 12.3304 15.0575C11.8867 14.9 11.5575 14.6424 11.6148 14.5494C11.672 14.4563 12.0442 14.5494 12.495 14.714C12.9458 14.8785 13.2464 15.1219 13.2034 15.2149Z" fill="#E0E0E0" />
  <path d="M6.86315 19.7232L8.53767 22.9864C8.72373 23.3513 8.90263 23.8093 8.65932 24.1385C8.55567 24.2516 8.42017 24.3306 8.27069 24.3651C8.12122 24.3996 7.96479 24.3879 7.82206 24.3317C7.54033 24.2122 7.29394 24.0225 7.10645 23.7807C6.39061 22.9998 5.81015 22.1049 5.389 21.1329C5.31881 20.9414 5.30789 20.7332 5.35766 20.5353C5.40744 20.3375 5.51561 20.1592 5.66809 20.0237C5.83623 19.8947 6.029 19.8015 6.23453 19.7498C6.44005 19.6982 6.65399 19.6891 6.86315 19.7232V19.7232Z" fill="#D17D59" />
  <path d="M4.58038 23.3656C5.13855 24.4533 5.69434 25.541 6.24774 26.6288C6.4338 26.9937 6.61986 27.4517 6.36939 27.7809C6.27004 27.8979 6.13572 27.9798 5.98625 28.0146C5.83678 28.0493 5.68008 28.0352 5.53929 27.9741C5.25912 27.852 5.01334 27.6628 4.82368 27.4231C4.11153 26.6408 3.53364 25.7462 3.11338 24.7753C3.04116 24.5841 3.02919 24.3753 3.07908 24.177C3.12897 23.9787 3.23832 23.8005 3.39246 23.6662C3.55973 23.5381 3.7513 23.4454 3.95552 23.3937C4.15974 23.3421 4.37234 23.3325 4.58038 23.3656V23.3656Z" fill="#D17D59" />
  <path d="M5.87561 21.5838C6.43378 22.6715 6.98957 23.7592 7.54298 24.847C7.72904 25.2119 7.91509 25.6771 7.66463 26.0062C7.56438 26.122 7.42964 26.2025 7.28023 26.236C7.13081 26.2695 6.97459 26.2542 6.83452 26.1923C6.55613 26.0705 6.31081 25.884 6.11891 25.6484C5.40677 24.8662 4.82887 23.9715 4.40861 23.0007C4.40861 23.0007 3.82181 21.7484 4.83082 21.0829C5.83983 20.4174 5.87561 21.5838 5.87561 21.5838Z" fill="#D17D59" />
  <path d="M16.7242 8.17329C16.7064 7.29658 16.847 6.42386 17.1393 5.59711C17.2918 5.18565 17.5524 4.82293 17.8936 4.54713C18.2349 4.27133 18.6443 4.09265 19.0786 4.02992C19.2937 4.01183 19.5102 4.04051 19.7131 4.114C19.9161 4.18749 20.1008 4.30405 20.2544 4.45567C20.4081 4.60729 20.5271 4.79038 20.6033 4.99235C20.6795 5.19432 20.7111 5.41039 20.6958 5.62572C20.5599 6.34133 19.7727 6.79932 19.0499 7.05694C18.3272 7.31456 17.125 7.52208 16.7242 8.17329Z" fill="#455A64" />
  <path d="M16.1446 5.71166C15.5242 4.62736 15.2566 3.37687 15.3789 2.13363C15.3766 1.88726 15.4309 1.64367 15.5376 1.42159C15.6443 1.19952 15.8006 1.00489 15.9943 0.85269C16.1683 0.752584 16.3675 0.704746 16.5681 0.714899C16.7686 0.725052 16.9619 0.792767 17.125 0.90994C17.286 1.02737 17.4208 1.17713 17.5206 1.34965C17.6204 1.52217 17.6831 1.71364 17.7046 1.91179C17.7301 2.60662 17.5264 3.29054 17.125 3.85824C16.7169 4.41478 16.4182 5.04372 16.2448 5.71166" fill="#455A64" />
  <path d="M169.299 44.2471L188.771 49.2993C188.771 49.2993 204.879 31.4091 205.63 30.8008C206.382 30.1925 216.264 33.3126 216.264 33.3126L204.815 54.559C202.074 61.4932 198.002 65.4004 194.037 65.5722L162.121 59.2319L169.299 44.2471Z" fill="#FFBE9D" />
  <path d="M221.896 22.7645C222.011 23.8308 217.008 30.8652 214.547 36.2967L204.993 31.5951C204.993 31.5951 207.219 27.1297 207.527 26.4571C208.273 24.4997 208.918 22.5053 209.459 20.4818C209.459 20.4818 210.783 20.1884 210.704 23.151C210.625 26.1136 211.212 25.2978 211.212 25.2978C211.212 25.2978 217.373 17.8197 218.862 18.3135L221.896 22.7645Z" fill="#FFBE9D" />
  <path d="M209.616 26.0276C209.616 25.9847 210.124 26.1278 210.711 26.6717C211.091 27.0338 211.396 27.4673 211.609 27.9474C211.821 28.4275 211.937 28.9448 211.949 29.4697L211.598 29.3409C212.295 28.5436 213.241 28.0062 214.282 27.8167C214.697 27.6917 215.14 27.6917 215.556 27.8167C215.556 27.8811 215.069 27.8667 214.346 28.0671C213.403 28.3217 212.555 28.8465 211.906 29.577V29.577L211.556 29.9563V29.4482C211.521 28.4986 211.163 27.5894 210.539 26.8721C210.01 26.3139 209.588 26.0849 209.616 26.0276Z" fill="#EB996E" />
  <path d="M152.296 17.8412C152.214 18.0641 152.199 18.3064 152.254 18.5376C152.308 18.7689 152.43 18.9789 152.603 19.1416C152.776 19.3042 152.994 19.4121 153.228 19.4519C153.462 19.4917 153.703 19.4616 153.921 19.3654C154.736 19.0076 154.901 17.9342 154.794 17.0254C154.686 16.1165 154.436 15.1791 154.851 14.3848C155.243 13.8301 155.727 13.3462 156.282 12.9536C156.724 12.5505 157.066 12.0506 157.282 11.4932C157.498 10.9357 157.582 10.3358 157.527 9.74048C157.458 9.14633 157.227 8.58272 156.858 8.11175C156.489 7.64077 155.998 7.28072 155.438 7.07127C154.285 6.67768 152.826 6.96392 151.996 6.06941C151.402 5.41821 151.416 4.40921 150.965 3.65066C150.249 2.46991 148.675 2.21945 147.308 2.31248C145.941 2.4055 144.539 2.78478 143.229 2.38403C142.134 2.0477 141.269 1.22475 140.26 0.688048C139.152 0.106283 137.891 -0.114644 136.651 0.0562027C135.412 0.227049 134.258 0.781114 133.349 1.64083C132.44 2.50054 131.823 3.62287 131.584 4.85068C131.345 6.0785 131.496 7.35035 132.016 8.48817C132.355 9.31996 132.976 10.0063 133.769 10.4275" fill="#263238" />
  <path d="M150.936 41.0912L138.055 40.0608C137.97 38.558 138.055 32.7258 138.055 32.7258C138.055 32.7258 132.688 31.8957 132.624 26.5286C132.56 21.1616 133.49 8.83164 133.49 8.83164C136.541 7.52014 139.887 7.04754 143.182 7.46272C146.477 7.87789 149.601 9.16577 152.232 11.1931L153.026 11.8014L150.936 41.0912Z" fill="#FFBE9D" />
  <path d="M133.569 17.5405C133.647 17.6336 134.177 17.2257 134.914 17.2257C135.651 17.2257 136.195 17.605 136.274 17.5048C136.352 17.4046 136.231 17.2972 135.995 17.1183C135.679 16.8942 135.301 16.7741 134.914 16.7748C134.523 16.7779 134.143 16.9086 133.833 17.147C133.604 17.333 133.526 17.4976 133.569 17.5405Z" fill="#263238" />
  <path d="M141.598 17.9271C141.684 18.0201 142.206 17.6194 142.943 17.6122C143.68 17.605 144.224 17.9915 144.303 17.8984C144.381 17.8054 144.26 17.6838 144.024 17.512C143.711 17.282 143.331 17.1613 142.943 17.1685C142.553 17.1731 142.175 17.3008 141.863 17.5335C141.634 17.7195 141.555 17.9271 141.598 17.9271Z" fill="#263238" />
  <path d="M138.485 23.5803C138.104 23.4289 137.7 23.3442 137.29 23.3298C137.097 23.3298 136.946 23.2654 136.932 23.1581C136.927 22.9646 136.977 22.7736 137.075 22.607L137.655 21.1043C138.209 19.8335 138.633 18.5101 138.921 17.1541C138.243 18.3626 137.687 19.6355 137.261 20.954C137.075 21.4764 136.889 21.9773 136.71 22.4711C136.585 22.7184 136.547 23.001 136.603 23.2726C136.63 23.3471 136.675 23.414 136.733 23.4675C136.792 23.5211 136.862 23.5598 136.939 23.5803C137.046 23.6135 137.157 23.628 137.268 23.6232C137.673 23.6801 138.085 23.6655 138.485 23.5803V23.5803Z" fill="#263238" />
  <path d="M141.283 24.1957C140.003 24.7619 138.653 25.1541 137.268 25.3622C137.546 25.7914 137.961 26.114 138.446 26.2776C138.931 26.4413 139.456 26.4364 139.938 26.2638C141.719 25.6126 141.283 24.1957 141.283 24.1957Z" fill="white" />
  <path d="M138.048 32.6543C140.527 32.6984 142.962 32.0061 145.047 30.6649C145.047 30.6649 143.394 34.5292 138.041 34.0426L138.048 32.6543Z" fill="#EB996E" />
  <path d="M133.375 10.1842C133.375 10.1842 136.517 12.0018 140.911 10.1842C143.773 9.0034 147.094 8.56689 147.766 9.17515C148.439 9.78342 148.375 12.6673 151.072 13.7049C151.072 13.7049 150.478 19.165 152.668 19.1292C154.858 19.0935 154.099 10.542 154.099 10.542L148.997 7.5364L143.272 6.005L137.726 6.37712L133.375 7.19292V10.1842Z" fill="#263238" />
  <path d="M152.368 17.3617C152.461 17.3259 156.053 16.274 155.946 19.9379C155.838 23.6018 152.167 22.7359 152.167 22.6286C152.167 22.5213 152.368 17.3617 152.368 17.3617Z" fill="#FFBE9D" />
  <path d="M153.327 21.2761C153.327 21.2761 153.384 21.3262 153.491 21.3763C153.645 21.4395 153.817 21.4395 153.971 21.3763C154.206 21.2338 154.399 21.0317 154.531 20.7904C154.663 20.5491 154.729 20.2772 154.722 20.0023C154.742 19.6902 154.693 19.3776 154.579 19.0863C154.547 18.971 154.488 18.8648 154.407 18.7765C154.326 18.6882 154.226 18.6202 154.114 18.5783C154.04 18.5578 153.962 18.5629 153.892 18.5928C153.821 18.6227 153.763 18.6756 153.727 18.7429C153.677 18.843 153.727 18.9146 153.677 18.9218C153.627 18.9289 153.598 18.8574 153.634 18.7071C153.656 18.6176 153.71 18.5389 153.785 18.4852C153.835 18.4473 153.893 18.4202 153.955 18.4054C154.016 18.3907 154.08 18.3886 154.142 18.3994C154.292 18.4356 154.43 18.5091 154.544 18.6129C154.658 18.7167 154.744 18.8475 154.794 18.9933C154.939 19.314 155.002 19.6654 154.98 20.0166C154.99 20.3438 154.903 20.6667 154.73 20.9445C154.557 21.2222 154.305 21.4422 154.006 21.5767C153.907 21.6 153.804 21.6018 153.704 21.582C153.604 21.5623 153.51 21.5214 153.427 21.4622C153.327 21.362 153.291 21.2833 153.327 21.2761Z" fill="#EB996E" />
  <path d="M154.858 5.99063C154.858 6.10513 154.285 6.04787 153.67 6.24824C153.055 6.44861 152.64 6.78495 152.547 6.71339C152.454 6.64183 152.811 6.09081 153.548 5.86181C154.285 5.63282 154.901 5.89044 154.858 5.99063Z" fill="#263238" />
  <path d="M152.776 3.67206C153.013 4.22417 153.049 4.84246 152.876 5.41814C152.683 6.41284 152.06 7.00679 151.988 6.92807C151.917 6.84936 152.31 6.21247 152.482 5.33943C152.654 4.46638 152.647 3.67921 152.776 3.67206Z" fill="#263238" />
  <path d="M137.018 14.5494C136.903 14.7498 136.202 14.5494 135.358 14.5494C134.513 14.5494 133.79 14.6281 133.697 14.4134C133.604 14.1987 134.327 13.6978 135.393 13.7408C136.46 13.7837 137.14 14.349 137.018 14.5494Z" fill="#263238" />
  <path d="M144.868 14.9358C144.761 15.1433 144.059 14.9358 143.208 14.9358C142.356 14.9358 141.648 15.0145 141.555 14.807C141.462 14.5995 142.185 14.0914 143.244 14.0914C144.303 14.0914 144.99 14.7569 144.868 14.9358Z" fill="#263238" />
  <path d="M175.632 241.748L176.906 247.122C176.906 247.122 185.693 258.572 188.406 257.978C190.18 257.613 187.998 254.636 184.656 245.97L183.94 242.392L175.632 241.748Z" fill="#455A64" />
  <path d="M188.763 256.289C188.751 256.348 188.727 256.404 188.692 256.453C188.602 256.6 188.473 256.719 188.32 256.797C188.081 256.927 187.811 256.987 187.54 256.969C187.184 256.935 186.844 256.809 186.552 256.604C184.979 255.335 183.499 253.955 182.123 252.475C180.731 251.013 179.419 249.477 178.194 247.873C177.729 247.258 177.357 246.75 177.113 246.392L176.834 245.984C176.8 245.936 176.769 245.886 176.741 245.834C176.741 245.834 176.784 245.877 176.856 245.963L177.163 246.356C177.485 246.771 177.879 247.258 178.287 247.787C179.246 248.997 180.613 250.65 182.237 252.346C183.608 253.816 185.068 255.199 186.609 256.489C186.841 256.679 187.121 256.802 187.417 256.843C187.714 256.885 188.016 256.844 188.291 256.725C188.488 256.629 188.652 256.478 188.763 256.289V256.289Z" fill="#263238" />
  <path d="M187.518 252.646C187.518 252.646 187.239 252.646 186.803 252.646C186.238 252.738 185.698 252.942 185.214 253.248C184.722 253.534 184.312 253.943 184.026 254.435C183.826 254.822 183.768 255.094 183.74 255.087C183.745 254.837 183.809 254.592 183.926 254.371C184.193 253.838 184.611 253.394 185.128 253.097C185.631 252.781 186.198 252.583 186.788 252.518C187.039 252.496 187.291 252.54 187.518 252.646V252.646Z" fill="#263238" />
  <path d="M179.203 249.949C179.203 249.949 179.296 249.562 179.368 248.94C179.457 248.126 179.302 247.304 178.924 246.578C178.554 245.851 177.966 245.258 177.242 244.882C176.933 244.746 176.615 244.631 176.29 244.539C176.383 244.524 176.477 244.524 176.569 244.539C176.816 244.583 177.056 244.658 177.285 244.76C178.054 245.119 178.679 245.727 179.06 246.485C179.451 247.237 179.597 248.093 179.475 248.932C179.434 249.175 179.375 249.415 179.296 249.648C179.281 249.752 179.249 249.854 179.203 249.949V249.949Z" fill="#263238" />
  <path d="M176.19 242.664C176.436 243.196 176.598 243.763 176.67 244.345C176.827 245.297 177.006 246.056 176.97 246.063C176.731 245.527 176.576 244.957 176.512 244.374C176.348 243.429 176.147 242.678 176.19 242.664Z" fill="#263238" />
  <path d="M184.813 246.721C184.813 246.771 184.312 246.721 183.718 246.893C183.124 247.065 182.688 247.258 182.666 247.222C182.952 246.967 183.305 246.798 183.683 246.735C184.051 246.627 184.442 246.623 184.813 246.721Z" fill="#263238" />
  <path d="M184.992 247.637C184.992 247.687 184.57 247.637 184.076 247.759C183.582 247.88 183.239 248.102 183.21 248.059C183.434 247.821 183.736 247.671 184.062 247.637C184.362 247.527 184.692 247.527 184.992 247.637V247.637Z" fill="#263238" />
  <path d="M185.693 248.796C185.378 248.777 185.062 248.789 184.749 248.832C184.445 248.926 184.152 249.053 183.876 249.211C184.079 248.937 184.374 248.744 184.708 248.667C185.041 248.591 185.391 248.637 185.693 248.796V248.796Z" fill="#263238" />
  <path d="M184.205 246.342C184.106 246.343 184.007 246.331 183.912 246.306C183.649 246.254 183.391 246.182 183.139 246.091C182.759 245.964 182.393 245.801 182.044 245.605C181.836 245.494 181.635 245.369 181.443 245.233C181.322 245.162 181.219 245.065 181.142 244.948C181.065 244.832 181.016 244.699 180.999 244.56C181.01 244.486 181.037 244.416 181.078 244.353C181.119 244.291 181.173 244.238 181.236 244.199C181.299 244.159 181.37 244.134 181.444 244.125C181.518 244.115 181.594 244.122 181.665 244.145C181.899 244.226 182.109 244.366 182.273 244.553C182.559 244.83 182.829 245.124 183.082 245.433C183.254 245.639 183.417 245.854 183.568 246.077C183.63 246.153 183.68 246.237 183.718 246.327C183.718 246.327 183.446 246.005 183.003 245.504C182.781 245.254 182.502 244.968 182.18 244.66C182.035 244.492 181.847 244.368 181.636 244.302C181.436 244.245 181.178 244.352 181.171 244.567C181.164 244.782 181.364 244.968 181.543 245.104C181.722 245.24 181.929 245.361 182.123 245.476C182.463 245.67 182.817 245.84 183.182 245.984C183.804 246.206 184.212 246.313 184.205 246.342Z" fill="#263238" />
  <path d="M183.747 246.206C183.747 246.206 183.747 246.113 183.747 245.934C183.754 245.694 183.773 245.456 183.804 245.218C183.843 244.852 183.935 244.492 184.076 244.152C184.165 243.95 184.283 243.762 184.427 243.594C184.5 243.477 184.612 243.39 184.743 243.35C184.875 243.309 185.016 243.317 185.142 243.372C185.246 243.457 185.323 243.569 185.366 243.695C185.409 243.821 185.416 243.957 185.386 244.088C185.346 244.304 185.281 244.516 185.193 244.717C185.038 245.053 184.824 245.358 184.563 245.619C184.392 245.796 184.205 245.957 184.005 246.098C183.938 246.158 183.86 246.204 183.776 246.234C183.776 246.234 184.076 245.991 184.491 245.519C184.725 245.255 184.918 244.959 185.064 244.639C185.141 244.447 185.199 244.248 185.236 244.045C185.236 243.851 185.235 243.601 185.071 243.515C184.906 243.429 184.706 243.551 184.57 243.701C184.436 243.856 184.325 244.03 184.241 244.216C184.099 244.541 183.998 244.883 183.94 245.233C183.895 245.561 183.831 245.886 183.747 246.206V246.206Z" fill="#263238" />
  <path d="M131.951 244.467L131.908 237.311L145.326 237.146L145.498 247.63L144.668 247.694C140.968 247.945 125.833 248.703 123.35 247.981C120.58 247.172 131.951 244.467 131.951 244.467Z" fill="#455A64" />
  <path d="M145.684 247.308H145.455L144.789 247.358L142.356 247.494C140.295 247.594 137.447 247.694 134.306 247.737C131.164 247.78 128.309 247.737 126.248 247.737L123.808 247.666H123.142H122.913C122.989 247.658 123.066 247.658 123.142 247.666H123.808H126.248C128.309 247.666 131.157 247.666 134.299 247.666C137.44 247.666 140.288 247.544 142.349 247.473L144.789 247.387H145.455C145.527 247.351 145.604 247.324 145.684 247.308Z" fill="#263238" />
  <path d="M127.608 247.909C127.496 247.507 127.34 247.118 127.142 246.75C126.896 246.412 126.612 246.103 126.298 245.827C126.717 245.976 127.065 246.274 127.278 246.664C127.541 247.023 127.658 247.467 127.608 247.909V247.909Z" fill="#263238" />
  <path d="M131.543 245.848C131.508 245.848 131.314 245.648 131.114 245.34C130.914 245.032 130.785 244.767 130.821 244.739C130.856 244.71 131.05 244.946 131.25 245.254C131.45 245.562 131.579 245.827 131.543 245.848Z" fill="#263238" />
  <path d="M132.624 245.261C132.624 245.297 132.381 245.154 132.145 244.953C131.908 244.753 131.744 244.553 131.78 244.517C131.815 244.481 132.023 244.624 132.252 244.832C132.481 245.039 132.653 245.225 132.624 245.261Z" fill="#263238" />
  <path d="M133.297 243.987C133.068 244.071 132.824 244.103 132.581 244.08C132.195 244.08 131.865 244.08 131.865 244.016C132.094 243.931 132.339 243.899 132.581 243.923C132.982 243.909 133.297 243.937 133.297 243.987Z" fill="#263238" />
  <path d="M133.519 243.086C133.29 243.246 133.017 243.331 132.739 243.329C132.465 243.375 132.184 243.34 131.93 243.229C132.193 243.187 132.458 243.166 132.724 243.165C132.986 243.117 133.252 243.09 133.519 243.086V243.086Z" fill="#263238" />
  <path d="M131.107 244.682C130.823 244.735 130.532 244.735 130.248 244.682C129.935 244.647 129.626 244.583 129.325 244.488C129.142 244.437 128.964 244.368 128.796 244.281C128.693 244.222 128.617 244.128 128.581 244.016C128.566 243.952 128.57 243.886 128.593 243.825C128.616 243.764 128.657 243.711 128.71 243.673C129.036 243.507 129.411 243.46 129.768 243.54C130.126 243.619 130.445 243.82 130.67 244.109C130.808 244.276 130.906 244.472 130.957 244.682C130.972 244.757 130.972 244.835 130.957 244.911C130.863 244.652 130.728 244.41 130.556 244.195C130.366 243.975 130.118 243.814 129.84 243.73C129.5 243.619 129.13 243.648 128.81 243.808C128.674 243.916 128.731 244.073 128.881 244.159C129.039 244.244 129.204 244.314 129.375 244.367C129.665 244.461 129.962 244.533 130.263 244.581C130.742 244.66 131.107 244.66 131.107 244.682Z" fill="#263238" />
  <path d="M130.849 244.732C130.744 244.55 130.706 244.337 130.742 244.131C130.767 243.906 130.846 243.69 130.971 243.501C131.043 243.372 131.146 243.263 131.271 243.184C131.396 243.105 131.539 243.059 131.687 243.05C131.774 243.067 131.851 243.118 131.9 243.192C131.95 243.266 131.968 243.356 131.951 243.444C131.937 243.581 131.89 243.714 131.815 243.83C131.703 244.022 131.568 244.199 131.415 244.36C131.28 244.515 131.111 244.638 130.921 244.717C130.921 244.717 131.093 244.56 131.329 244.281C131.465 244.12 131.582 243.945 131.679 243.758C131.801 243.58 131.873 243.25 131.679 243.215C131.486 243.179 131.243 243.408 131.114 243.587C130.999 243.755 130.919 243.945 130.878 244.145C130.853 244.339 130.844 244.536 130.849 244.732V244.732Z" fill="#263238" />
  <path d="M145.362 243.644C145.362 243.644 144.983 243.608 144.374 243.687C143.589 243.796 142.847 244.115 142.227 244.61C141.619 245.119 141.161 245.784 140.904 246.535C140.703 247.115 140.689 247.501 140.66 247.494C140.632 247.487 140.66 247.401 140.66 247.229C140.682 246.987 140.728 246.747 140.796 246.514C141.028 245.722 141.494 245.019 142.133 244.497C142.771 243.974 143.552 243.657 144.374 243.587C144.612 243.561 144.852 243.561 145.09 243.587C145.276 243.608 145.369 243.63 145.362 243.644Z" fill="#263238" />
  <path d="M143.902 238.077C144.055 239.909 144.102 241.749 144.045 243.587C143.936 242.673 143.886 241.752 143.895 240.832C143.843 239.914 143.845 238.994 143.902 238.077V238.077Z" fill="#263238" />
  <path d="M138.929 246.284C138.288 246.445 137.628 246.52 136.968 246.506C136.311 246.55 135.651 246.504 135.007 246.37C135.007 246.327 135.887 246.37 136.968 246.37C138.048 246.37 138.921 246.241 138.929 246.284Z" fill="#263238" />
  <path d="M141.555 246.249C141.555 246.285 141.49 246.435 141.405 246.635C141.319 246.836 141.269 247.022 141.218 247.014C141.168 247.007 141.147 246.807 141.254 246.571C141.362 246.335 141.526 246.206 141.555 246.249Z" fill="#263238" />
  <path d="M142.557 245.004C142.557 245.004 142.499 245.175 142.363 245.318C142.227 245.462 142.092 245.547 142.056 245.519C142.02 245.49 142.113 245.347 142.249 245.204C142.385 245.061 142.499 244.975 142.557 245.004Z" fill="#263238" />
  <path d="M143.945 244.424C143.945 244.467 143.759 244.467 143.559 244.539C143.358 244.61 143.222 244.717 143.186 244.689C143.151 244.66 143.265 244.474 143.508 244.388C143.752 244.302 143.988 244.381 143.945 244.424Z" fill="#263238" />
  <path d="M144.954 244.145C144.954 244.188 144.89 244.252 144.782 244.302C144.675 244.352 144.568 244.345 144.546 244.302C144.525 244.259 144.61 244.195 144.718 244.145C144.825 244.095 144.932 244.102 144.954 244.145Z" fill="#263238" />
  <path d="M122.82 102.168L129.082 241.375L149.978 241.819L146.507 125.275L170.015 242.706H189.887L163.352 102.168" fill="#263238" />
  <path d="M184.885 240.696C184.992 240.696 185.128 240.917 185.178 241.239C185.228 241.561 185.178 241.826 185.078 241.848C184.978 241.869 184.835 241.619 184.785 241.304C184.735 240.989 184.778 240.71 184.885 240.696Z" fill="#455A64" />
  <path d="M184.119 236.137C184.226 236.137 184.405 236.61 184.513 237.239C184.62 237.869 184.613 238.399 184.513 238.413C184.413 238.427 184.226 237.941 184.119 237.311C184.012 236.681 184.012 236.187 184.119 236.137Z" fill="#455A64" />
  <path d="M183.346 231.579C183.454 231.579 183.633 232.058 183.74 232.681C183.847 233.303 183.84 233.84 183.74 233.854C183.64 233.869 183.454 233.382 183.346 232.752C183.239 232.123 183.246 231.6 183.346 231.579Z" fill="#455A64" />
  <path d="M182.588 227.02C182.695 227.02 182.874 227.493 182.981 228.122C183.089 228.752 183.082 229.282 182.981 229.296C182.881 229.31 182.695 228.824 182.588 228.194C182.48 227.564 182.473 227.035 182.588 227.02Z" fill="#455A64" />
  <path d="M181.822 222.462C181.929 222.462 182.108 222.934 182.208 223.564C182.309 224.194 182.316 224.723 182.208 224.738C182.101 224.752 181.922 224.265 181.822 223.636C181.722 223.006 181.708 222.476 181.822 222.462Z" fill="#455A64" />
  <path d="M181.049 217.904C181.164 217.904 181.335 218.376 181.443 219.006C181.55 219.635 181.543 220.165 181.443 220.179C181.343 220.194 181.157 219.707 181.049 219.077C180.942 218.448 180.942 217.918 181.049 217.904Z" fill="#455A64" />
  <path d="M180.276 213.345C180.391 213.345 180.563 213.818 180.67 214.447C180.777 215.077 180.777 215.607 180.67 215.621C180.563 215.635 180.384 215.149 180.276 214.519C180.169 213.889 180.169 213.36 180.276 213.345Z" fill="#455A64" />
  <path d="M179.503 208.787C179.618 208.787 179.79 209.259 179.897 209.889C180.004 210.518 180.004 211.048 179.897 211.062C179.79 211.077 179.611 210.59 179.503 209.96C179.396 209.33 179.396 208.801 179.503 208.787Z" fill="#455A64" />
  <path d="M178.731 204.228C178.838 204.228 179.017 204.701 179.124 205.33C179.232 205.96 179.224 206.49 179.124 206.504C179.024 206.518 178.838 206.032 178.731 205.402C178.623 204.772 178.616 204.243 178.731 204.228Z" fill="#455A64" />
  <path d="M177.951 199.691C178.058 199.691 178.237 200.171 178.344 200.793C178.452 201.416 178.452 201.953 178.344 201.967C178.237 201.981 178.058 201.495 177.951 200.865C177.843 200.235 177.836 199.691 177.951 199.691Z" fill="#455A64" />
  <path d="M177.163 195.112C177.278 195.112 177.45 195.591 177.564 196.221C177.679 196.85 177.664 197.373 177.564 197.394C177.464 197.416 177.278 196.915 177.171 196.285C177.063 195.655 177.056 195.133 177.163 195.112Z" fill="#455A64" />
  <path d="M176.376 190.56C176.491 190.56 176.67 191.032 176.777 191.662C176.884 192.292 176.884 192.814 176.777 192.836C176.67 192.857 176.491 192.356 176.383 191.734C176.276 191.111 176.269 190.574 176.376 190.56Z" fill="#455A64" />
  <path d="M175.589 186.002C175.696 186.002 175.875 186.474 175.983 187.104C176.09 187.734 176.097 188.263 175.983 188.277C175.868 188.292 175.696 187.805 175.582 187.175C175.467 186.546 175.475 186.023 175.589 186.002Z" fill="#455A64" />
  <path d="M174.795 181.451C174.902 181.451 175.081 181.923 175.188 182.553C175.296 183.182 175.303 183.705 175.188 183.726C175.074 183.748 174.902 183.247 174.788 182.624C174.673 182.002 174.68 181.465 174.795 181.451Z" fill="#455A64" />
  <path d="M173.993 176.892C174.101 176.892 174.28 177.372 174.394 177.994C174.509 178.617 174.501 179.154 174.394 179.168C174.287 179.182 174.101 178.696 173.993 178.066C173.886 177.436 173.879 176.914 173.993 176.892Z" fill="#455A64" />
  <path d="M173.185 172.341C173.299 172.341 173.478 172.813 173.585 173.443C173.693 174.073 173.7 174.595 173.585 174.617C173.471 174.638 173.292 174.144 173.178 173.515C173.063 172.885 173.077 172.362 173.185 172.341Z" fill="#455A64" />
  <path d="M172.376 167.79C172.483 167.79 172.662 168.262 172.777 168.892C172.891 169.521 172.891 170.044 172.777 170.065C172.662 170.087 172.483 169.593 172.369 168.963C172.254 168.333 172.262 167.811 172.376 167.79Z" fill="#455A64" />
  <path d="M171.56 163.238C171.668 163.238 171.846 163.711 171.961 164.34C172.075 164.97 172.075 165.492 171.961 165.514C171.846 165.535 171.668 165.042 171.553 164.412C171.439 163.782 171.446 163.26 171.56 163.238Z" fill="#455A64" />
  <path d="M170.73 158.687C170.845 158.687 171.024 159.159 171.138 159.789C171.253 160.419 171.26 160.941 171.138 160.963C171.016 160.984 170.845 160.49 170.73 159.861C170.616 159.231 170.623 158.708 170.73 158.687Z" fill="#455A64" />
  <path d="M169.9 154.143C170.015 154.143 170.193 154.615 170.308 155.238C170.422 155.86 170.43 156.397 170.308 156.411C170.186 156.426 170.015 155.939 169.9 155.317C169.786 154.694 169.793 154.157 169.9 154.143Z" fill="#455A64" />
  <path d="M169.034 149.599C169.149 149.599 169.328 150.071 169.449 150.701C169.571 151.331 169.564 151.853 169.449 151.875C169.335 151.896 169.156 151.402 169.041 150.772C168.927 150.143 168.955 149.599 169.034 149.599Z" fill="#455A64" />
  <path d="M168.218 145.048C168.333 145.048 168.512 145.52 168.633 146.15C168.755 146.779 168.755 147.302 168.633 147.323C168.512 147.345 168.34 146.851 168.226 146.221C168.111 145.591 168.111 145.069 168.218 145.048Z" fill="#455A64" />
  <path d="M167.367 140.503C167.474 140.503 167.66 140.976 167.782 141.605C167.903 142.235 167.903 142.758 167.782 142.779C167.66 142.801 167.481 142.307 167.367 141.677C167.252 141.047 167.252 140.525 167.367 140.503Z" fill="#455A64" />
  <path d="M166.501 135.959C166.615 135.959 166.801 136.432 166.916 137.061C167.03 137.691 167.045 138.213 166.916 138.235C166.787 138.256 166.615 137.763 166.501 137.133C166.386 136.503 166.394 136.002 166.501 135.959Z" fill="#455A64" />
  <path d="M165.628 131.422C165.742 131.422 165.928 131.888 166.05 132.517C166.172 133.147 166.179 133.669 166.05 133.691C165.921 133.712 165.757 133.219 165.635 132.596C165.513 131.973 165.521 131.444 165.628 131.422Z" fill="#455A64" />
  <path d="M164.741 126.885C164.855 126.885 165.041 127.351 165.163 127.98C165.284 128.61 165.292 129.132 165.163 129.154C165.034 129.175 164.862 128.682 164.741 128.052C164.619 127.422 164.64 126.907 164.741 126.885Z" fill="#455A64" />
  <path d="M163.86 122.349C163.968 122.349 164.154 122.814 164.282 123.443C164.411 124.073 164.411 124.588 164.282 124.617C164.154 124.646 163.982 124.145 163.86 123.522C163.739 122.9 163.746 122.406 163.86 122.349Z" fill="#455A64" />
  <path d="M162.951 117.812C163.066 117.812 163.252 118.277 163.381 118.906C163.51 119.536 163.517 120.059 163.381 120.08C163.245 120.101 163.08 119.608 162.951 118.985C162.823 118.363 162.844 117.833 162.951 117.812Z" fill="#455A64" />
  <path d="M162.043 113.282C162.15 113.282 162.343 113.747 162.472 114.369C162.601 114.992 162.608 115.522 162.472 115.543C162.336 115.565 162.171 115.078 162.043 114.448C161.914 113.818 161.928 113.303 162.043 113.282Z" fill="#455A64" />
  <path d="M161.112 108.745C161.227 108.745 161.42 109.21 161.542 109.84C161.663 110.469 161.692 110.992 161.578 111.013C161.463 111.035 161.277 110.548 161.148 109.918C161.019 109.289 161.005 108.766 161.112 108.745Z" fill="#455A64" />
  <path d="M160.404 105.331C160.518 105.331 160.662 105.546 160.726 105.861C160.79 106.176 160.726 106.455 160.647 106.476C160.568 106.498 160.39 106.262 160.325 105.947C160.261 105.632 160.297 105.36 160.404 105.331Z" fill="#455A64" />
  <path d="M146.378 240.681C146.492 240.681 146.593 240.932 146.607 241.254C146.621 241.576 146.55 241.841 146.435 241.848C146.321 241.855 146.221 241.597 146.206 241.275C146.192 240.953 146.263 240.681 146.378 240.681Z" fill="#455A64" />
  <path d="M146.185 236.044C146.299 236.044 146.407 236.552 146.435 237.196C146.464 237.84 146.385 238.356 146.271 238.363C146.156 238.37 146.049 237.848 146.027 237.211C146.006 236.574 146.07 236.044 146.185 236.044Z" fill="#455A64" />
  <path d="M146.042 231.4C146.156 231.4 146.264 231.915 146.278 232.559C146.292 233.203 146.221 233.718 146.106 233.726C145.992 233.733 145.891 233.21 145.87 232.566C145.848 231.922 145.927 231.407 146.042 231.4Z" fill="#455A64" />
  <path d="M145.927 226.763C146.035 226.763 146.142 227.278 146.156 227.915C146.17 228.552 146.092 229.081 145.984 229.081C145.877 229.081 145.763 228.566 145.748 227.929C145.734 227.292 145.813 226.763 145.927 226.763Z" fill="#455A64" />
  <path d="M145.813 222.119C145.927 222.119 146.027 222.634 146.042 223.278C146.056 223.922 145.984 224.437 145.87 224.444C145.755 224.451 145.655 223.929 145.641 223.285C145.627 222.641 145.705 222.126 145.813 222.119Z" fill="#455A64" />
  <path d="M145.691 217.474C145.806 217.474 145.913 217.989 145.927 218.633C145.941 219.277 145.87 219.793 145.755 219.8C145.641 219.807 145.541 219.285 145.519 218.641C145.498 217.997 145.584 217.481 145.691 217.474Z" fill="#455A64" />
  <path d="M145.541 212.837C145.655 212.837 145.763 213.345 145.784 213.989C145.806 214.633 145.734 215.156 145.619 215.156C145.505 215.156 145.405 214.64 145.376 214.004C145.348 213.367 145.419 212.837 145.541 212.837Z" fill="#455A64" />
  <path d="M145.348 208.2C145.455 208.2 145.569 208.708 145.598 209.352C145.627 209.996 145.555 210.511 145.441 210.519C145.326 210.526 145.219 210.003 145.19 209.366C145.161 208.729 145.233 208.2 145.348 208.2Z" fill="#455A64" />
  <path d="M145.161 203.563C145.276 203.563 145.383 204.071 145.412 204.715C145.441 205.359 145.362 205.874 145.255 205.881C145.147 205.888 145.033 205.366 145.004 204.729C144.975 204.092 145.054 203.563 145.161 203.563Z" fill="#455A64" />
  <path d="M145.004 198.918C145.111 198.918 145.226 199.434 145.247 200.071C145.269 200.707 145.19 201.237 145.083 201.237C144.975 201.237 144.861 200.729 144.839 200.085C144.818 199.441 144.89 198.926 145.004 198.918Z" fill="#455A64" />
  <path d="M144.861 194.281C144.975 194.281 145.076 194.789 145.097 195.433C145.119 196.078 145.04 196.593 144.925 196.6C144.811 196.607 144.711 196.085 144.689 195.441C144.668 194.797 144.746 194.281 144.861 194.281Z" fill="#455A64" />
  <path d="M144.739 189.673C144.854 189.673 144.954 190.188 144.968 190.825C144.983 191.462 144.911 191.991 144.797 191.991C144.682 191.991 144.582 191.476 144.568 190.839C144.553 190.202 144.625 189.673 144.739 189.673Z" fill="#455A64" />
  <path d="M144.639 185C144.754 185 144.854 185.515 144.868 186.152C144.882 186.789 144.797 187.318 144.689 187.318C144.582 187.318 144.474 186.803 144.46 186.159C144.446 185.515 144.525 185 144.639 185Z" fill="#455A64" />
  <path d="M144.56 180.37C144.675 180.37 144.775 180.885 144.782 181.529C144.789 182.173 144.711 182.689 144.596 182.689C144.482 182.689 144.389 182.173 144.374 181.536C144.36 180.9 144.446 180.37 144.56 180.37Z" fill="#455A64" />
  <path d="M144.503 175.719C144.618 175.719 144.711 176.234 144.718 176.871C144.725 177.508 144.639 178.037 144.532 178.037C144.424 178.037 144.324 177.522 144.317 176.878C144.31 176.234 144.396 175.719 144.503 175.719Z" fill="#455A64" />
  <path d="M144.474 171.067C144.582 171.067 144.675 171.582 144.682 172.226C144.689 172.87 144.596 173.386 144.489 173.386C144.381 173.386 144.281 172.87 144.274 172.226C144.267 171.582 144.36 171.067 144.474 171.067Z" fill="#455A64" />
  <path d="M144.46 166.43C144.575 166.43 144.668 166.952 144.668 167.589C144.668 168.226 144.575 168.756 144.467 168.756C144.36 168.756 144.26 168.233 144.26 167.589C144.26 166.945 144.353 166.43 144.46 166.43Z" fill="#455A64" />
  <path d="M144.474 161.764C144.589 161.764 144.675 162.279 144.675 162.923C144.675 163.567 144.575 164.083 144.467 164.083C144.36 164.083 144.267 163.56 144.267 162.923C144.267 162.287 144.36 161.764 144.474 161.764Z" fill="#455A64" />
  <path d="M144.51 157.148C144.625 157.148 144.711 157.671 144.703 158.315C144.696 158.959 144.603 159.474 144.489 159.467C144.374 159.46 144.296 158.952 144.296 158.308C144.296 157.664 144.403 157.148 144.51 157.148Z" fill="#455A64" />
  <path d="M144.575 152.511C144.682 152.511 144.768 153.034 144.761 153.671C144.754 154.307 144.653 154.83 144.539 154.83C144.424 154.83 144.346 154.307 144.353 153.663C144.36 153.019 144.46 152.504 144.575 152.511Z" fill="#455A64" />
  <path d="M144.653 147.867C144.768 147.867 144.847 148.389 144.832 149.034C144.818 149.678 144.725 150.193 144.61 150.186C144.496 150.178 144.417 149.663 144.432 149.026C144.446 148.389 144.539 147.867 144.653 147.867Z" fill="#455A64" />
  <path d="M144.761 143.223C144.868 143.223 144.947 143.752 144.932 144.389C144.918 145.026 144.811 145.549 144.703 145.549C144.596 145.549 144.51 145.019 144.525 144.382C144.539 143.745 144.646 143.223 144.761 143.223Z" fill="#455A64" />
  <path d="M144.925 138.578C145.033 138.578 145.104 139.108 145.076 139.752C145.047 140.396 144.94 140.904 144.832 140.904C144.725 140.904 144.646 140.375 144.675 139.73C144.703 139.086 144.811 138.578 144.925 138.578Z" fill="#455A64" />
  <path d="M145.19 133.949C145.305 133.949 145.362 134.478 145.319 135.115C145.276 135.752 145.154 136.267 145.04 136.26C144.925 136.253 144.875 135.73 144.911 135.094C144.947 134.457 145.083 133.934 145.19 133.949Z" fill="#455A64" />
  <path d="M145.619 129.326C145.727 129.326 145.77 129.862 145.705 130.499C145.641 131.136 145.498 131.644 145.383 131.63C145.269 131.616 145.233 131.093 145.297 130.456C145.362 129.819 145.505 129.311 145.619 129.326Z" fill="#455A64" />
  <path d="M146.063 125.869C146.178 125.869 146.228 126.163 146.185 126.478C146.142 126.792 146.013 127.043 145.899 127.029C145.784 127.014 145.734 126.742 145.784 126.42C145.834 126.098 145.956 125.855 146.063 125.869Z" fill="#455A64" />
  <path d="M143.029 103.936C143.106 104.214 143.149 104.499 143.158 104.787C143.222 105.339 143.287 106.133 143.372 107.113C143.53 109.081 143.716 111.808 143.902 114.813C143.995 116.309 144.074 117.74 144.152 119.05C144.138 120.193 144.272 121.333 144.553 122.442C144.793 123.166 145.307 123.767 145.984 124.116C146.247 124.216 146.517 124.293 146.793 124.345C146.793 124.345 146.714 124.345 146.564 124.381C146.346 124.382 146.129 124.341 145.927 124.259C145.553 124.101 145.216 123.866 144.938 123.571C144.659 123.275 144.446 122.925 144.31 122.542C143.977 121.415 143.806 120.246 143.802 119.071C143.716 117.761 143.623 116.337 143.523 114.835C143.337 111.829 143.186 109.11 143.108 107.135C143.065 106.147 143.036 105.346 143.022 104.795C142.989 104.509 142.991 104.221 143.029 103.936Z" fill="#455A64" />
  <path d="M145.176 105.782C145.176 105.832 144.997 105.975 144.983 106.305C144.973 106.39 144.981 106.477 145.009 106.558C145.036 106.64 145.081 106.715 145.14 106.777C145.213 106.842 145.304 106.884 145.4 106.897C145.497 106.911 145.595 106.897 145.684 106.856C145.776 106.823 145.858 106.764 145.918 106.687C145.979 106.61 146.017 106.517 146.027 106.419C146.025 106.333 146.005 106.248 145.968 106.171C145.931 106.093 145.878 106.024 145.813 105.968C145.569 105.739 145.326 105.789 145.312 105.725C145.297 105.661 145.569 105.496 145.977 105.725C146.096 105.796 146.196 105.894 146.269 106.01C146.343 106.127 146.387 106.26 146.399 106.398C146.396 106.574 146.342 106.745 146.243 106.89C146.143 107.036 146.004 107.149 145.841 107.216C145.678 107.283 145.499 107.301 145.326 107.267C145.153 107.234 144.994 107.15 144.868 107.027C144.779 106.92 144.718 106.794 144.688 106.658C144.658 106.522 144.661 106.382 144.696 106.247C144.825 105.797 145.176 105.732 145.176 105.782Z" fill="#455A64" />
  <path d="M164.841 109.081C164.322 109.437 163.726 109.665 163.102 109.747C161.603 110.05 160.046 109.877 158.65 109.252C157.254 108.627 156.088 107.582 155.316 106.262C154.96 105.745 154.732 105.152 154.65 104.53C154.715 104.53 154.93 105.181 155.559 106.111C156.359 107.327 157.49 108.289 158.819 108.883C160.148 109.476 161.619 109.677 163.059 109.46C164.168 109.31 164.812 109.017 164.841 109.081Z" fill="#455A64" />
  <path d="M130.084 103.936C130.191 104.437 130.167 104.957 130.012 105.446C129.73 106.659 129.074 107.753 128.137 108.574C127.199 109.394 126.028 109.9 124.788 110.019C124.285 110.108 123.766 110.064 123.285 109.89C123.285 109.825 123.865 109.89 124.752 109.732C125.914 109.552 127.001 109.046 127.888 108.274C128.774 107.501 129.424 106.494 129.762 105.367C130.005 104.516 130.019 103.936 130.084 103.936Z" fill="#455A64" />
  <path d="M157.141 39.0732C155.301 38.4118 153.37 38.0424 151.416 37.9783V37.9783C146.941 39.3951 142.137 39.3951 137.662 37.9783H137.605C130.306 38.8561 123.382 41.6951 117.568 46.1935L107.728 53.8505L113.217 74.46L121.232 69.8515C121.232 69.8515 118.276 102.684 118.369 107.135L164.612 104.086L162.851 82.0812L162.257 62.9817L175.475 65.4147L184.377 47.6605" fill="#f75555" />
  <path d="M153.291 37.914C153.121 38.0769 152.928 38.2143 152.718 38.3219C152.174 38.6591 151.605 38.9534 151.015 39.2021C150.134 39.588 149.219 39.8922 148.282 40.1109C147.144 40.3714 145.984 40.5247 144.818 40.5689C143.653 40.5932 142.489 40.5069 141.34 40.3113C140.402 40.1578 139.48 39.9182 138.585 39.5957C137.982 39.3827 137.396 39.1243 136.832 38.8228C136.618 38.7252 136.419 38.6001 136.238 38.4507C136.274 38.3792 137.154 38.8443 138.678 39.3238C139.567 39.607 140.476 39.8223 141.397 39.9678C142.527 40.1339 143.669 40.2057 144.811 40.1825C145.951 40.1399 147.086 40.0011 148.203 39.7675C149.114 39.571 150.009 39.3055 150.879 38.9731C152.375 38.3649 153.234 37.8496 153.291 37.914Z" fill="#263238" />
  <path d="M146.593 57.6933C146.83 57.6591 147.069 57.6447 147.308 57.6504L149.412 57.6074L157.026 57.5144H157.205V57.6933C157.205 59.1245 157.205 60.6631 157.205 62.2875C157.205 63.1033 157.205 63.9262 157.205 64.8064C157.124 65.9674 156.671 67.0714 155.913 67.9544C155.155 68.8375 154.133 69.4525 152.997 69.7084C151.77 69.99 150.482 69.8319 149.359 69.2618C148.235 68.6917 147.348 67.7456 146.85 66.5883C146.647 66.0962 146.512 65.5785 146.45 65.0498C146.426 64.573 146.426 64.0953 146.45 63.6185C146.45 61.8295 146.507 60.3554 146.528 59.2676C146.528 58.8025 146.528 58.4232 146.564 58.1083C146.546 57.9826 146.546 57.8548 146.564 57.7291C146.574 57.8744 146.574 58.0203 146.564 58.1656C146.564 58.4876 146.564 58.8812 146.6 59.3607C146.6 60.4269 146.643 61.8796 146.679 63.6543C146.679 64.1051 146.679 64.5774 146.729 65.0855C146.811 65.7872 147.04 66.4636 147.402 67.0703C147.764 67.677 148.25 68.2002 148.829 68.6057C149.407 69.0112 150.065 69.2897 150.759 69.423C151.453 69.5563 152.167 69.5414 152.854 69.3792C154.14 69.0872 155.258 68.3004 155.967 67.1894C156.425 66.4841 156.696 65.6739 156.754 64.8351C156.79 64.0121 156.754 63.1534 156.754 62.3448C156.754 60.7203 156.754 59.1746 156.754 57.7505L156.933 57.9294L149.434 57.8364L147.287 57.7935C147.054 57.7733 146.822 57.7399 146.593 57.6933V57.6933Z" fill="#263238" />
  <path d="M156.69 59.3536C156.69 59.3536 156.797 59.3035 157.005 59.282V59.4323C156.289 59.511 154.321 59.5683 151.996 59.5683C150.216 59.6329 148.434 59.566 146.664 59.3679C148.433 59.1608 150.216 59.0914 151.996 59.1604C154.336 59.1604 156.289 59.2176 157.005 59.2963V59.4323C156.797 59.4323 156.69 59.3751 156.69 59.3536Z" fill="#263238" />
  <path d="M183.153 47.3529C183.075 47.6037 182.967 47.844 182.831 48.0685C182.545 48.5981 182.216 49.2278 181.822 49.9649L178.48 56.205L175.224 62.488C174.838 63.2036 174.509 63.8548 174.229 64.3844C174.125 64.6411 173.985 64.8819 173.814 65.1C173.875 64.8509 173.966 64.6105 174.086 64.3844C174.28 63.9121 174.58 63.2465 174.967 62.4236C175.732 60.7777 176.834 58.5307 178.122 56.0833C179.41 53.6359 180.648 51.4533 181.572 49.8933C182.037 49.1133 182.416 48.4621 182.695 48.0542C182.815 47.8007 182.969 47.5648 183.153 47.3529V47.3529Z" fill="#263238" />
  <path d="M164.841 102.083C164.841 102.19 154.543 102.891 141.834 103.643C129.125 104.394 118.813 104.916 118.806 104.802C118.798 104.687 129.096 103.993 141.812 103.242C154.529 102.49 164.834 101.968 164.841 102.083Z" fill="#263238" />
  <path d="M108.544 56.9133L100.572 62.3162L102.633 77.988L112.687 72.5494L108.544 56.9133Z" fill="#FFBE9D" />
  <path d="M211.921 9.22522L213.967 13.4187C214.349 14.3354 214.963 15.1368 215.749 15.7444L218.254 17.6765C218.425 17.806 218.558 17.979 218.64 18.1775L224.179 31.5808C224.217 31.6719 224.217 31.7744 224.179 31.8656C224.142 31.9569 224.07 32.0295 223.979 32.0674L216.436 35.1803C216.345 35.2183 216.242 35.2185 216.151 35.1809C216.06 35.1433 215.987 35.071 215.949 34.9799L210.446 21.6553C210.36 21.4474 210.332 21.2195 210.368 20.997L210.754 17.7839C210.842 16.8128 210.71 15.8345 210.368 14.9215L209.108 10.3988L211.921 9.22522Z" fill="#f75555" />
  <path d="M211.312 23.7592L216.393 21.6553L220.086 30.579L215.005 32.6828" fill="#FAFAFA" />
  <path d="M209.171 10.3778L211.849 9.27061C212.152 9.14529 212.296 8.79795 212.171 8.4948L212.13 8.3956C212.005 8.09245 211.657 7.94829 211.354 8.07361L208.676 9.18084C208.373 9.30617 208.229 9.6535 208.354 9.95665L208.395 10.0558C208.52 10.359 208.868 10.5032 209.171 10.3778Z" fill="#f75555" />
  <path d="M211.627 14.4421L213.974 13.4688L212.736 10.8926L210.532 11.8015L211.627 14.4421Z" fill="#FAFAFA" />
  <path d="M213.159 28.2174C213.309 28.5827 213.565 28.8951 213.893 29.1151C214.221 29.3351 214.607 29.4527 215.002 29.4532C215.397 29.4536 215.784 29.3369 216.112 29.1176C216.441 28.8984 216.697 28.5866 216.849 28.2217C217 27.8567 217.04 27.4551 216.963 27.0676C216.886 26.68 216.695 26.3241 216.416 26.0447C216.137 25.7654 215.781 25.5752 215.393 25.4983C215.006 25.4214 214.604 25.4612 214.239 25.6126C213.751 25.8153 213.363 26.2033 213.16 26.6916C212.958 27.1799 212.957 27.7286 213.159 28.2174V28.2174Z" fill="#f75555" />
  <path d="M211.47 24.1385C211.869 23.886 212.294 23.6751 212.736 23.5087C213.559 23.1366 214.733 22.6285 216.143 22.0274L216.293 21.963L216.357 22.1204C216.865 23.337 217.445 24.7109 218.053 26.1779L219.721 30.2569L219.785 30.4072L219.628 30.4716C218.196 31.0369 217.023 31.5092 216.178 31.8241C215.743 32.0119 215.293 32.1627 214.833 32.2749C215.235 32.0217 215.662 31.8107 216.107 31.6452C216.923 31.2731 218.096 30.765 219.506 30.1639L219.413 30.3786L217.695 26.3211C217.102 24.8469 216.536 23.4586 216.035 22.2421L216.25 22.3351C214.819 22.9005 213.638 23.3728 212.801 23.6876C212.372 23.8788 211.926 24.0297 211.47 24.1385V24.1385Z" fill="#E0E0E0" />
  <path d="M211.405 12.2522C211.362 12.1592 211.692 11.9302 212.121 11.7441C212.55 11.5581 212.958 11.4937 213.001 11.5867C213.044 11.6797 212.708 11.9087 212.285 12.0948C211.863 12.2808 211.441 12.3452 211.405 12.2522Z" fill="#E0E0E0" />
  <path d="M211.799 13.2111C211.756 13.1109 212.085 12.8891 212.514 12.703C212.944 12.517 213.352 12.4454 213.395 12.5456C213.438 12.6458 213.108 12.8676 212.679 13.0465C212.25 13.2254 211.835 13.3042 211.799 13.2111Z" fill="#E0E0E0" />
  <path d="M218.139 17.7124L216.465 20.9756C216.279 21.3405 216.1 21.8057 216.343 22.1348C216.447 22.2479 216.582 22.3269 216.732 22.3614C216.881 22.3959 217.038 22.3843 217.18 22.328C217.459 22.2037 217.704 22.0149 217.896 21.777C218.61 20.995 219.19 20.1004 219.613 19.1293C219.684 18.9367 219.695 18.7272 219.646 18.5282C219.596 18.3291 219.487 18.1496 219.334 18.0129C219.165 17.8858 218.972 17.7937 218.767 17.7421C218.562 17.6905 218.348 17.6804 218.139 17.7124V17.7124Z" fill="#FFBE9D" />
  <path d="M220.422 21.3548C219.864 22.4425 219.308 23.5302 218.755 24.618C218.569 24.9829 218.382 25.4481 218.633 25.7773C218.733 25.893 218.868 25.9735 219.017 26.007C219.167 26.0405 219.323 26.0252 219.463 25.9633C219.741 25.8415 219.987 25.6551 220.179 25.4195C220.892 24.6357 221.47 23.7385 221.889 22.7645C221.961 22.5733 221.973 22.3645 221.923 22.1662C221.873 21.9679 221.764 21.7897 221.61 21.6554C221.442 21.5291 221.25 21.4375 221.046 21.3859C220.842 21.3343 220.63 21.3238 220.422 21.3548Z" fill="#FFBE9D" />
  <path d="M219.127 19.5801C218.569 20.6678 218.013 21.7555 217.459 22.8432C217.273 23.2082 217.087 23.6662 217.338 23.9953C217.437 24.1123 217.571 24.1942 217.721 24.229C217.87 24.2638 218.027 24.2496 218.168 24.1886C218.448 24.0665 218.694 23.8772 218.883 23.6375C219.597 22.8564 220.175 21.9615 220.594 20.9898C220.594 20.9898 221.18 19.7375 220.171 19.0791C219.162 18.4208 219.127 19.5801 219.127 19.5801Z" fill="#FFBE9D" />
  <path d="M123.335 52.1904C123.435 51.2784 123.662 50.3849 124.008 49.5355C124.235 48.6459 124.582 47.7913 125.039 46.9951C124.935 47.9062 124.708 48.7992 124.366 49.65C124.134 50.5377 123.787 51.3916 123.335 52.1904Z" fill="#FAFAFA" />
  <path d="M131.959 61.0638C131.274 60.6657 130.658 60.1608 130.134 59.5682C129.521 59.0634 128.99 58.4672 128.559 57.8007C129.245 58.1996 129.863 58.7043 130.391 59.2963C131.002 59.8005 131.531 60.3968 131.959 61.0638V61.0638Z" fill="#FAFAFA" />
  <path d="M127.193 70.288C126.822 69.6718 126.561 68.9964 126.42 68.2915C126.161 67.622 126.02 66.9125 126.005 66.1948C126.375 66.811 126.636 67.4864 126.778 68.1913C127.037 68.8608 127.177 69.5703 127.193 70.288Z" fill="#FAFAFA" />
  <path d="M128.187 79.8199C126.462 79.6055 124.775 79.1477 123.178 78.4603C124.053 78.5073 124.918 78.6759 125.747 78.9612C126.597 79.1303 127.419 79.4194 128.187 79.8199V79.8199Z" fill="#FAFAFA" />
  <path d="M141.405 69.0715C141.455 69.1646 140.267 69.8873 138.921 70.9321C138.142 71.6137 137.328 72.2539 136.481 72.8499C137.757 71.1752 139.457 69.871 141.405 69.0715V69.0715Z" fill="#FAFAFA" />
  <path d="M139.179 58.2945C139.106 57.0855 139.157 55.8723 139.329 54.6735C139.379 53.4659 139.554 52.2667 139.852 51.0955C139.924 52.3068 139.874 53.5224 139.701 54.7236C139.653 55.9289 139.477 57.1257 139.179 58.2945V58.2945Z" fill="#FAFAFA" />
  <path d="M137.59 44.0252C135.847 45.1568 133.973 46.0724 132.009 46.7517C133.754 45.6237 135.628 44.7084 137.59 44.0252V44.0252Z" fill="#FAFAFA" />
  <path d="M150.758 48.9343C149.217 47.6609 147.841 46.1992 146.664 44.5834C148.205 45.8569 149.58 47.3186 150.758 48.9343V48.9343Z" fill="#FAFAFA" />
  <path d="M152.131 63.1892C151.802 63.8052 151.363 64.3557 150.836 64.8136C150.396 65.3558 149.866 65.8182 149.269 66.1804C149.603 65.5675 150.041 65.0177 150.564 64.556C151.002 64.0115 151.533 63.5487 152.131 63.1892Z" fill="#FAFAFA" />
  <path d="M150.328 78.6105C149.646 77.8963 149.055 77.1008 148.568 76.2418C147.985 75.4462 147.504 74.5807 147.137 73.6656C147.817 74.379 148.406 75.1748 148.89 76.0343C149.476 76.8288 149.959 77.6944 150.328 78.6105V78.6105Z" fill="#FAFAFA" />
  <path d="M140.982 83.0473C140.133 82.6005 139.368 82.0097 138.721 81.3012C137.992 80.6806 137.376 79.937 136.903 79.1043C137.648 79.6895 138.342 80.3358 138.979 81.0364C139.702 81.6486 140.373 82.3213 140.982 83.0473V83.0473Z" fill="#FAFAFA" />
  <path d="M131.737 88.3857C131.801 88.4788 130.57 89.359 129.268 90.6685C128.345 91.5845 127.629 92.4647 127.271 92.8726L127.164 92.7509C127.4 92.6651 127.529 92.6364 127.543 92.6651C127.558 92.6937 127.45 92.7724 127.235 92.9012L126.978 93.0587L127.128 92.7724C127.652 91.9076 128.282 91.1118 129.003 90.4038C129.769 89.5532 130.698 88.8668 131.737 88.3857V88.3857Z" fill="#FAFAFA" />
  <path d="M141.354 96.3075C139.645 94.9408 138.271 93.2002 137.34 91.2195C138.058 92.0257 138.727 92.874 139.344 93.76C140.064 94.5687 140.735 95.4194 141.354 96.3075Z" fill="#FAFAFA" />
  <path d="M155.087 90.919C153.158 92.7014 151.066 94.2994 148.84 95.6921C149.762 94.7456 150.773 93.8901 151.86 93.1374C152.866 92.3021 153.946 91.5596 155.087 90.919V90.919Z" fill="#FAFAFA" />
  <path d="M150.378 87.8347C150.414 87.8347 150.378 88.0923 150.3 88.5074L150.257 88.7292L150.099 88.536C149.734 88.078 149.169 87.3052 148.561 86.3892C147.891 85.5161 147.322 84.5703 146.865 83.5697C147.63 84.3587 148.302 85.2327 148.868 86.1745C149.477 87.0619 149.992 87.8705 150.3 88.3857H150.099C150.228 88.0566 150.335 87.8204 150.378 87.8347Z" fill="#FAFAFA" />
  <path d="M161.413 83.6055C160.482 82.7154 159.74 81.647 159.23 80.464C158.614 79.3361 158.222 78.0989 158.078 76.8215C158.193 76.8215 158.644 78.4388 159.567 80.2994C160.49 82.16 161.499 83.5339 161.413 83.6055Z" fill="#FAFAFA" />
  <path d="M130.649 101.832C129.317 101.514 128.016 101.075 126.763 100.522C125.467 100.084 124.214 99.5254 123.021 98.855C125.647 99.6176 128.2 100.614 130.649 101.832V101.832Z" fill="#FAFAFA" />
  <path d="M160.583 67.5544C160.111 68.4052 159.529 69.1896 158.851 69.8873C158.269 70.6678 157.591 71.3722 156.833 71.984C157.305 71.1333 157.887 70.3489 158.565 69.6512C159.147 68.8707 159.825 68.1663 160.583 67.5544V67.5544Z" fill="#FAFAFA" />
  <path d="M161.413 58.4304C160.651 57.3108 160.074 56.0762 159.703 54.7736C159.217 53.5103 158.941 52.1759 158.887 50.8235C159.001 50.8235 159.352 52.5696 160.053 54.6591C160.755 56.7487 161.513 58.3803 161.413 58.4304Z" fill="#FAFAFA" />
  <path d="M162.493 45.2847C161.135 45.4044 159.767 45.3515 158.422 45.1273C157.06 45.024 155.717 44.7425 154.429 44.29C155.781 44.3744 157.128 44.5297 158.465 44.7552C159.816 44.8608 161.161 45.0375 162.493 45.2847V45.2847Z" fill="#FAFAFA" />
  <path d="M167.746 52.8343C168.055 51.7677 168.479 50.7383 169.013 49.7644C169.438 48.7375 169.976 47.7607 170.616 46.8519C170.31 47.9193 169.885 48.9491 169.349 49.9218C168.924 50.9487 168.386 51.9255 167.746 52.8343Z" fill="#FAFAFA" />
  <path d="M173.378 59.6541C172.599 59.8396 171.788 59.8396 171.009 59.6541C170.21 59.5941 169.436 59.3491 168.748 58.9385C169.526 58.9877 170.299 59.0978 171.059 59.2677C171.842 59.3311 172.617 59.4604 173.378 59.6541V59.6541Z" fill="#FAFAFA" />
  <path d="M176.247 55.1386C176.16 54.1121 176.198 53.0787 176.362 52.0615C176.397 51.029 176.56 50.005 176.849 49.013C176.932 50.042 176.894 51.0773 176.734 52.0973C176.69 53.1265 176.527 54.1471 176.247 55.1386Z" fill="#FAFAFA" />
  <path d="M208.636 7.47909C208.654 6.60238 208.513 5.72966 208.221 4.90291C208.067 4.49228 207.806 4.13034 207.465 3.85474C207.124 3.57913 206.715 3.39992 206.282 3.33573C206.067 3.31886 205.851 3.34838 205.648 3.42231C205.446 3.49624 205.262 3.61284 205.108 3.76419C204.955 3.91555 204.836 4.09813 204.759 4.29954C204.683 4.50096 204.65 4.71649 204.664 4.93153C204.8 5.64714 205.587 6.10513 206.31 6.36275C207.033 6.62037 208.235 6.82789 208.636 7.47909" fill="#455A64" />
  <path d="M209.216 5.04606C209.836 3.96175 210.104 2.71126 209.981 1.46802C209.982 1.22192 209.927 0.978852 209.82 0.757024C209.714 0.535196 209.558 0.340353 209.366 0.18708C209.191 0.0886762 208.992 0.0418197 208.792 0.0519534C208.592 0.0620871 208.399 0.128796 208.235 0.24433C208.073 0.362544 207.938 0.513448 207.838 0.687266C207.738 0.861083 207.676 1.05393 207.655 1.25333C207.63 1.94697 207.837 2.62924 208.242 3.19263C208.64 3.75344 208.933 4.38127 209.108 5.04606" fill="#455A64" />
  <path d="M122.52 55.9759C122.62 55.9759 122.377 59.2605 121.976 63.2822C121.802 65.7191 121.506 68.1457 121.088 70.5528C121.14 68.1097 121.319 65.6709 121.625 63.2465C121.796 60.809 122.095 58.3821 122.52 55.9759V55.9759Z" fill="#263238" />
</svg>