<svg width="141" height="258" viewBox="0 0 141 258" fill="none" xmlns="http://www.w3.org/2000/svg">
  <path d="M3.73511 5.0289C3.73511 5.0289 1.87686 1.8265 2.62016 1.4053C3.36347 0.98409 6.11988 1.11417 7.14192 0.643407C8.16396 0.172648 9.3099 -0.285718 9.7311 0.222206C10.1523 0.73013 16.8668 8.64632 16.8668 8.64632L20.094 11.8549L15.1758 14.5804C15.1758 14.5804 7.91001 12.0036 6.73311 11.5762C5.82256 11.2417 2.4777 7.43225 1.15833 5.86512C1.05579 5.75207 0.97874 5.6183 0.932391 5.47289C0.886043 5.32747 0.871481 5.17379 0.889689 5.02225C0.907897 4.87072 0.95845 4.72486 1.03793 4.59456C1.11741 4.46426 1.22395 4.35256 1.35035 4.26702C1.83969 3.93253 2.63254 3.88917 3.73511 5.0289Z" fill="#FFBE9D" />
  <path d="M2.4715 4.14313C2.80433 4.26294 3.10974 4.44829 3.36966 4.68822C3.99528 5.22143 4.68889 5.66925 5.43233 6.01997C5.87936 6.12951 6.31815 6.27026 6.7455 6.44117C7.09714 6.60795 7.42775 6.81588 7.73038 7.06059C8.25069 7.46322 8.49226 7.78532 8.46748 7.81629C7.52912 7.11325 6.4558 6.61138 5.31464 6.34207C4.54061 5.98634 3.83755 5.49315 3.23959 4.88643C2.75025 4.43426 2.44673 4.18029 2.4715 4.14313Z" fill="#EB996E" />
  <path d="M3.72273 4.87404C3.82702 4.90002 3.9354 4.90519 4.04169 4.88925C4.14797 4.8733 4.25008 4.83656 4.34215 4.78113C4.54048 4.61127 4.68901 4.39078 4.77191 4.14317C4.85481 3.89555 4.86898 3.63008 4.81291 3.37504L4.70142 2.81757L5.07306 3.25735C5.39364 3.60538 5.80247 3.86009 6.25616 3.99446C6.64541 4.12283 7.06043 4.15263 7.46402 4.08118L7.97814 3.98827L7.59411 4.34753C7.41448 4.51478 7.43925 4.96696 7.43925 5.2395C7.45463 5.52311 7.4401 5.80754 7.39589 6.0881C7.37483 6.28522 7.29001 6.47009 7.15431 6.61461C7.04901 6.70133 6.97468 6.71991 6.96849 6.70752C7.10813 6.52927 7.19216 6.31383 7.21006 6.0881C7.22726 5.81583 7.22726 5.54274 7.21006 5.27047C7.2001 5.09717 7.2001 4.92345 7.21006 4.75016C7.20644 4.63648 7.22538 4.52321 7.26578 4.41689C7.30618 4.31058 7.36724 4.21332 7.44544 4.13074L7.56933 4.39709C7.11412 4.48908 6.64298 4.4635 6.20041 4.32276C5.68409 4.15861 5.22742 3.84627 4.88724 3.4246L5.14739 3.30691C5.21147 3.61883 5.18017 3.94282 5.05753 4.23669C4.9349 4.53057 4.72663 4.78072 4.45983 4.95457C4.37726 4.99684 4.28717 5.02242 4.19471 5.02986C4.10224 5.0373 4.00921 5.02645 3.92094 4.99793C3.75989 4.94218 3.71654 4.88643 3.72273 4.87404Z" fill="#EB996E" />
  <path d="M10.1399 2.79898C9.47538 2.43632 8.92922 1.89016 8.56657 1.22565C8.52623 1.16959 8.48281 1.11582 8.43649 1.0646C8.40158 1.02751 8.3594 0.997992 8.3126 0.977881C8.19953 0.935671 8.0802 0.912642 7.95954 0.909744L7.29056 0.897358C6.89413 0.897358 6.67114 0.841608 6.67114 0.798249C6.67114 0.754889 6.91891 0.705336 7.29056 0.668171C7.48878 0.668171 7.71796 0.624815 7.9967 0.618621C8.15482 0.614389 8.31236 0.639591 8.46127 0.692948C8.54933 0.728231 8.62939 0.780897 8.69665 0.847803C8.75541 0.907372 8.80927 0.97159 8.85769 1.03983C9.47711 2.06806 10.2018 2.75562 10.1399 2.79898Z" fill="#EB996E" />
  <path d="M101.789 56.3417L108.875 75.4074L120.954 86.687L121.394 90.1434L103.431 97.5765L83.6093 71.344L61.8739 60.1573L61.6013 53.9135L66.2841 47.9052L68.7618 45.7868L84.1049 44.7709L92.7334 47.2486C98.0232 48.4255 100.705 54.025 101.789 56.3417Z" fill="#f75555" />
  <path d="M69.0282 45.6566L43.8364 26.1759L17.988 8.91266L13.0636 15.5466L65.5904 59.9033L69.0282 45.6566Z" fill="#f75555" />
  <path d="M108.615 75.4879C108.463 76.1504 108.256 76.7989 107.996 77.4267C107.47 78.9768 106.809 80.4775 106.02 81.9113C105.229 83.3567 104.194 84.654 102.96 85.7455C102.584 86.0707 102.182 86.3648 101.758 86.6251C101.611 86.7365 101.446 86.8204 101.269 86.8729C101.238 86.8233 101.888 86.4269 102.805 85.5721C103.972 84.4543 104.962 83.1657 105.741 81.7503C106.517 80.3278 107.199 78.8567 107.785 77.3462C108.015 76.707 108.293 76.0859 108.615 75.4879Z" fill="#263238" />
  <path d="M107.76 75.8472C107.612 76.2867 107.404 76.7036 107.141 77.086C106.595 78.067 105.88 78.9436 105.029 79.6752C104.181 80.3925 103.296 81.0645 102.378 81.6883C102.022 81.9772 101.641 82.2323 101.238 82.4502C101.526 82.0885 101.864 81.7694 102.241 81.5025C102.898 80.9636 103.852 80.2636 104.818 79.4336C105.64 78.7108 106.357 77.8769 106.949 76.9559C107.185 76.5622 107.456 76.191 107.76 75.8472Z" fill="#263238" />
  <path d="M62.5738 53.0339C62.4809 52.6489 62.4558 52.2507 62.4995 51.8571C62.5214 50.9034 62.6735 49.9573 62.9516 49.0449C63.2272 48.1246 63.6819 47.2678 64.2896 46.5238C64.5187 46.1977 64.8196 45.9286 65.1692 45.7372C65.2063 45.7743 64.878 46.0841 64.4692 46.6601C63.9284 47.4157 63.5104 48.2519 63.2304 49.1378C62.6357 51.2252 62.6915 53.0463 62.5738 53.0339Z" fill="#263238" />
  <path d="M63.3294 58.1503C63.2168 57.5921 63.1773 57.0216 63.2118 56.4531C63.2399 53.6974 63.8366 50.9771 64.9647 48.4626C65.1711 47.9303 65.4482 47.4282 65.7885 46.9698C65.6103 47.507 65.4036 48.0342 65.1691 48.5493C64.173 51.0767 63.5875 53.7471 63.4347 56.4593C63.4391 57.0248 63.4039 57.5898 63.3294 58.1503Z" fill="#263238" />
  <g opacity="0.3">
    <path opacity="0.3" d="M108.157 77.0179L105.741 82.1777C105.506 82.7229 105.218 83.2437 104.88 83.7324C104.391 84.389 103.728 84.8969 103.251 85.5907C104.244 85.7215 105.252 85.5241 106.122 85.0287C106.992 84.5333 107.676 83.767 108.07 82.8466C108.388 81.9235 108.523 80.9472 108.467 79.9725C108.449 79.0457 108.372 78.1209 108.237 77.2037C108.242 77.0841 108.217 76.9652 108.165 76.8572C108.114 76.7493 108.036 76.6556 107.94 76.5843" fill="black" />
  </g>
  <path d="M106.311 69.653C106.198 69.8535 106.063 70.0406 105.908 70.2105C105.744 70.4277 105.566 70.6345 105.376 70.8299C105.159 71.0529 104.924 71.3254 104.62 71.5856C103.944 72.2233 103.215 72.8015 102.44 73.3138C100.543 74.5855 98.4188 75.4793 96.1835 75.9463C95.2734 76.1342 94.3495 76.2481 93.4209 76.287C93.0245 76.3179 92.6652 76.287 92.3555 76.287C92.0864 76.286 91.8175 76.2694 91.5503 76.2374C91.3202 76.2294 91.0917 76.1961 90.8689 76.1383C90.8689 76.0764 91.8476 76.1383 93.4085 76.0516C94.3212 75.9776 95.2277 75.841 96.1216 75.6428C97.213 75.3895 98.2819 75.0477 99.3178 74.6207C100.345 74.178 101.335 73.6539 102.279 73.0536C103.048 72.5569 103.78 72.0063 104.471 71.4059C105.648 70.3715 106.261 69.6158 106.311 69.653Z" fill="#FAFAFA" />
  <path d="M115.423 82.3449C115.372 82.5403 115.291 82.7265 115.181 82.8962C114.915 83.3732 114.613 83.8288 114.277 84.2589C113.144 85.6657 111.773 86.8628 110.226 87.7958C108.687 88.725 107.068 89.5148 105.388 90.1558C104.769 90.4097 104.23 90.6018 103.871 90.7256C103.686 90.8041 103.492 90.8602 103.294 90.8929C103.942 90.5329 104.612 90.2163 105.301 89.9452C106.94 89.2498 108.527 88.4405 110.052 87.5232C111.571 86.607 112.936 85.4573 114.097 84.1164C114.977 83.0758 115.373 82.3201 115.423 82.3449Z" fill="#FAFAFA" />
  <path d="M101.864 58.2742C101.627 58.8552 101.224 59.3532 100.705 59.7051C100.252 60.1352 99.6841 60.4255 99.07 60.5413C99.5272 60.1519 100.007 59.79 100.507 59.4573C100.937 59.0377 101.389 58.6427 101.864 58.2742Z" fill="#FAFAFA" />
  <path d="M89.7168 50.1227C89.6858 50.2094 88.4098 49.7572 86.7745 49.5032C85.1393 49.2493 83.7827 49.2183 83.7827 49.1192C85.8191 48.8589 87.8867 49.2172 89.7168 50.1474V50.1227Z" fill="#FAFAFA" />
  <path d="M68.4026 48.1591C68.322 48.2087 67.969 47.7131 67.3124 47.4468C66.894 47.3246 66.4676 47.2314 66.0364 47.168C65.993 47.0875 66.6558 46.8211 67.4363 47.168C68.2167 47.5149 68.4893 48.1343 68.4026 48.1591Z" fill="#FAFAFA" />
  <path d="M77.1674 61.6005C76.9618 61.6278 76.7535 61.6278 76.5479 61.6005C76.1639 61.6005 75.6064 61.5138 74.9251 61.4023C73.1415 61.1075 71.3978 60.6087 69.7281 59.9157C68.0647 59.2108 66.4857 58.3216 65.0205 57.2646C64.4631 56.8558 64.0233 56.5089 63.7384 56.2488C63.5754 56.1287 63.4295 55.987 63.3047 55.8275C63.3419 55.7842 64.0109 56.3169 65.163 57.0664C66.6555 58.0483 68.2356 58.8902 69.883 59.5812C71.5337 60.2605 73.2447 60.7831 74.9932 61.1422C76.325 61.4395 77.1736 61.5386 77.1674 61.6005Z" fill="#FAFAFA" />
  <path d="M27.8677 15.5157C27.9296 15.59 26.2634 16.9094 24.5786 18.8853C22.8938 20.8613 21.8407 22.7072 21.754 22.6576C21.898 22.2162 22.1067 21.7987 22.3734 21.4188C23.5199 19.4882 24.9861 17.7665 26.7094 16.3271C27.0539 16.0016 27.4441 15.7283 27.8677 15.5157Z" fill="#FAFAFA" />
  <path d="M19.8153 10.5913C19.8772 10.6718 18.4959 11.8301 16.9597 13.4158C15.4236 15.0015 14.3148 16.4262 14.2405 16.3705C14.9133 15.2003 15.7474 14.1306 16.7182 13.1928C17.6244 12.1857 18.6669 11.3101 19.8153 10.5913Z" fill="#FAFAFA" />
  <path d="M37.3944 22.001C37.1051 22.452 36.7642 22.8678 36.3786 23.2398C35.4953 24.2018 34.5453 25.1001 33.5354 25.9281C32.5235 26.7584 31.4556 27.518 30.3392 28.2014C29.8901 28.5047 29.408 28.7562 28.9022 28.9509C29.3141 28.6026 29.7532 28.2877 30.2153 28.0094C31.0392 27.4457 32.1541 26.6467 33.3124 25.6804C34.4707 24.7141 35.4866 23.7787 36.1989 23.085C36.5657 22.6901 36.9656 22.3275 37.3944 22.001Z" fill="#FAFAFA" />
  <g opacity="0.3">
    <path opacity="0.3" d="M63.1251 43.6931C63.6518 44.0595 64.0933 44.5353 64.4193 45.088C64.7454 45.6407 64.9483 46.2572 65.0143 46.8955C65.1417 48.1774 64.928 49.4702 64.3949 50.643C64.0217 51.3802 63.7209 52.1519 63.4968 52.9472C63.3321 53.9081 63.5146 54.8962 64.0116 55.7348C64.5087 56.5734 65.2879 57.2079 66.2098 57.5247C66.8509 57.6779 67.5003 57.7937 68.1548 57.8716C69.437 58.17 70.6742 58.6365 71.8341 59.2591L74.9312 60.7395C75.3626 60.8924 75.7309 61.1844 75.9781 61.5695C76.0836 61.8385 76.1033 62.1334 76.0345 62.414C75.9658 62.6946 75.8119 62.947 75.594 63.1367C75.179 63.5393 74.7268 66.1161 74.1879 66.3143C74.1879 66.3143 71.8589 65.317 69.7095 64.2269C68.8238 63.7747 65.993 62.3686 65.2063 61.8731C64.2401 61.2536 63.7507 62.2943 62.8216 61.6191C61.9909 61.0859 61.2664 60.4033 60.6846 59.606C60.2889 58.9446 59.9984 58.2258 59.8236 57.4752C59.3225 55.6986 58.9438 53.8898 58.69 52.0615C58.5468 51.2826 58.53 50.4857 58.6405 49.7015C58.8269 48.8774 59.1905 48.1038 59.7059 47.4344C60.7155 46.0407 61.6013 44.4302 63.1623 43.7179" fill="black" />
  </g>
  <g opacity="0.3">
    <path opacity="0.3" d="M95.9977 82.3077C96.1959 82.4006 96.134 82.252 96.264 82.0723C96.9454 81.1618 96.6109 79.8734 96.1897 78.8142C95.7734 77.7568 95.2999 76.7229 94.7712 75.7171C94.1518 74.5588 93.4519 73.2766 93.7925 72.0006C94.0403 71.1024 94.7712 70.4334 95.3535 69.6963C96.4179 68.355 97.0217 66.7064 97.0755 64.9949C97.0895 64.9161 97.0845 64.835 97.0608 64.7585C97.037 64.682 96.9954 64.6122 96.9392 64.5551C96.7348 64.4065 96.4623 64.6171 96.3198 64.8153C93.8421 67.7142 87.9514 72.2793 87.9514 72.2793C87.9514 72.2793 94.6659 80.6291 92.8324 78.5478C92.8324 78.5478 95.465 81.5211 96.0225 82.2644" fill="black" />
  </g>
  <path d="M65.2559 11.9107C64.8656 11.3842 64.017 11.8673 63.7197 12.4558C63.4224 13.0442 63.3109 13.7937 62.7162 14.0724C61.9358 14.4441 60.7465 13.7813 60.2386 14.4875C59.8669 15.0325 60.412 15.7697 60.2386 16.4077C59.9598 17.5412 57.9715 17.2687 57.4078 18.2659C57.0733 18.8853 57.4078 19.6224 57.6866 20.2666C57.9653 20.9108 58.0582 21.809 57.4574 22.1745C56.8565 22.5399 55.9646 22.1187 55.469 22.5957C54.8062 23.2151 55.7973 24.3176 55.5929 25.2096C55.4442 25.829 54.7009 26.1821 54.0444 26.3246C53.3878 26.467 52.6383 26.5723 52.1861 27.0803C51.2136 28.2076 52.6321 29.9544 52.2357 31.379C51.9941 32.24 51.0897 32.9709 51.3003 33.8567C51.5729 34.9717 53.4064 35.0956 53.6665 36.2353C53.8833 37.183 52.7993 38.2608 53.394 39.0289C53.9886 39.797 55.2894 39.0784 56.1194 39.543C57.0857 40.0819 56.8999 41.8534 57.9777 42.1136C58.4546 42.2313 58.9502 41.9463 59.4395 42.0145C60.6226 42.1879 60.9385 44.2072 62.134 44.1329C62.8339 44.0833 63.3728 43.2657 64.0604 43.4329C64.7479 43.6002 64.8285 44.5355 65.4045 44.901C66.3027 45.4708 67.3433 44.2815 68.4087 44.2444C69.0715 44.2134 69.7157 44.6408 70.3661 44.5231C70.6709 44.439 70.9454 44.2695 71.1571 44.0347C71.3689 43.7999 71.5092 43.5094 71.5616 43.1976C71.6479 42.5799 71.6333 41.9523 71.5182 41.3393C71.1297 37.8909 71.7335 34.4032 73.2588 31.2861" fill="#263238" />
  <path d="M68.9476 48.5927L68.737 43.402C68.737 43.402 63.3109 42.6091 62.0597 35.653C61.4403 32.1967 61.5084 26.5042 61.7314 21.8523C61.973 16.7174 67.6159 11.3222 71.8465 11.6877L84.3836 16.1041V18.3588L84.0119 48.3821C84.0677 49.9059 79.7751 54.0746 75.5692 54.0746C72.9491 54.3471 68.8733 52.7986 68.9476 48.5927Z" fill="#FFBE9D" />
  <path d="M63.1994 26.2936C63.3171 26.4113 63.9923 25.8971 64.971 25.8786C65.9497 25.86 66.6682 26.3369 66.7735 26.2131C66.8788 26.0892 66.7054 25.9529 66.3895 25.7361C65.96 25.4531 65.4542 25.3083 64.94 25.3211C64.4357 25.3339 63.9473 25.5003 63.5401 25.798C63.2428 26.0458 63.1437 26.2564 63.1994 26.2936Z" fill="#263238" />
  <path d="M72.4536 26.0582C72.5651 26.1697 73.2464 25.6556 74.2189 25.6432C75.1914 25.6308 75.9161 26.0954 76.0214 25.9777C76.1267 25.86 75.9533 25.7175 75.6374 25.5008C75.2108 25.2164 74.7066 25.0714 74.1941 25.0857C73.6866 25.0906 73.1938 25.2577 72.788 25.5627C72.4969 25.7919 72.3978 26.0025 72.4536 26.0582Z" fill="#263238" />
  <path d="M69.2326 31.9675C68.7168 31.8165 68.184 31.7312 67.6469 31.7135C67.3929 31.7135 67.1575 31.6516 67.1141 31.4843C67.0893 31.2306 67.1434 30.9753 67.269 30.7534L67.969 28.8952C68.9414 26.2131 69.6414 24.0141 69.5361 23.9398C69.4308 23.8655 68.545 26.0458 67.5725 28.7279C67.3371 29.3907 67.1141 30.0225 66.8973 30.6233C66.7495 30.9228 66.7101 31.2643 66.7859 31.5896C66.8235 31.6762 66.8805 31.7531 66.9525 31.8143C67.0244 31.8755 67.1094 31.9194 67.2009 31.9427C67.3404 31.9785 67.4842 31.9952 67.6283 31.9923C68.1619 32.0528 68.7011 32.0445 69.2326 31.9675Z" fill="#263238" />
  <path d="M68.737 43.371C72.0592 43.3619 75.3154 42.4428 78.1522 40.7137C78.1522 40.7137 75.786 45.5824 68.7061 45.0497L68.737 43.371Z" fill="#EB996E" />
  <path d="M69.66 34.2779C69.8447 34.0446 70.0848 33.8611 70.3585 33.7443C70.6322 33.6274 70.9308 33.5809 71.2271 33.609C71.4419 33.6233 71.6515 33.6812 71.8432 33.7792C72.0349 33.8772 72.2046 34.0131 72.3421 34.1788C72.476 34.3344 72.5577 34.5282 72.5755 34.7327C72.5933 34.9373 72.5463 35.1422 72.4412 35.3186C72.2857 35.4948 72.082 35.6216 71.8552 35.6833C71.6284 35.7449 71.3885 35.7387 71.1652 35.6654C70.7108 35.5087 70.2904 35.2669 69.9263 34.9531C69.8151 34.8759 69.7186 34.7794 69.6414 34.6682C69.6062 34.616 69.5875 34.5545 69.5875 34.4916C69.5875 34.4287 69.6062 34.3673 69.6414 34.3151" fill="#EB996E" />
  <path d="M72.0881 32.5869C71.9271 32.5869 71.9457 33.6213 71.0537 34.377C70.1617 35.1327 69.0344 35.0398 69.0282 35.1884C69.022 35.3371 69.2822 35.3867 69.7591 35.3929C70.3776 35.389 70.9755 35.17 71.4501 34.7734C71.9052 34.3973 72.1926 33.856 72.2492 33.2682C72.2863 32.8346 72.1624 32.5745 72.0881 32.5869Z" fill="#263238" />
  <path d="M72.3297 21.0037C72.4288 21.2639 73.4013 21.1214 74.5472 21.2391C75.6931 21.3568 76.6223 21.6479 76.7709 21.4064C76.8391 21.2949 76.6718 21.0533 76.294 20.7869C75.7931 20.479 75.2263 20.2943 74.6401 20.248C74.0541 20.188 73.4621 20.2665 72.912 20.4772C72.4598 20.6692 72.2554 20.8798 72.3297 21.0037Z" fill="#263238" />
  <path d="M63.3419 21.9577C63.5153 22.1683 64.1843 21.9576 64.9895 21.9081C65.7947 21.8585 66.4823 22.0258 66.6372 21.7966C66.7053 21.6851 66.5938 21.4683 66.2903 21.2639C65.8835 21.0223 65.4146 20.9058 64.9421 20.9289C64.4695 20.9521 64.0142 21.1138 63.633 21.394C63.3542 21.6355 63.2613 21.8647 63.3419 21.9577Z" fill="#263238" />
  <path d="M65.5842 12.9823C65.5842 13.0628 65.8257 13.1247 66.1293 13.1247C66.4328 13.1247 66.6682 13.0628 66.6682 12.9823C66.6682 12.9017 66.4266 12.8336 66.1293 12.8336C65.8319 12.8336 65.5842 12.9017 65.5842 12.9823Z" fill="#263238" />
  <path d="M66.0425 14.3264C64.2276 10.7585 68.3653 7.77293 70.3351 6.80044C71.3202 6.29447 72.4138 6.03625 73.5212 6.04812C74.6285 6.05999 75.7163 6.3416 76.6904 6.86858C77.5575 7.3765 78.3132 8.10742 79.2857 8.35519C81.5404 8.91886 83.9747 6.64558 86.0684 7.63666C87.7904 8.4481 88.0815 11.0001 89.8159 11.7992C90.6459 12.1832 91.6184 12.0655 92.5351 12.1584C93.4519 12.2513 94.4863 12.7469 94.604 13.6512C94.7341 14.6547 93.6625 15.7139 94.2014 16.5749C94.8641 17.6279 96.8339 16.643 97.6887 17.566C98.5435 18.4889 97.5462 20.1551 98.5125 20.8179C99.2248 21.3011 100.427 20.7188 100.947 21.394C101.467 22.0691 100.464 23.0292 100.358 23.9274C100.253 24.8256 101.139 25.5689 101.895 26.1387C102.65 26.7086 103.443 27.5944 103.084 28.4616C102.663 29.4588 101.003 29.5455 100.718 30.5924C100.433 31.6392 101.888 32.847 101.232 33.7514C100.792 34.3708 99.7885 34.185 99.231 34.6805C98.2957 35.5044 99.4231 37.0901 98.9709 38.236C98.3515 39.8217 95.5827 39.128 94.5296 40.4721C93.9412 41.2216 94.0217 42.4543 93.1917 42.9498C92.3617 43.4453 91.2777 42.6772 90.299 42.7887C88.7071 42.9746 87.7284 45.3655 86.1923 44.901C85.4056 44.6594 84.8295 43.6621 84.0305 43.8789C83.3429 44.0462 83.0766 45.0187 82.3766 45.1178C81.4289 45.2664 81.1378 43.8789 80.5989 43.1356C79.8432 42.1198 78.1894 42.064 77.5018 41.0048C76.8824 40.0571 77.3284 38.7935 77.8796 37.7962C78.4309 36.799 79.1185 35.715 78.8273 34.6124C78.5176 33.3736 77.0496 32.271 77.5885 31.0817C78.1522 29.7809 80.6113 29.9172 80.7847 28.5111C80.9582 27.105 78.6911 26.4361 78.9265 25.1291C79.0999 24.2495 80.3201 23.8902 80.5493 23.0354C80.8157 22.0258 79.5769 21.1772 79.5954 20.1242C79.5954 19.4614 80.1219 18.9225 80.4874 18.365C80.8529 17.8075 81.0573 16.9713 80.537 16.5439C79.7193 15.8564 78.4867 17.1076 77.4399 16.8041C76.7151 16.5935 76.455 15.7511 76.201 15.0511C76.201 15.0511 74.2932 12.1956 70.8864 12.6106C67.4796 13.0256 66.0425 14.3264 66.0425 14.3264Z" fill="#263238" />
  <path d="M65.993 13.038C65.8399 13.2163 65.731 13.4282 65.6753 13.6565C65.6195 13.8848 65.6185 14.1231 65.6722 14.3519C65.7259 14.5806 65.8329 14.7935 65.9845 14.9732C66.136 15.1528 66.3278 15.2941 66.5443 15.3856C67.3929 15.6829 68.2849 15.1502 69.022 14.6609C69.7591 14.1715 70.7006 13.6698 71.5306 14.0415C73.0482 14.6609 72.6208 17.3925 74.157 17.9872C74.823 18.1361 75.518 18.0887 76.1577 17.8509C76.8205 17.7084 77.6443 17.727 78.0159 18.2907C78.5115 19.0402 77.8425 20.2481 78.5115 20.8613C78.7902 21.1152 79.2176 21.1648 79.4716 21.4435C79.8742 21.8957 79.5583 22.6266 79.1061 23.0354C78.6539 23.4443 78.0779 23.7725 77.8673 24.3362C77.5204 25.2344 78.2823 26.1945 79.0628 26.7396C79.8432 27.2847 80.7724 27.9041 80.921 28.8518C81.1936 30.3756 79.2796 31.8436 79.9299 33.2559C80.1581 33.6322 80.5125 33.9154 80.9299 34.0549C81.3474 34.1945 81.8008 34.1813 82.2094 34.0178C83.022 33.6578 83.6804 33.0213 84.0677 32.2214C85.8206 29.0872 85.3065 25.2406 84.7429 21.6913C84.3588 19.3747 83.9066 16.9837 82.5377 15.0635C81.1688 13.1433 78.8212 11.8301 76.517 11.0249C74.7423 10.344 72.8356 10.0771 70.9422 10.2444C70.0047 10.3294 69.0969 10.6165 68.281 11.0859C67.4651 11.5554 66.7606 12.196 66.216 12.9637" fill="#263238" />
  <path d="M56.7017 38.9236C56.6164 38.9913 56.513 39.0323 56.4044 39.0413C56.2499 39.0356 56.0997 38.989 55.9691 38.9063C55.8386 38.8236 55.7323 38.7077 55.6611 38.5705C55.5104 38.0942 55.4996 37.5847 55.6301 37.1025C55.6557 36.7768 55.6113 36.4495 55.5001 36.1424C55.3714 35.8151 55.2639 35.4799 55.178 35.1389C55.1315 34.9658 55.1341 34.7831 55.1855 34.6114C55.2369 34.4396 55.3351 34.2856 55.4691 34.1664C55.8001 33.9193 56.1803 33.7461 56.584 33.6585C57.0572 33.5703 57.498 33.3563 57.86 33.0391C57.947 32.9356 58.0104 32.8143 58.0457 32.6838C58.081 32.5533 58.0874 32.4166 58.0644 32.2834C58.0029 32.0243 57.8723 31.7867 57.6866 31.5958C57.3459 31.218 56.8999 30.9207 56.7327 30.4809C56.6767 30.2496 56.7092 30.0057 56.8238 29.7971C56.9384 29.5885 57.1268 29.4303 57.3521 29.3535C57.7919 29.0996 58.3618 29.0562 58.9007 28.8146C59.1851 28.7012 59.4304 28.5075 59.6068 28.2572C59.7818 28.0003 59.8707 27.6944 59.8608 27.3838C59.8325 26.8001 59.6669 26.2314 59.3776 25.7237C59.1141 25.2616 58.9278 24.7594 58.8263 24.2371C58.7963 23.9924 58.8238 23.744 58.9066 23.5118C58.9894 23.2795 59.1252 23.0697 59.3033 22.8992C59.6502 22.5399 60.0838 22.2798 60.4554 21.9143C60.8313 21.5867 61.1026 21.1559 61.2359 20.6755C61.3399 20.2228 61.3816 19.7581 61.3598 19.2941C61.2773 18.4952 61.336 17.688 61.5332 16.9094C61.7515 16.2824 62.1294 15.7231 62.6296 15.2865C63.0045 14.9563 63.437 14.698 63.9056 14.5246C64.3064 14.3877 64.7224 14.3003 65.1444 14.2645C65.031 14.2551 64.9171 14.2551 64.8037 14.2645C64.4769 14.2794 64.1538 14.3399 63.8436 14.4441C63.3641 14.5932 62.9166 14.8306 62.5243 15.144C61.9952 15.5876 61.5915 16.1621 61.3536 16.8103C61.1299 17.6159 61.0584 18.4562 61.143 19.288C61.1591 19.7319 61.1132 20.176 61.0067 20.6073C60.8885 21.0564 60.6355 21.4584 60.282 21.7594C59.9289 22.0877 59.4953 22.3789 59.1175 22.7505C58.9147 22.9477 58.7597 23.1886 58.6641 23.4548C58.5686 23.721 58.5351 24.0056 58.5662 24.2867C58.7086 25.4264 59.6068 26.2998 59.6006 27.3838C59.606 27.6431 59.5325 27.898 59.39 28.1147C59.2314 28.3263 59.0169 28.4893 58.7706 28.5854C58.2874 28.8084 57.7114 28.8518 57.2035 29.1367C56.9503 29.2687 56.7366 29.4653 56.584 29.7066C56.506 29.8345 56.4582 29.9786 56.4442 30.1278C56.4303 30.277 56.4505 30.4274 56.5035 30.5676C56.7635 31.0213 57.1035 31.4242 57.507 31.7569C57.6673 31.9101 57.7811 32.1055 57.8353 32.3206C57.8542 32.4206 57.8508 32.5237 57.825 32.6222C57.7993 32.7208 57.752 32.8124 57.6866 32.8904C57.3545 33.1759 56.9527 33.3682 56.5221 33.4479C56.0909 33.5513 55.6858 33.7432 55.3328 34.0116C55.1706 34.1593 55.0544 34.3507 54.9983 34.5629C54.9459 34.766 54.9459 34.9791 54.9983 35.1823C55.0913 35.5282 55.2072 35.8676 55.3452 36.1981C55.455 36.4863 55.5014 36.7947 55.4815 37.1025C55.3638 37.6086 55.3961 38.1381 55.5744 38.6262C55.6564 38.775 55.7778 38.8982 55.9254 38.9824C56.0729 39.0665 56.2408 39.1083 56.4106 39.1032C56.6522 39.0598 56.7079 38.9174 56.7017 38.9236Z" fill="#455A64" />
  <path d="M104.038 21.8895C103.998 22.0051 103.948 22.1171 103.889 22.224C103.725 22.5352 103.516 22.821 103.27 23.0726C102.861 23.4761 102.374 23.7922 101.839 24.0017C101.116 24.3004 100.328 24.405 99.5531 24.3052C99.0952 24.2508 98.6517 24.1099 98.2462 23.8902C98.1207 23.8444 98.0062 23.7728 97.9102 23.68C97.8142 23.5871 97.7387 23.4752 97.6887 23.3513C97.6599 23.2134 97.6604 23.071 97.6903 22.9333C97.7202 22.7957 97.7787 22.6658 97.8621 22.5523C98.1718 22.0939 98.593 21.778 98.9275 21.3506C99.2947 20.9283 99.6049 20.4598 99.8505 19.9569C100.113 19.4391 100.202 18.8506 100.104 18.2783C99.9649 17.6824 99.5982 17.1645 99.0824 16.835C98.5369 16.4791 97.9106 16.2661 97.2613 16.2156C96.5737 16.1717 95.8837 16.1862 95.1986 16.259H95.0004L95.0376 16.067C95.2865 15.1168 95.4094 14.1379 95.403 13.1557C95.3967 12.6583 95.2826 12.1682 95.0688 11.7191C94.8549 11.27 94.5463 10.8726 94.1642 10.5541C93.775 10.2355 93.2858 10.0644 92.7829 10.071C92.241 10.1728 91.6924 10.2349 91.1414 10.2568C90.8244 10.2202 90.5337 10.0627 90.33 9.81701C90.1524 9.57935 90.0163 9.31338 89.9274 9.03034C89.7737 8.50844 89.5328 8.01629 89.215 7.57471C88.5702 6.71265 87.6311 6.11749 86.5763 5.90228C85.5658 5.68542 84.5115 5.82322 83.5907 6.29251C83.1447 6.5155 82.7607 6.86238 82.3023 7.13492C81.8443 7.43229 81.2948 7.55538 80.7537 7.48179C79.782 7.22808 78.8703 6.78382 78.0716 6.17482C76.5387 5.23797 74.7284 4.86146 72.949 5.10942C71.3943 5.29763 69.9195 5.90339 68.6812 6.86237C67.6703 7.66617 66.8283 8.66188 66.2036 9.79223C65.7254 10.6454 65.361 11.5575 65.1196 12.5053C64.964 13.1157 64.8543 13.7368 64.7913 14.3635L64.7479 14.8467C64.7585 14.9019 64.7585 14.9587 64.7479 15.0139C64.7255 14.1795 64.8172 13.3459 65.0205 12.5363C65.2478 11.5718 65.5997 10.641 66.0673 9.76745C66.6925 8.60192 67.5456 7.57396 68.5759 6.74469C69.8375 5.7391 71.3495 5.09662 72.949 4.88643C74.7939 4.61896 76.6745 4.99989 78.2699 5.96422C79.0875 6.45356 79.8928 7.07917 80.8343 7.20306C81.3063 7.27029 81.7867 7.16232 82.1846 6.89954C82.6058 6.64558 83.0022 6.28012 83.4916 6.04474C84.4761 5.53898 85.6049 5.38804 86.6878 5.61734C87.8014 5.87152 88.7864 6.51793 89.4628 7.43843C89.7882 7.89843 90.0352 8.40914 90.1937 8.94982C90.3609 9.47013 90.6459 9.92231 91.1476 9.95947C91.6793 9.93156 92.2088 9.87157 92.7333 9.77984C93.3097 9.76856 93.8714 9.96166 94.319 10.3249C94.7391 10.6714 95.0786 11.1052 95.3139 11.5962C95.5493 12.0872 95.6748 12.6236 95.6818 13.1681C95.6913 14.1758 95.5642 15.1801 95.3039 16.1537L95.1491 15.974C95.854 15.9153 96.5626 15.9153 97.2675 15.974C97.9607 16.0302 98.6291 16.258 99.2124 16.6368C99.7811 17.0106 100.183 17.59 100.334 18.2535C100.451 18.8873 100.35 19.5421 100.049 20.1118C99.7909 20.6325 99.4637 21.1159 99.0762 21.5488C98.7293 21.9824 98.2895 22.3231 98.0232 22.7195C97.9551 22.8061 97.9056 22.9058 97.8779 23.0124C97.8502 23.119 97.8448 23.2302 97.8621 23.3389C97.9117 23.5372 98.1099 23.661 98.3143 23.7663C98.6985 23.9779 99.1185 24.1165 99.5531 24.1752C100.297 24.2813 101.056 24.196 101.758 23.9274C102.284 23.7318 102.766 23.4351 103.177 23.054C103.52 22.7105 103.81 22.318 104.038 21.8895Z" fill="#263238" />
  <path d="M48.9651 23.8717C48.7787 23.7482 48.5671 23.6678 48.3457 23.6363C48.0682 23.5942 47.7851 23.6584 47.5529 23.8159C47.2536 24.026 47.0351 24.3319 46.9334 24.6831C46.8225 25.12 46.8663 25.5818 47.0573 25.9901C47.1577 26.2295 47.3071 26.4453 47.4959 26.6235C47.6847 26.8016 47.9088 26.9382 48.1537 27.0245C48.435 27.1036 48.7319 27.1092 49.016 27.0409C49.3001 26.9726 49.562 26.8326 49.7766 26.6343C50.0253 26.4297 50.2166 26.164 50.3317 25.8632C50.4468 25.5624 50.4818 25.2369 50.4332 24.9185L50.3774 24.6336L50.6376 24.7636C50.9047 24.8888 51.1943 24.9589 51.4892 24.9695C51.784 24.9802 52.0779 24.9312 52.3534 24.8256C52.6452 24.7137 52.9081 24.5376 53.1226 24.3103C53.337 24.083 53.4976 23.8103 53.5922 23.5124C53.7118 23.2158 53.7647 22.8964 53.7471 22.5771C53.6404 22.2251 53.5801 21.8607 53.5674 21.4931C53.6155 21.2841 53.726 21.0946 53.8841 20.9497C54.0423 20.8048 54.2408 20.7113 54.4532 20.6817C54.8356 20.6136 55.2281 20.6263 55.6053 20.7188C55.8096 20.7956 56.0292 20.8227 56.246 20.7979C56.4628 20.773 56.6705 20.6969 56.8521 20.5759C57.0336 20.4548 57.1838 20.2923 57.2901 20.1017C57.3965 19.9112 57.4559 19.6981 57.4636 19.48C57.637 18.619 57.3025 17.7394 57.3273 16.8351C57.3174 16.375 57.4493 15.923 57.7051 15.5405C57.9631 15.186 58.3119 14.9078 58.7148 14.7352C59.0868 14.5656 59.4971 14.4974 59.904 14.5377C60.3109 14.5779 60.6999 14.7252 61.0314 14.9644L60.8208 15.0759C60.6981 14.0149 60.9477 12.9443 61.527 12.0469C61.7562 11.7034 62.0779 11.4316 62.4549 11.2628C62.8318 11.0941 63.2488 11.0352 63.6578 11.093C63.9251 11.1425 64.1768 11.2548 64.3922 11.4207C64.6075 11.5865 64.7804 11.8012 64.8966 12.0469C64.9804 12.2111 65.0128 12.3968 64.9895 12.5796C64.9536 12.4084 64.8974 12.2421 64.8223 12.0841C64.7055 11.8634 64.5399 11.6722 64.3381 11.5252C64.1363 11.3781 63.9036 11.2791 63.6578 11.2355C63.2793 11.1945 62.8969 11.2597 62.5533 11.4238C62.2098 11.5879 61.9188 11.8445 61.7128 12.1646C61.1804 13.0338 60.9618 14.059 61.0934 15.0697V15.3608L60.8642 15.175C60.5691 14.9707 60.2254 14.8476 59.8677 14.8183C59.5099 14.7889 59.1508 14.8543 58.8263 15.0078C58.471 15.1562 58.1658 15.4034 57.9467 15.7201C57.7278 16.0546 57.6155 16.4477 57.6246 16.8474C57.6246 17.6775 57.9529 18.5632 57.7733 19.5481C57.7019 20.0562 57.438 20.5174 57.0362 20.8365C56.8116 20.9666 56.5634 21.0506 56.306 21.0835C56.0486 21.1165 55.7873 21.0978 55.5372 21.0285C55.1988 20.9434 54.8463 20.9308 54.5027 20.9914C54.3572 21.0109 54.2207 21.0731 54.1105 21.1701C54.0002 21.2671 53.9212 21.3946 53.8833 21.5365C53.8338 21.8152 54.0258 22.1559 54.063 22.5337C54.1023 22.9034 54.0622 23.2772 53.9453 23.6301C53.8335 23.9717 53.6462 24.2838 53.3975 24.5433C53.1487 24.8027 52.8448 25.003 52.5082 25.1291C52.1945 25.2458 51.8605 25.2977 51.5262 25.2817C51.1919 25.2657 50.8644 25.1822 50.5632 25.0362L50.7676 24.8813C51.0154 26.498 49.3492 27.7183 48.1351 27.2723C47.8574 27.1725 47.6037 27.0157 47.3904 26.812C47.177 26.6082 47.0087 26.362 46.8963 26.0892C46.6937 25.6393 46.6585 25.1318 46.7972 24.6583C46.9118 24.2748 47.1601 23.9452 47.4971 23.7292C47.6934 23.5955 47.9255 23.524 48.163 23.524C48.4005 23.524 48.6325 23.5955 48.8289 23.7292C48.9342 23.8159 48.9713 23.8655 48.9651 23.8717Z" fill="#263238" />
  <path d="M99.7885 19.3189C99.7885 19.3189 99.7885 19.2136 99.677 19.0402C99.5998 18.9194 99.4972 18.8169 99.3763 18.7399C99.2554 18.6628 99.1192 18.6131 98.9771 18.5942C98.7564 18.5517 98.5288 18.5627 98.3132 18.6263C98.0977 18.6898 97.9005 18.8042 97.7382 18.9596C97.3162 19.4239 96.9824 19.9612 96.7534 20.5454C96.4062 21.2547 95.9196 21.8867 95.3225 22.4036C94.6241 23.0252 93.766 23.4392 92.8448 23.5991C92.3214 23.6874 91.7854 23.6663 91.2705 23.5373C90.7556 23.4083 90.273 23.1742 89.853 22.8496C89.3938 22.5088 89.0153 22.071 88.7443 21.5674C88.4596 21.0356 88.3288 20.435 88.3664 19.833L88.577 19.9879C87.5614 20.3852 86.4296 20.363 85.4304 19.9259C84.9073 19.6963 84.4404 19.3558 84.0618 18.928C83.6832 18.5003 83.402 17.9954 83.2376 17.4483C83.0085 16.6825 83.0085 15.8664 83.2376 15.1007L83.4606 15.2927C82.1871 15.939 80.7183 16.087 79.3415 15.7077C78.704 15.5215 78.1242 15.1766 77.6562 14.7054C77.1882 14.2342 76.8474 13.652 76.6656 13.0132C76.5851 12.7035 76.5789 12.3938 76.4922 12.1522C76.4512 12.0308 76.3863 11.9188 76.3011 11.823C76.216 11.7273 76.1124 11.6496 75.9966 11.5947C75.7619 11.4893 75.5075 11.4348 75.2502 11.4348C74.9929 11.4348 74.7385 11.4893 74.5038 11.5947C74.0207 11.793 73.5933 12.0903 73.1411 12.3071C72.7075 12.5198 72.25 12.6799 71.7784 12.784C70.3635 13.1073 68.8822 12.9662 67.5539 12.3814C67.0693 12.1833 66.6229 11.9024 66.2346 11.5514C66.6699 11.8252 67.1254 12.0654 67.5973 12.2699C68.9096 12.7974 70.3535 12.9035 71.7288 12.5734C72.1818 12.4637 72.6204 12.3016 73.0358 12.0903C73.4694 11.8797 73.8906 11.5762 74.4047 11.3594C74.6714 11.2308 74.9626 11.1609 75.2586 11.1545C75.5546 11.1481 75.8485 11.2053 76.1205 11.3222C76.4117 11.4671 76.6341 11.7208 76.7399 12.0283C76.8452 12.338 76.8514 12.6478 76.9258 12.9141C77.0976 13.5018 77.4147 14.0369 77.8477 14.4699C78.2807 14.9029 78.8157 15.2199 79.4034 15.3918C80.7059 15.7432 82.0925 15.5975 83.2934 14.983L83.6217 14.8219L83.5164 15.175C83.3022 15.8797 83.3022 16.6321 83.5164 17.3368C83.6632 17.8431 83.9197 18.3109 84.2676 18.707C84.6155 19.103 85.0463 19.4177 85.5295 19.6286C86.4495 20.0306 87.4905 20.0551 88.4284 19.6968L88.6637 19.6038V19.8516C88.6265 20.3943 88.7402 20.9366 88.992 21.4187C89.2443 21.885 89.5927 22.2925 90.0141 22.6142C90.4037 22.9182 90.8516 23.1389 91.33 23.2625C91.8085 23.3861 92.3072 23.41 92.7953 23.3328C93.6741 23.1881 94.4954 22.8021 95.1677 22.2178C95.756 21.724 96.2366 21.1147 96.5799 20.4277C96.8295 19.8295 97.1887 19.2833 97.6391 18.8172C97.8217 18.6478 98.0437 18.5268 98.2849 18.4651C98.5262 18.4034 98.779 18.4031 99.0205 18.4641C99.1727 18.4904 99.3171 18.5509 99.4426 18.641C99.5681 18.7311 99.6716 18.8485 99.7452 18.9844C99.7903 19.0898 99.8053 19.2055 99.7885 19.3189Z" fill="#455A64" />
  <path d="M76.1453 27.5324C76.0524 27.5324 75.9966 27.3962 76.009 27.2537C76.0214 27.1112 76.1143 26.9997 76.2011 27.0121C76.2878 27.0245 76.3497 27.1484 76.3311 27.2908C76.3125 27.4333 76.232 27.5324 76.1453 27.5324Z" fill="#EB996E" />
  <path d="M75.1295 28.3377C75.0823 28.3262 75.0404 28.2991 75.0104 28.261C74.9804 28.2228 74.9641 28.1756 74.9641 28.1271C74.9641 28.0785 74.9804 28.0314 75.0104 27.9932C75.0404 27.955 75.0823 27.928 75.1295 27.9165C75.2224 27.9165 75.2905 28.0094 75.2905 28.1271C75.2905 28.2448 75.2224 28.3377 75.1295 28.3377Z" fill="#EB996E" />
  <path d="M72.9863 28.7713C72.9646 28.7662 72.9441 28.7568 72.9261 28.7438C72.9081 28.7307 72.8929 28.7141 72.8813 28.6951C72.8698 28.6761 72.8622 28.6549 72.8589 28.6329C72.8557 28.6109 72.8568 28.5884 72.8624 28.5669C72.87 28.523 72.8942 28.4838 72.9299 28.4572C72.9656 28.4307 73.0102 28.419 73.0544 28.4244C73.0973 28.4361 73.1341 28.4638 73.1572 28.5018C73.1802 28.5399 73.1878 28.5853 73.1783 28.6288C73.1752 28.6509 73.1679 28.6721 73.1565 28.6913C73.1452 28.7104 73.1301 28.7271 73.1122 28.7404C73.0943 28.7537 73.074 28.7633 73.0524 28.7686C73.0307 28.7738 73.0082 28.7748 72.9863 28.7713Z" fill="#EB996E" />
  <path d="M64.0356 28.3686C64.0177 28.3832 63.9968 28.3935 63.9744 28.3989C63.952 28.4043 63.9287 28.4047 63.9061 28.3999C63.8836 28.3952 63.8624 28.3855 63.844 28.3715C63.8257 28.3575 63.8107 28.3396 63.8002 28.3191C63.7887 28.2994 63.7814 28.2776 63.779 28.255C63.7765 28.2323 63.7788 28.2094 63.7859 28.1878C63.7929 28.1661 63.8044 28.1462 63.8197 28.1293C63.835 28.1124 63.8537 28.099 63.8746 28.0899C63.9114 28.0702 63.9545 28.0656 63.9947 28.0771C64.0348 28.0886 64.069 28.1152 64.0899 28.1514C64.1108 28.1876 64.1168 28.2304 64.1067 28.271C64.0966 28.3115 64.0711 28.3465 64.0356 28.3686Z" fill="#EB996E" />
  <path d="M66.0116 27.9722C65.9733 27.9597 65.9398 27.9357 65.9154 27.9036C65.8911 27.8716 65.8771 27.8328 65.8753 27.7926C65.8805 27.7517 65.8991 27.7136 65.9283 27.6845C65.9574 27.6553 65.9954 27.6367 66.0364 27.6315C66.0598 27.629 66.0835 27.6321 66.1055 27.6406C66.1275 27.649 66.1471 27.6626 66.1629 27.6801C66.1786 27.6976 66.1899 27.7187 66.1959 27.7415C66.2019 27.7642 66.2024 27.7881 66.1974 27.8111C66.1988 27.8349 66.1948 27.8586 66.1856 27.8806C66.1764 27.9025 66.1622 27.922 66.1443 27.9376C66.1263 27.9531 66.105 27.9644 66.082 27.9704C66.0589 27.9764 66.0349 27.977 66.0116 27.9722Z" fill="#EB996E" />
  <path d="M65.5842 29.1553C65.5161 29.2173 65.3922 29.1553 65.3426 29.0624C65.2931 28.9695 65.3426 28.827 65.4417 28.8208C65.4823 28.8159 65.5235 28.824 65.5591 28.8441C65.5948 28.8641 65.6231 28.8951 65.6399 28.9323C65.6541 28.9708 65.6563 29.0126 65.6464 29.0524C65.6364 29.0922 65.6148 29.128 65.5842 29.1553Z" fill="#EB996E" />
  <path d="M140.695 129.024C138.639 114.469 132.668 100.745 123.419 89.3195C123.116 88.9541 121.666 87.5294 121.666 87.5294C121.103 87.3002 121.159 88.3037 120.576 88.4524C115.372 89.7528 110.246 91.3452 105.221 93.2219L105.103 121.536C104.836 122.675 104.903 123.867 105.296 124.969C105.689 126.071 106.391 127.037 107.318 127.75C108.245 128.464 109.359 128.895 110.525 128.993C111.691 129.09 112.86 128.849 113.893 128.3C114.44 127.935 115.034 127.646 115.658 127.439C116.897 127.16 118.074 127.878 119.158 128.51C125.352 132.097 133.144 133.466 139.729 130.647C140.112 130.529 140.439 130.273 140.646 129.929C140.749 129.638 140.766 129.324 140.695 129.024Z" fill="#f75555" />
  <g opacity="0.3">
    <path opacity="0.3" d="M140.695 129.024C138.639 114.469 132.668 100.745 123.419 89.3195C123.116 88.9541 121.666 87.5294 121.666 87.5294C121.103 87.3002 121.159 88.3037 120.576 88.4524C115.372 89.7528 110.246 91.3452 105.221 93.2219L105.103 121.536C104.836 122.675 104.903 123.867 105.296 124.969C105.689 126.071 106.391 127.037 107.318 127.75C108.245 128.464 109.359 128.895 110.525 128.993C111.691 129.09 112.86 128.849 113.893 128.3C114.44 127.935 115.034 127.646 115.658 127.439C116.897 127.16 118.074 127.878 119.158 128.51C125.352 132.097 133.144 133.466 139.729 130.647C140.112 130.529 140.439 130.273 140.646 129.929C140.749 129.638 140.766 129.324 140.695 129.024Z" fill="black" />
  </g>
  <path d="M120.025 88.3718C120.304 88.7868 125.885 94.3616 125.823 101.417C125.748 109.122 122.794 112.492 119.591 115.31C116.55 117.968 108.875 121.201 108.875 121.201L107.234 103.467L101.331 95.2412L120.025 88.3718Z" fill="#263238" />
  <path d="M101.349 94.1758L120.929 86.687C121.723 87.5069 122.346 88.4772 122.759 89.5409C123.173 90.6046 123.37 91.7403 123.339 92.8812L103.92 97.5764L101.349 94.1758Z" fill="#f75555" />
  <path opacity="0.3" d="M101.349 94.1758L120.929 86.687C121.723 87.5069 122.346 88.4772 122.759 89.5409C123.173 90.6046 123.37 91.7403 123.339 92.8812L103.92 97.5764L101.349 94.1758Z" fill="black" />
  <path d="M124.497 90.5708C123.716 90.4224 122.918 90.3807 122.125 90.4469C121.263 90.5456 120.406 90.6924 119.56 90.8867C118.6 91.0911 117.547 91.3389 116.463 91.6238C114.271 92.1937 112.313 92.8317 110.889 93.3148C109.464 93.798 108.628 94.1325 108.609 94.0891C108.786 93.9644 108.977 93.8625 109.179 93.7856C109.563 93.6122 110.114 93.3768 110.814 93.1042C112.635 92.3978 114.497 91.8 116.389 91.3141C117.492 91.023 118.551 90.7876 119.523 90.5956C120.381 90.4105 121.25 90.2863 122.125 90.2239C122.721 90.1819 123.319 90.2257 123.903 90.354C124.113 90.3862 124.315 90.4599 124.497 90.5708Z" fill="#263238" />
  <path d="M134.637 131.985C134.637 131.985 134.78 131.936 135.04 131.824C135.422 131.681 135.777 131.471 136.087 131.205C136.296 130.962 136.453 130.677 136.547 130.37C136.641 130.063 136.67 129.74 136.632 129.421C136.632 128.659 136.526 127.779 136.446 126.813C136.016 121.778 135.088 116.799 133.677 111.947C132.88 109.283 131.885 106.682 130.698 104.167C129.719 102.117 128.597 100.138 127.34 98.2454C126.488 96.9722 125.57 95.7441 124.59 94.566C124.256 94.1448 123.971 93.8289 123.785 93.6121C123.688 93.5028 123.599 93.3869 123.519 93.2653C123.632 93.3573 123.738 93.4589 123.834 93.5688C124.033 93.7732 124.33 94.0705 124.689 94.4855C125.712 95.6355 126.659 96.85 127.526 98.1215C128.819 100.004 129.968 101.982 130.964 104.037C132.175 106.56 133.185 109.173 133.987 111.854C135.407 116.73 136.308 121.742 136.675 126.807C136.737 127.779 136.83 128.665 136.811 129.439C136.806 129.803 136.756 130.165 136.663 130.517C136.583 130.826 136.41 131.103 136.167 131.31C135.844 131.587 135.469 131.797 135.065 131.929C134.926 131.971 134.782 131.989 134.637 131.985Z" fill="#263238" />
  <path d="M30.9586 160.664L20.6329 177.197L0 164.424C1.33795 162.529 14.4573 165.168 14.4573 165.168L20.6515 154.303L30.9586 160.664Z" fill="#f75555" />
  <g opacity="0.6">
    <path opacity="0.6" d="M21.3885 168.24C21.5517 168.421 21.6421 168.656 21.6421 168.9C21.6421 169.143 21.5517 169.378 21.3885 169.559C21.2116 169.726 20.9779 169.818 20.735 169.818C20.4922 169.818 20.2585 169.726 20.0815 169.559C19.9074 169.368 19.811 169.118 19.811 168.859C19.811 168.6 19.9074 168.351 20.0815 168.159C20.2841 168.004 20.5389 167.932 20.7928 167.96C21.0466 167.988 21.28 168.112 21.4443 168.308" fill="white" />
  </g>
  <g opacity="0.6">
    <path opacity="0.6" d="M20.6329 177.197L21.6116 175.487L1.46183 163.91C1.46183 163.91 0.297322 163.743 0 164.449L20.6329 177.197Z" fill="white" />
  </g>
  <path d="M14.1847 164.876C14.129 164.982 14.6059 165.341 14.8971 165.967C15.1882 166.592 15.1944 167.205 15.3121 167.205C15.4298 167.205 15.6404 166.549 15.2687 165.787C14.8971 165.025 14.2219 164.771 14.1847 164.876Z" fill="#263238" />
  <path d="M11.4716 164.424C11.3849 164.511 11.7194 164.951 11.7937 165.589C11.8681 166.227 11.6946 166.735 11.7937 166.828C11.8929 166.921 12.3141 166.351 12.1964 165.589C12.0787 164.827 11.5336 164.344 11.4716 164.424Z" fill="#263238" />
  <path d="M8.64089 166.282C8.72141 166.357 9.16739 165.942 9.26031 165.229C9.35322 164.517 9.00635 163.991 8.90724 164.065C8.80813 164.139 8.90724 164.598 8.8515 165.18C8.79575 165.762 8.52939 166.196 8.64089 166.282Z" fill="#263238" />
  <path d="M15.8695 162.566C15.8695 162.684 16.4022 162.832 16.9473 163.223C17.4924 163.613 17.8269 164.065 17.9322 164.009C18.0375 163.953 17.8331 163.334 17.1889 162.882C16.5447 162.43 15.8695 162.448 15.8695 162.566Z" fill="#263238" />
  <path d="M17.8765 160.417C17.8455 160.454 18.2048 160.763 18.9109 161.036C19.3249 161.2 19.7577 161.313 20.1993 161.371C20.4597 161.409 20.7228 161.426 20.986 161.42C21.1405 161.429 21.2954 161.412 21.4444 161.371C21.5555 161.341 21.6534 161.275 21.7221 161.183C21.7907 161.09 21.826 160.978 21.8222 160.863C21.8176 160.761 21.7881 160.662 21.7363 160.575C21.6844 160.487 21.6118 160.414 21.5249 160.361C21.394 160.279 21.2522 160.217 21.1037 160.175C20.4197 159.955 19.6918 159.908 18.9853 160.039C18.5703 160.073 18.1762 160.235 17.8579 160.503C17.8579 160.559 18.3163 160.392 19.0286 160.324C19.442 160.289 19.8581 160.306 20.2675 160.373C20.5076 160.416 20.7438 160.478 20.9736 160.559C21.2276 160.633 21.4134 160.751 21.4134 160.881C21.4134 161.011 21.4134 160.949 21.3205 160.98C21.2095 161.01 21.0946 161.023 20.9798 161.017C20.7343 161.033 20.4881 161.033 20.2427 161.017C19.8233 160.977 19.4086 160.899 19.0038 160.782C18.6371 160.634 18.2604 160.512 17.8765 160.417Z" fill="#263238" />
  <path d="M17.9136 160.64C17.9136 160.677 18.3658 160.441 18.8056 159.81C19.2118 159.215 19.4474 158.521 19.4869 157.803C19.5154 157.632 19.4996 157.457 19.441 157.294C19.3825 157.132 19.2831 156.987 19.1525 156.873C19.0602 156.814 18.9526 156.782 18.8427 156.782C18.7328 156.782 18.6253 156.814 18.533 156.873C18.4055 156.963 18.2909 157.069 18.1924 157.189C18.0152 157.397 17.871 157.631 17.765 157.883C17.5801 158.306 17.5055 158.768 17.5482 159.227C17.6163 160.008 17.9632 160.392 17.9941 160.361C17.9172 159.983 17.8655 159.6 17.8393 159.215C17.8408 158.809 17.934 158.409 18.1118 158.044C18.2067 157.819 18.3363 157.61 18.4959 157.425C18.6631 157.227 18.8551 157.103 18.9233 157.171C18.9889 157.248 19.0368 157.338 19.0636 157.435C19.0904 157.533 19.0953 157.635 19.0781 157.734C19.0697 157.976 19.0386 158.217 18.9852 158.453C18.8977 158.856 18.7516 159.244 18.5516 159.605C18.2109 160.28 17.8703 160.59 17.9136 160.64Z" fill="#263238" />
  <path d="M112.629 228.113L122.261 245.835L100.272 257.957C99.2435 255.782 108.324 245.308 108.324 245.308L101.69 234.208L112.629 228.113Z" fill="#f75555" />
  <g opacity="0.6">
    <path opacity="0.6" d="M114.574 240.613C114.821 240.561 115.079 240.602 115.298 240.729C115.516 240.856 115.68 241.06 115.757 241.3C115.816 241.547 115.778 241.806 115.649 242.024C115.521 242.243 115.313 242.403 115.07 242.471C114.809 242.523 114.539 242.477 114.31 242.343C114.082 242.208 113.911 241.993 113.831 241.74C113.793 241.478 113.858 241.211 114.013 240.996C114.168 240.782 114.4 240.635 114.661 240.588" fill="white" />
  </g>
  <g opacity="0.6">
    <path opacity="0.6" d="M122.224 245.76L121.171 244.02L100.557 256.408C100.557 256.408 99.8195 257.374 100.315 258L122.224 245.76Z" fill="white" />
  </g>
  <path d="M107.884 245.37C107.946 245.475 108.504 245.228 109.229 245.283C109.953 245.339 110.467 245.63 110.548 245.537C110.628 245.444 110.127 244.918 109.253 244.856C108.38 244.794 107.804 245.283 107.884 245.37Z" fill="#263238" />
  <path d="M106.1 247.588C106.131 247.705 106.72 247.637 107.339 247.885C107.959 248.133 108.324 248.566 108.423 248.504C108.522 248.442 108.262 247.798 107.494 247.495C106.726 247.191 106.045 247.488 106.1 247.588Z" fill="#263238" />
  <path d="M106.311 251.069C106.416 251.038 106.274 250.418 105.692 249.985C105.109 249.551 104.453 249.588 104.453 249.706C104.453 249.824 104.942 249.96 105.425 250.325C105.908 250.691 106.193 251.143 106.311 251.069Z" fill="#263238" />
  <path d="M106.652 242.669C106.751 242.744 107.16 242.322 107.791 242.05C108.423 241.777 108.999 241.684 109.03 241.567C109.061 241.449 108.368 241.307 107.63 241.666C106.893 242.025 106.553 242.614 106.652 242.669Z" fill="#263238" />
  <path d="M105.741 239.771C105.741 239.82 106.224 239.653 106.838 239.151C107.404 238.695 107.885 238.141 108.256 237.516C108.34 237.378 108.403 237.227 108.442 237.07C108.477 236.952 108.471 236.826 108.423 236.713C108.376 236.6 108.29 236.507 108.182 236.45C108.086 236.4 107.98 236.374 107.872 236.374C107.764 236.374 107.658 236.4 107.562 236.45C107.42 236.524 107.29 236.62 107.178 236.735C106.975 236.923 106.79 237.131 106.627 237.355C106.345 237.73 106.125 238.148 105.977 238.594C105.797 238.98 105.743 239.413 105.822 239.832C105.89 239.832 105.952 239.368 106.255 238.693C106.434 238.301 106.663 237.935 106.937 237.603C107.095 237.407 107.269 237.225 107.457 237.057C107.655 236.872 107.853 236.76 107.971 236.828C108.089 236.896 108.027 236.872 108.014 236.965C107.986 237.078 107.94 237.187 107.878 237.287C107.755 237.512 107.621 237.731 107.476 237.943C107.227 238.3 106.945 238.632 106.633 238.934C106.1 239.455 105.704 239.715 105.741 239.771Z" fill="#263238" />
  <path d="M105.964 239.851C106.001 239.417 105.897 238.982 105.667 238.612C105.463 238.194 105.189 237.815 104.855 237.491C104.656 237.298 104.438 237.126 104.205 236.977C104.066 236.863 103.9 236.788 103.723 236.757C103.546 236.727 103.364 236.743 103.195 236.803C103.101 236.862 103.023 236.946 102.972 237.045C102.921 237.144 102.897 237.256 102.904 237.367C102.922 237.526 102.959 237.682 103.016 237.832C103.114 238.098 103.252 238.349 103.425 238.575C103.714 238.952 104.09 239.254 104.521 239.455C105.264 239.789 105.76 239.671 105.76 239.628C105.38 239.503 105.008 239.356 104.645 239.188C104.282 238.975 103.969 238.685 103.728 238.34C103.59 238.149 103.48 237.941 103.4 237.72C103.307 237.466 103.288 237.231 103.4 237.206C103.502 237.187 103.607 237.191 103.707 237.217C103.808 237.242 103.901 237.289 103.982 237.355C104.202 237.484 104.409 237.633 104.601 237.801C104.912 238.08 105.183 238.401 105.407 238.755C105.778 239.374 105.896 239.863 105.964 239.851Z" fill="#263238" />
  <path d="M64.0976 229.909L65.0081 249.359L40.8198 250.598C40.8198 248.281 53.1152 242.991 53.1152 242.991L52.0189 230.554L64.0976 229.909Z" fill="#f75555" />
  <g opacity="0.6">
    <path opacity="0.6" d="M60.5607 241.573C60.7963 241.632 61.002 241.776 61.138 241.977C61.2741 242.178 61.331 242.423 61.2978 242.663C61.2483 242.901 61.1095 243.11 60.9102 243.248C60.7108 243.387 60.466 243.443 60.2262 243.406C59.9756 243.345 59.757 243.192 59.6127 242.978C59.4685 242.764 59.409 242.504 59.4457 242.248C59.5216 242.004 59.6898 241.8 59.9143 241.679C60.1388 241.557 60.4018 241.528 60.6474 241.598" fill="white" />
  </g>
  <g opacity="0.6">
    <path opacity="0.6" d="M65.0081 249.285L64.9276 247.321L41.7117 249.421C41.7117 249.421 40.6649 249.954 40.8321 250.703L65.0081 249.285Z" fill="white" />
  </g>
  <path d="M52.7188 242.905C52.7188 243.022 53.3382 243.047 53.9205 243.394C54.5027 243.741 54.8558 244.224 54.9611 244.175C55.0664 244.125 54.8558 243.45 54.1249 243.035C53.394 242.62 52.6878 242.799 52.7188 242.905Z" fill="#263238" />
  <path d="M50.235 244.088C50.235 244.205 50.7367 244.379 51.1641 244.856C51.5915 245.333 51.734 245.859 51.8517 245.847C51.9693 245.835 52.0065 245.159 51.4676 244.577C50.9287 243.995 50.2288 243.976 50.235 244.088Z" fill="#263238" />
  <path d="M48.9528 247.197C49.0581 247.197 49.1943 246.621 48.8537 245.989C48.513 245.358 47.9555 245.128 47.9121 245.228C47.8688 245.327 48.2219 245.661 48.4944 246.181C48.7669 246.702 48.8351 247.191 48.9528 247.197Z" fill="#263238" />
  <path d="M52.7808 240.043C52.8365 240.148 53.3692 239.956 54.0196 239.969C54.67 239.981 55.2213 240.161 55.2584 240.055C55.2956 239.95 54.7939 239.56 54.0196 239.554C53.2453 239.547 52.7188 239.956 52.7808 240.043Z" fill="#263238" />
  <path d="M53.2082 237.144C53.6193 237.238 54.0487 237.215 54.447 237.076C55.1373 236.912 55.7906 236.62 56.3734 236.215C56.5034 236.129 56.622 236.027 56.7265 235.911C56.7929 235.822 56.8287 235.713 56.8287 235.602C56.8287 235.49 56.7929 235.382 56.7265 235.292C56.6645 235.211 56.5834 235.147 56.4905 235.104C56.3975 235.062 56.2956 235.044 56.1938 235.05C56.0399 235.055 55.8875 235.082 55.7416 235.131C55.4876 235.211 55.241 235.312 55.0045 235.435C54.6048 235.636 54.2408 235.902 53.9267 236.221C53.394 236.772 53.2206 237.225 53.2639 237.243C53.3073 237.262 53.5736 236.896 54.1249 236.438C54.4425 236.171 54.7946 235.948 55.1718 235.775C55.3915 235.672 55.6194 235.587 55.8531 235.521C56.1071 235.441 56.3239 235.428 56.3982 235.521C56.4725 235.614 56.4292 235.577 56.3982 235.658C56.3222 235.744 56.2347 235.819 56.138 235.881C55.9388 236.024 55.732 236.156 55.5186 236.277C55.1551 236.485 54.7711 236.655 54.3727 236.785C53.977 236.879 53.588 236.999 53.2082 237.144Z" fill="#263238" />
  <path d="M53.3692 237.305C53.581 236.947 53.6722 236.53 53.6294 236.116C53.6226 235.397 53.4214 234.692 53.0471 234.078C52.9729 233.922 52.8598 233.788 52.7189 233.688C52.5779 233.588 52.4137 233.526 52.2419 233.508C52.1357 233.522 52.0348 233.562 51.9491 233.626C51.8633 233.69 51.7956 233.776 51.7526 233.874C51.6986 234.019 51.6652 234.171 51.6534 234.326C51.6239 234.599 51.6385 234.875 51.6968 235.143C51.7829 235.599 51.9832 236.025 52.2791 236.382C52.7808 237.002 53.2825 237.101 53.2887 237.064C53.2949 237.026 52.9047 236.791 52.5082 236.209C52.281 235.872 52.1308 235.489 52.0685 235.088C52.0342 234.856 52.0342 234.62 52.0685 234.388C52.0685 234.128 52.18 233.917 52.2729 233.942C52.3658 233.967 52.6074 234.115 52.7188 234.313C52.8495 234.509 52.9615 234.716 53.0533 234.933C53.2077 235.316 53.3077 235.718 53.3507 236.128C53.4064 236.841 53.3073 237.293 53.3692 237.305Z" fill="#263238" />
  <path d="M54.9859 135.578C54.3108 135.919 39.4695 170.618 38.1253 175.84C36.7812 181.062 47.8998 232.56 47.8998 232.56L67.3434 232.158L59.7059 180.672L69.1892 162.207L76.294 198.133L99.3921 238.835L116.339 231.402L102.136 199.812L98.2586 190.52C98.2586 190.52 99.4231 157.233 99.5904 153.541C99.7576 149.849 96.1836 136.959 96.1836 136.959L73.9216 142.398L54.9859 135.578Z" fill="#263238" />
  <path d="M41.0985 106.267L40.8012 115.843C40.7305 118.13 41.2892 120.393 42.4165 122.384C43.5437 124.375 45.1962 126.019 47.1936 127.135L57.4636 132.896L62.5428 126.472L53.0595 118.42L50.7615 106.279L41.0985 106.267Z" fill="#FFBE9D" />
  <path d="M57.8848 104.96C57.8848 104.96 44.8274 107.964 43.6753 109.11C42.5231 110.256 15.8695 154.167 15.8695 154.167L30.3949 163.247L54.4532 128.56L68.6565 125.196L57.8848 104.96Z" fill="#263238" />
  <path d="M41.0985 73.4376C40.234 76.2114 39.6001 79.0518 39.2031 81.9299C38.9739 84.327 39.2031 106.639 39.2031 106.639L51.1083 107.877L44.0345 75.6675L41.0985 73.4376Z" fill="#455A64" />
  <path d="M41.272 82.8652C41.272 82.8652 41.272 82.9458 41.272 83.1068C41.272 83.2679 41.3091 83.5404 41.3339 83.8129C41.3835 84.4819 41.4516 85.3553 41.5321 86.4021C41.6808 88.5887 41.8542 91.6176 41.9719 94.9625C42.0896 98.3074 42.133 101.343 42.133 103.535C42.133 104.588 42.133 105.462 42.133 106.131C42.133 106.403 42.133 106.639 42.133 106.837C42.133 107.035 42.133 107.085 42.133 107.085C42.133 107.085 42.133 106.998 42.133 106.837C42.133 106.676 42.133 106.403 42.133 106.131C42.133 105.462 42.133 104.588 42.133 103.535C42.133 101.343 42.0524 98.3136 41.9347 94.9687C41.8171 91.6238 41.6622 88.6011 41.5321 86.4083C41.4702 85.3615 41.4206 84.4881 41.3773 83.8191L41.3401 83.113C41.3117 83.0321 41.2889 82.9493 41.272 82.8652Z" fill="#FAFAFA" />
  <path d="M46.0911 96.4181L45.8247 96.4553C45.6575 96.4553 45.4097 96.4925 45.1062 96.4986C44.3126 96.5105 43.5198 96.442 42.74 96.2942C41.9587 96.1463 41.1949 95.9179 40.4605 95.6129C40.1756 95.4952 39.9526 95.3899 39.804 95.3156C39.7238 95.2769 39.6471 95.2313 39.5748 95.1793C39.5748 95.1793 39.9278 95.3156 40.4915 95.5324C41.2312 95.8002 41.9915 96.0074 42.7648 96.1518C43.5368 96.3001 44.3202 96.3809 45.1062 96.3933C45.6946 96.4181 46.0849 96.3934 46.0911 96.4181Z" fill="#FAFAFA" />
  <path d="M41.7799 82.8776C41.7799 82.8776 39.2031 76.987 39.2031 76.287C39.2031 75.5871 41.3339 70.2601 42.2631 70.0123C43.3152 69.6693 44.3489 69.2724 45.3602 68.823L45.8681 78.4921L41.7799 82.8776Z" fill="#FFBE9D" />
  <path d="M46.599 64.8587C46.599 64.8587 44.5921 66.5683 43.9602 68.1044C43.3284 69.6406 43.9602 71.6289 43.9602 71.6289L47.2122 74.2677L48.0484 70.6379L46.599 64.8587Z" fill="#455A64" />
  <path d="M61.0252 58.3362C61.0252 58.3362 83.5721 66.3267 86.1675 69.4486C88.7629 72.5705 94.2943 106.502 94.2943 106.502L99.7204 125.401L107.637 141.673C107.637 141.673 80.2334 153.981 69.852 151.032C59.4705 148.084 55.6549 138.409 55.6549 138.409L56.6955 133.905L43.155 83.1873L44.7407 70.1176L61.0252 58.3362Z" fill="#455A64" />
  <path d="M46.6795 74.6083C46.5865 74.6083 46.2273 73.035 45.5521 71.152C45.3725 70.706 45.2672 70.1299 44.9761 70.0618C44.6849 69.9937 44.6168 70.4954 44.4867 70.7617C44.3856 71.1086 44.2331 71.4385 44.0345 71.7404C44.0581 71.3793 44.1375 71.0241 44.2699 70.6874C44.3195 70.5202 44.3752 70.3467 44.4248 70.1671C44.4631 70.0485 44.5314 69.9419 44.623 69.8574C44.6827 69.8109 44.7523 69.7788 44.8265 69.7638C44.9007 69.7487 44.9773 69.7511 45.0504 69.7707C45.1805 69.8164 45.2978 69.8925 45.3926 69.9927C45.4874 70.0929 45.557 70.2143 45.5955 70.3467C45.6884 70.5759 45.7751 70.8051 45.8556 71.0405C46.317 72.1788 46.595 73.383 46.6795 74.6083Z" fill="#263238" />
  <path d="M86.0993 149.267C86.0746 149.233 86.0558 149.196 86.0436 149.156C85.994 149.05 85.9507 148.945 85.9011 148.827L85.418 147.588C85.0215 146.554 84.4888 145.111 83.9375 143.519C83.3863 141.927 82.9155 140.465 82.5934 139.406C82.4571 138.935 82.3333 138.522 82.2218 138.167L82.1288 137.826C82.1234 137.785 82.1234 137.744 82.1288 137.702C82.1498 137.737 82.1664 137.775 82.1784 137.814L82.2961 138.155C82.4158 138.522 82.5521 138.935 82.7049 139.393C83.0518 140.446 83.5287 141.902 84.08 143.5C84.6313 145.098 85.1516 146.535 85.5295 147.576C85.6967 148.034 85.8392 148.443 85.9754 148.815L86.0869 149.156C86.0949 149.192 86.099 149.23 86.0993 149.267Z" fill="#FAFAFA" />
  <path d="M99.1568 144.603C99.1568 144.603 99.1258 144.559 99.0762 144.473C99.0267 144.386 98.94 144.225 98.8656 144.083C98.686 143.748 98.4382 143.252 98.1347 142.633C97.5153 141.394 96.741 139.685 95.9605 137.746C95.1801 135.807 94.5421 134.029 94.1023 132.716C93.8917 132.066 93.7244 131.533 93.6191 131.168L93.5014 130.74C93.4949 130.691 93.4949 130.641 93.5014 130.592L93.5572 130.734L93.6997 131.149C93.8483 131.583 94.0218 132.091 94.22 132.685C94.666 133.98 95.3102 135.782 96.0782 137.696C96.8463 139.61 97.6392 141.357 98.2152 142.596C98.4878 143.16 98.717 143.649 98.909 144.064L99.101 144.46L99.1568 144.603Z" fill="#FAFAFA" />
  <path d="M103.92 135.231L103.678 135.373L102.972 135.776C102.353 136.129 101.449 136.606 100.321 137.176C94.4128 140.132 88.1486 142.316 81.6829 143.674C80.444 143.934 79.4344 144.12 78.7344 144.231L77.9292 144.361L77.6505 144.392L77.9292 144.33L78.7282 144.182C79.422 144.058 80.4255 143.859 81.6643 143.562C88.0981 142.157 94.3379 139.978 100.247 137.071C101.38 136.513 102.291 136.042 102.917 135.708L103.635 135.33L103.92 135.231Z" fill="#FAFAFA" />
  <path d="M71.9704 66.717C71.6752 66.6056 71.3858 66.4795 71.1032 66.3391C70.5767 66.0975 69.8644 65.7816 68.9972 65.4843C68.13 65.187 67.3867 64.964 66.8292 64.8091C66.2717 64.6543 65.9125 64.58 65.9187 64.5614C66.0028 64.5476 66.0885 64.5476 66.1726 64.5614C66.3337 64.5614 66.5629 64.6357 66.8478 64.6976C67.5903 64.8606 68.3225 65.0675 69.0405 65.3171C69.7592 65.571 70.4624 65.8668 71.1466 66.2028C71.4067 66.3329 71.6173 66.4444 71.766 66.5311C71.8421 66.5837 71.9108 66.6462 71.9704 66.717Z" fill="#FAFAFA" />
  <path d="M64.2772 73.2642C64.2967 73.2232 64.3195 73.1838 64.3454 73.1465C64.4135 73.0474 64.4878 72.9421 64.5622 72.8244C64.7604 72.5519 65.0267 72.143 65.3426 71.6351C66.1541 70.2952 66.8305 68.878 67.3619 67.4045C67.8814 65.9257 68.2508 64.3983 68.4645 62.8455C68.545 62.2261 68.5946 61.7678 68.6194 61.4271V61.043C68.6135 60.9978 68.6135 60.952 68.6194 60.9068C68.6234 60.9521 68.6234 60.9977 68.6194 61.043C68.6194 61.1669 68.6194 61.297 68.6194 61.4333C68.6194 61.7678 68.576 62.2571 68.5079 62.8579C68.1326 65.9957 67.0596 69.0096 65.3674 71.6785C65.0453 72.1864 64.748 72.589 64.556 72.8554L64.3206 73.1651C64.2772 73.2332 64.2772 73.2704 64.2772 73.2642Z" fill="#FAFAFA" />
  <path d="M82.0608 96.4119C82.0608 96.4119 82.0608 96.4119 81.9555 96.4801L81.6396 96.6659L80.4689 97.2853C79.4778 97.8118 78.0903 98.5242 76.5356 99.2427C74.9808 99.9612 73.5437 100.587 72.5031 101.008L71.2643 101.491L70.9236 101.615C70.8493 101.646 70.8059 101.658 70.8059 101.652C70.8059 101.646 70.8431 101.652 70.9174 101.59L71.2457 101.448L72.4845 100.921C73.519 100.482 74.9622 99.8559 76.4984 99.1312C78.0345 98.4065 79.4468 97.7127 80.4503 97.2048L81.6396 96.5854L81.9617 96.4243L82.0608 96.4119Z" fill="#FAFAFA" />
  <path d="M75.2905 85.8384C75.1951 85.9323 75.0914 86.0173 74.9808 86.0924C74.7702 86.2534 74.4666 86.4702 74.0764 86.7118C73.0594 87.3752 71.9857 87.9473 70.8678 88.4214C69.7478 88.8918 68.5893 89.2648 67.4053 89.5364C66.9531 89.6355 66.5814 89.7036 66.3213 89.7408C66.189 89.7694 66.054 89.7839 65.9186 89.7841L66.3151 89.6912C66.569 89.6417 66.9345 89.555 67.3867 89.4435C69.736 88.8665 71.9778 87.9171 74.0268 86.6313C74.4171 86.3897 74.733 86.1791 74.9498 86.0119C75.0585 85.945 75.1724 85.887 75.2905 85.8384Z" fill="#FAFAFA" />
  <path d="M81.2741 110.454C81.2431 110.454 78.8336 105.195 75.9037 98.6852C72.9739 92.1751 70.6201 86.879 70.6511 86.8605C70.682 86.8419 73.0854 92.1193 76.0214 98.6294C78.9575 105.14 81.3051 110.436 81.2741 110.454Z" fill="#FAFAFA" />
  <path d="M46.4131 66.0727V66.4506C46.537 69.0212 47.3051 83.9554 48.6554 86.8481C50.1421 90.0257 62.4871 147.235 62.4871 147.235C66.6 150.332 71.0846 152.191 76.3745 151.354L77.9045 122.304L59.421 72.7005" fill="#FAFAFA" />
  <path d="M50.6499 111.216C50.5201 110.951 50.4184 110.673 50.3464 110.386L49.6279 108.057C49.0456 106.106 48.2652 103.399 47.4413 100.401C46.6175 97.403 45.9052 94.6775 45.4282 92.6954C45.1866 91.7043 45.0008 90.9052 44.8893 90.3416C44.8092 90.0565 44.7594 89.7637 44.7407 89.4682C44.8566 89.7424 44.9478 90.0264 45.0132 90.3168C45.1742 90.9362 45.391 91.7043 45.6326 92.6396C46.1901 94.6651 46.9272 97.3472 47.7387 100.314L49.8323 107.995L50.4517 110.33C50.5423 110.619 50.6086 110.916 50.6499 111.216Z" fill="#263238" />
  <path d="M57.2963 129.594C57.2963 129.594 54.7072 119.838 51.5915 107.784C48.4758 95.7306 45.9672 85.9561 46.0167 85.9437C46.0663 85.9313 48.6059 95.6996 51.7278 107.754C54.8496 119.807 57.3335 129.588 57.2963 129.594Z" fill="#FAFAFA" />
  <path d="M56.2991 118.841C56.1357 118.928 55.9604 118.991 55.7788 119.027C55.3438 119.137 54.8955 119.185 54.447 119.169C53.9989 119.153 53.5551 119.076 53.1277 118.94C52.9482 118.892 52.7769 118.817 52.6198 118.717C53.2166 118.885 53.8287 118.993 54.447 119.039C55.0696 119.038 55.6904 118.972 56.2991 118.841Z" fill="#FAFAFA" />
  <path d="M52.3596 101.002C52.2138 101.138 52.0489 101.253 51.8702 101.343C51.4556 101.591 51.0179 101.798 50.5633 101.962C50.1082 102.126 49.6399 102.25 49.1634 102.334C48.9604 102.38 48.7517 102.397 48.5439 102.383C48.5439 102.346 49.4421 102.228 50.4951 101.838C51.5481 101.448 52.341 100.965 52.3596 101.002Z" fill="#FAFAFA" />
  <path d="M49.0457 88.7931C48.8972 88.9304 48.7278 89.0433 48.544 89.1276C47.6854 89.6009 46.7183 89.8422 45.738 89.8275C45.5291 89.8411 45.3195 89.818 45.1186 89.7594C45.7976 89.7494 46.4739 89.6726 47.1379 89.5302C47.7953 89.344 48.4339 89.0973 49.0457 88.7931Z" fill="#FAFAFA" />
  <path d="M28.0288 30.3198C30.2773 28.8704 33.4673 30.3198 35.8582 29.1429C37.3077 28.412 38.1253 26.8573 39.2713 25.7051C40.1765 24.8197 41.2745 24.156 42.4792 23.7659C43.6839 23.3758 44.9625 23.2699 46.2149 23.4566C48.6059 23.9274 50.2659 24.6955 51.2075 26.9254C52.7994 25.2963 56.6398 26.7953 58.3742 28.7837C60.1085 30.772 60.505 33.2497 60.5917 35.8946C60.734 40.4631 59.9785 45.0151 58.368 49.2927C58.2255 49.6705 57.9591 50.1165 57.5565 50.0545C57.284 50.005 57.1167 49.7262 56.999 49.4723C56.0018 47.3167 55.6363 44.9257 55.1903 42.5905C54.7444 40.2553 54.1745 37.8767 52.8365 35.907C51.4986 33.9372 49.2439 32.432 46.8715 32.6241C45.1145 32.8675 43.4988 33.7203 42.3064 35.0336C41.0676 36.2724 40.0827 37.7529 38.943 39.0908C37.8648 40.4818 36.4278 41.5525 34.7866 42.1879C33.1142 42.7392 31.0701 42.4543 29.9304 41.1287C28.7907 39.8031 28.9703 37.4122 30.5498 36.576C29.7638 36.7186 28.9526 36.584 28.2547 36.1952C27.5568 35.8064 27.0155 35.1875 26.7231 34.4441C26.4307 33.7006 26.4054 32.8787 26.6514 32.1187C26.8974 31.3587 27.3996 30.7075 28.0721 30.2765L28.0288 30.3198Z" fill="#263238" />
  <path d="M46.8096 67.7947L45.6946 62.8394C45.6946 62.8394 38.881 63.4216 37.2147 56.8991C36.4033 53.7463 35.2574 47.1185 34.2911 41.1101C33.7857 37.9966 34.4713 34.807 36.2114 32.1762C37.9515 29.5453 40.6185 27.6663 43.6815 26.913L44.3009 26.7582C51.2074 25.5193 56.1442 30.6419 57.222 37.5856L63.0384 64.1587C63.5116 66.307 63.1153 68.5553 61.9361 70.4123C60.7569 72.2693 58.8906 73.5841 56.7451 74.0695C54.5958 74.5505 52.3434 74.1603 50.4813 72.9843C48.6191 71.8082 47.2988 69.9422 46.8096 67.7947Z" fill="#FFBE9D" />
  <path d="M45.6946 62.8393C48.7303 62.1572 51.4945 60.5875 53.6356 58.33C53.6356 58.33 52.7684 63.5331 46.0911 64.5242L45.6946 62.8393Z" fill="#EB996E" />
  <path d="M37.0227 45.8301C37.1714 45.923 37.7475 45.2107 38.7571 44.9815C39.7668 44.7523 40.6154 45.062 40.7021 44.9134C40.7888 44.7647 40.572 44.6532 40.1942 44.4984C39.6841 44.3018 39.1255 44.2694 38.5961 44.4055C38.0725 44.5276 37.6029 44.8168 37.2581 45.2293C36.9732 45.5452 36.9236 45.7868 37.0227 45.8301Z" fill="#263238" />
  <path d="M46.537 43.2595C46.6795 43.3524 47.2617 42.6401 48.2652 42.4171C49.2686 42.1941 50.1235 42.4914 50.2164 42.3428C50.3093 42.1941 50.0801 42.0826 49.7022 41.9277C49.1938 41.7337 48.6379 41.7013 48.1103 41.8348C47.5848 41.9599 47.1135 42.251 46.7662 42.6648C46.5184 42.9746 46.4627 43.2223 46.537 43.2595Z" fill="#263238" />
  <path d="M44.5672 50.0979C43.9952 50.0638 43.4212 50.0992 42.8576 50.2032C42.5975 50.2404 42.3435 50.2527 42.2382 50.0855C42.1575 49.8232 42.1575 49.5426 42.2382 49.2803C42.3311 48.5989 42.424 47.8866 42.5231 47.1433C42.8948 44.0957 43.0992 41.618 42.9753 41.6056C42.8514 41.5932 42.4488 44.0462 42.0772 47.0937C41.9904 47.837 41.9099 48.5555 41.8294 49.2369C41.7439 49.5867 41.7856 49.9556 41.9471 50.2775C42.0064 50.3591 42.0835 50.426 42.1726 50.4732C42.2617 50.5205 42.3604 50.5467 42.4612 50.5501C42.6115 50.5549 42.7616 50.5382 42.9072 50.5005C43.4758 50.4399 44.034 50.3045 44.5672 50.0979Z" fill="#263238" />
  <path d="M47.6954 50.0731C47.5281 50.1041 47.7945 51.1943 47.0759 52.1977C46.3574 53.2012 45.1371 53.3684 45.1681 53.5233C45.1991 53.6781 45.4778 53.6719 45.9734 53.5605C46.6162 53.4144 47.1866 53.0458 47.5839 52.5198C47.9599 52.0128 48.1283 51.3814 48.0546 50.7545C47.9555 50.2899 47.7697 50.0483 47.6954 50.0731Z" fill="#263238" />
  <path d="M45.0318 37.1025C45.1991 37.3502 46.1716 36.9724 47.3856 36.8299C48.5997 36.6875 49.6341 36.768 49.727 36.4831C49.7704 36.353 49.5412 36.1362 49.1076 35.9627C48.5144 35.7632 47.8835 35.7019 47.263 35.7835C46.6425 35.8651 46.0488 36.0874 45.5274 36.4335C45.1186 36.7122 44.9575 36.9786 45.0318 37.1025Z" fill="#263238" />
  <path d="M35.7839 42.2127C36.0192 42.3985 36.6511 41.9897 37.4811 41.7729C38.3111 41.5561 39.0606 41.5499 39.1597 41.2712C39.2031 41.1411 39.0358 40.9367 38.6766 40.8004C38.2009 40.6355 37.6857 40.6225 37.2023 40.7633C36.7163 40.8908 36.2829 41.1682 35.9635 41.5561C35.7343 41.8596 35.6971 42.1198 35.7839 42.2127Z" fill="#263238" />
  <path d="M57.8848 42.5843C57.9839 42.5038 62.0597 40.15 63.0074 44.6594C63.9551 49.1688 59.2352 49.1997 59.2042 49.0696C59.1732 48.9396 57.8848 42.5843 57.8848 42.5843Z" fill="#FFBE9D" />
  <path d="M60.22 47.0689C60.22 47.0689 60.3067 47.1061 60.4554 47.1433C60.6586 47.1825 60.8691 47.1426 61.0438 47.0318C61.2958 46.7844 61.4779 46.4747 61.5714 46.1342C61.665 45.7936 61.6667 45.4344 61.5765 45.093C61.5072 44.7037 61.3505 44.3352 61.1182 44.0152C61.0455 43.8839 60.9422 43.772 60.8172 43.689C60.6921 43.606 60.5489 43.5543 60.3996 43.5383C60.3042 43.5331 60.2101 43.5621 60.1341 43.6199C60.058 43.6778 60.0051 43.7608 59.9846 43.8542C59.9475 43.9904 59.9846 44.071 59.9846 44.0895C59.9846 44.1081 59.8731 44.0338 59.8731 43.8356C59.872 43.7194 59.9139 43.6068 59.9908 43.5197C60.095 43.3996 60.2414 43.3242 60.3996 43.3091C60.5924 43.3064 60.7826 43.3534 60.9518 43.4456C61.1211 43.5378 61.2637 43.6722 61.3659 43.8356C61.6394 44.1871 61.8242 44.5993 61.9048 45.0372C62.0659 45.954 61.7809 46.8955 61.1677 47.2238C61.0546 47.2856 60.929 47.3211 60.8003 47.3275C60.6716 47.334 60.5431 47.3112 60.4244 47.261C60.251 47.1743 60.2076 47.0813 60.22 47.0689Z" fill="#EB996E" />
  <path d="M32.5444 40.0881C34.0858 40.1059 35.6095 39.7576 36.9901 39.0716C38.3706 38.3856 39.5685 37.3817 40.4853 36.1424C41.7242 34.4018 42.4985 32.1595 44.3443 31.0569C44.9807 30.7103 45.6795 30.493 46.4002 30.4175C47.121 30.342 47.8496 30.4099 48.544 30.6172C49.932 31.0465 51.2178 31.7547 52.3224 32.6984C51.8703 36.3344 53.6294 39.8403 55.3328 43.0861C55.5475 43.4221 55.8081 43.7265 56.1071 43.9904C56.7699 44.6532 57.3459 45.2293 58.2317 44.2877C58.9874 43.4887 58.752 42.5472 58.6839 41.4508C58.4324 38.4304 57.6875 35.4716 56.4788 32.6922C55.3846 30.4172 53.6493 28.5118 51.4862 27.2103C48.7121 25.6735 45.449 25.2759 42.387 26.1016C39.3428 26.9447 36.642 28.7264 34.669 31.1932C33.704 32.291 33.0252 33.6102 32.693 35.0336" fill="#263238" />
  <path d="M26.5298 32.3577C26.5521 32.4908 26.5983 32.6188 26.6661 32.7355C26.8643 33.0741 27.1631 33.3426 27.5209 33.5036C28.0924 33.7451 28.7263 33.7971 29.3296 33.6523C29.7055 33.5836 30.0716 33.4692 30.4197 33.3116C30.832 33.1373 31.188 32.8521 31.448 32.4878C31.5912 32.2877 31.6877 32.0582 31.7306 31.8159C31.7735 31.5737 31.7616 31.3249 31.6957 31.0879C31.5973 30.8339 31.4285 30.6134 31.209 30.4521C30.9896 30.2908 30.7286 30.1955 30.4569 30.1773C30.1768 30.1436 29.8926 30.1754 29.6269 30.2703C29.354 30.3798 29.1177 30.5645 28.9455 30.803C28.7776 31.054 28.6652 31.3382 28.6161 31.6362C28.5669 31.9343 28.5821 32.2394 28.6606 32.5311C28.8219 33.1493 29.2202 33.6789 29.7693 34.0054C30.3322 34.3394 30.9732 34.5189 31.6276 34.5257C32.9823 34.5025 34.2905 34.0272 35.3441 33.1753C36.389 32.3501 37.3366 31.4088 38.1687 30.3694C38.9377 29.4185 39.7829 28.5319 40.6959 27.7182C41.5247 26.992 42.5174 26.4776 43.5886 26.2192C44.5269 26.0107 45.4996 26.0107 46.4379 26.2192C47.7971 26.5562 49.047 27.2366 50.0677 28.1952C50.3504 28.4491 50.6173 28.7201 50.8668 29.0066C50.9512 29.1096 51.0422 29.2068 51.1393 29.2978L51.0836 29.211C51.0464 29.1553 50.9845 29.0748 50.904 28.9757C50.6634 28.6773 50.4049 28.3938 50.1297 28.1271C49.1134 27.1309 47.8531 26.4196 46.4751 26.0644C45.5171 25.8282 44.5186 25.807 43.5514 26.0024C42.4472 26.2601 41.4224 26.7831 40.5658 27.5262C39.6339 28.3406 38.7738 29.2338 37.9953 30.1959C37.1739 31.2195 36.2387 32.1463 35.2079 32.9585C34.1945 33.7836 32.9341 34.2459 31.6276 34.2717C31.0155 34.2629 30.4161 34.0965 29.887 33.7886C29.3874 33.4916 29.023 33.0117 28.8712 32.4506C28.7973 32.1883 28.7806 31.9132 28.8223 31.6439C28.8639 31.3746 28.963 31.1173 29.1128 30.8897C29.2627 30.684 29.4661 30.5233 29.7008 30.425C29.9356 30.3268 30.1928 30.2947 30.4445 30.3322C30.6809 30.3451 30.9086 30.4255 31.1007 30.5638C31.2928 30.7021 31.4413 30.8926 31.5285 31.1127C31.5882 31.3221 31.5997 31.5424 31.5621 31.7569C31.5246 31.9715 31.439 32.1748 31.3117 32.3515C31.0743 32.6891 30.7486 32.9548 30.3702 33.1196C30.0335 33.2749 29.6802 33.3913 29.3172 33.4665C28.7385 33.6172 28.1268 33.5803 27.5704 33.3612C27.2217 33.2155 26.9257 32.967 26.7218 32.6488C26.5731 32.4878 26.5484 32.3515 26.5298 32.3577Z" fill="#455A64" />
  <path d="M60.1147 32.4878C59.7097 32.7566 59.2805 32.9868 58.8325 33.1753C58.3397 33.3477 57.8173 33.4194 57.2963 33.3859C56.6609 33.345 56.0348 33.2115 55.438 32.9895C54.343 32.5724 53.4143 31.8089 52.7931 30.8153C52.5606 30.3904 52.3537 29.9519 52.1737 29.5022C52.1773 29.6354 52.2024 29.7672 52.248 29.8924C52.349 30.2421 52.4904 30.5789 52.6692 30.8959C53.276 31.9568 54.233 32.7737 55.3761 33.2063C56.0019 33.4381 56.6604 33.5698 57.3273 33.5965C57.8728 33.6207 58.4172 33.53 58.9254 33.3302C59.2646 33.191 59.5818 33.0032 59.8669 32.7727C59.9636 32.6909 60.0471 32.5949 60.1147 32.4878Z" fill="#455A64" />
  <path d="M60.7093 35.7459C60.7093 35.7026 60.2014 35.9503 59.3466 36.1052C58.2327 36.3146 57.0834 36.227 56.0141 35.8512C54.95 35.4602 54.0063 34.7984 53.2763 33.931C52.7188 33.2683 52.4896 32.7665 52.4525 32.7851C52.4776 32.9116 52.5236 33.033 52.5887 33.1444C52.7489 33.4583 52.9376 33.7569 53.1524 34.0363C53.8655 34.9676 54.8321 35.6733 55.9363 36.0689C57.0405 36.4644 58.2354 36.5329 59.3776 36.2662C59.7201 36.1874 60.0541 36.0754 60.3748 35.9318C60.4953 35.8875 60.6081 35.8248 60.7093 35.7459Z" fill="#455A64" />
  <path d="M50.7805 45.2055C50.8124 45.2023 50.8418 45.187 50.8627 45.1626C50.8835 45.1383 50.8942 45.1069 50.8924 45.0749C50.8924 45.0588 50.8892 45.0429 50.8829 45.0282C50.8765 45.0134 50.8673 45.0001 50.8556 44.9891C50.844 44.978 50.8302 44.9694 50.8152 44.9639C50.8001 44.9583 50.7841 44.9559 50.7681 44.9567C50.7525 44.9583 50.7374 44.9629 50.7237 44.9703C50.7099 44.9777 50.6978 44.9878 50.6879 45C50.6781 45.0121 50.6708 45.0261 50.6664 45.0411C50.662 45.0561 50.6606 45.0718 50.6623 45.0873C50.6614 45.1031 50.6639 45.1188 50.6695 45.1336C50.6751 45.1483 50.6838 45.1617 50.6949 45.1729C50.7061 45.184 50.7195 45.1927 50.7342 45.1983C50.749 45.2039 50.7647 45.2064 50.7805 45.2055Z" fill="#EB996E" />
  <path d="M48.7545 45.2417C48.7881 45.2356 48.8179 45.2166 48.8376 45.1888C48.8573 45.161 48.8653 45.1266 48.8598 45.093C48.8598 45.0125 48.8041 44.9505 48.7422 44.9567C48.7087 44.9614 48.6784 44.9788 48.6576 45.0054C48.6368 45.032 48.6271 45.0656 48.6307 45.0992C48.6289 45.1343 48.6408 45.1688 48.6639 45.1954C48.687 45.2219 48.7195 45.2385 48.7545 45.2417Z" fill="#EB996E" />
  <path d="M47.4476 45.5266C47.5157 45.5266 47.5529 45.4275 47.5405 45.3284C47.5281 45.2293 47.4723 45.1487 47.4042 45.1549C47.3361 45.1611 47.3051 45.2479 47.3175 45.3532C47.3299 45.4585 47.3856 45.5328 47.4476 45.5266Z" fill="#EB996E" />
  <path d="M50.1301 46.6421C50.1923 46.6421 50.2358 46.5862 50.2234 46.5426C50.211 46.4991 50.155 46.4867 50.099 46.4991C50.0431 46.5115 49.9933 46.5613 50.0058 46.5986C50.0182 46.6359 50.068 46.6608 50.1301 46.6421Z" fill="#EB996E" />
  <path d="M48.2657 46.6673C48.2821 46.6644 48.2976 46.6582 48.3114 46.6489C48.3252 46.6396 48.3369 46.6276 48.3457 46.6135C48.3545 46.5994 48.3602 46.5836 48.3625 46.5672C48.3648 46.5507 48.3636 46.534 48.359 46.518C48.3583 46.5021 48.3543 46.4866 48.3471 46.4724C48.34 46.4582 48.3299 46.4457 48.3176 46.4357C48.3052 46.4257 48.2909 46.4184 48.2755 46.4144C48.2601 46.4104 48.2441 46.4097 48.2284 46.4123C48.2127 46.4153 48.1978 46.4213 48.1845 46.4302C48.1713 46.4391 48.1599 46.4505 48.1512 46.4639C48.1425 46.4773 48.1366 46.4923 48.1338 46.508C48.131 46.5237 48.1315 46.5398 48.1351 46.5553C48.1383 46.5872 48.1536 46.6167 48.1779 46.6375C48.2023 46.6584 48.2337 46.669 48.2657 46.6673Z" fill="#EB996E" />
  <path d="M38.8252 47.8184C38.8569 47.8126 38.8855 47.7957 38.9059 47.7707C38.9264 47.7458 38.9373 47.7144 38.9367 47.6822C38.9376 47.6657 38.935 47.6491 38.9291 47.6337C38.9232 47.6183 38.9141 47.6043 38.9024 47.5926C38.8907 47.5809 38.8767 47.5718 38.8613 47.5659C38.8459 47.56 38.8294 47.5574 38.8129 47.5583C38.7968 47.5598 38.7812 47.5646 38.767 47.5723C38.7528 47.5801 38.7404 47.5907 38.7306 47.6035C38.7207 47.6163 38.7135 47.631 38.7096 47.6466C38.7056 47.6623 38.7049 47.6786 38.7076 47.6946C38.7075 47.7264 38.7197 47.757 38.7416 47.78C38.7635 47.8031 38.7935 47.8168 38.8252 47.8184Z" fill="#EB996E" />
  <path d="M37.4873 48.0166C37.5203 48.0065 37.5483 47.9843 37.5655 47.9544C37.5827 47.9245 37.588 47.8892 37.5802 47.8556C37.5802 47.7812 37.5121 47.7193 37.4439 47.7317C37.3758 47.7441 37.3448 47.8122 37.3572 47.8927C37.3588 47.9261 37.3732 47.9577 37.3975 47.9807C37.4217 48.0038 37.4539 48.0167 37.4873 48.0166Z" fill="#EB996E" />
  <path d="M39.9902 47.5652C40.0188 47.5653 40.0464 47.5544 40.0672 47.5347C40.088 47.515 40.1005 47.4881 40.1021 47.4595C40.1006 47.4456 40.0963 47.4321 40.0895 47.4199C40.0827 47.4076 40.0735 47.3969 40.0625 47.3882C40.0515 47.3795 40.0389 47.3731 40.0254 47.3693C40.012 47.3656 39.9979 47.3645 39.984 47.3663C39.9709 47.3663 39.9579 47.3688 39.9459 47.3738C39.9338 47.3788 39.9228 47.3862 39.9136 47.3954C39.9044 47.4046 39.897 47.4156 39.892 47.4277C39.887 47.4397 39.8845 47.4527 39.8845 47.4657C39.8845 47.4788 39.887 47.4918 39.892 47.5038C39.897 47.5159 39.9044 47.5269 39.9136 47.5361C39.9228 47.5453 39.9338 47.5527 39.9459 47.5577C39.9579 47.5627 39.9709 47.5652 39.984 47.5652H39.9902Z" fill="#EB996E" />
  <path d="M39.3393 49.113C39.3657 49.1229 39.3944 49.1244 39.4217 49.1173C39.4489 49.1102 39.4732 49.0948 39.4914 49.0733C39.5095 49.0518 39.5206 49.0253 39.523 48.9972C39.5255 48.9692 39.5191 48.9411 39.505 48.9168C39.4908 48.8925 39.4694 48.8732 39.4438 48.8615C39.4182 48.8498 39.3897 48.8463 39.362 48.8515C39.3344 48.8568 39.309 48.8704 39.2894 48.8906C39.2698 48.9108 39.257 48.9366 39.2526 48.9644C39.245 48.9956 39.2498 49.0285 39.266 49.0562C39.2821 49.0839 39.3084 49.1043 39.3393 49.113Z" fill="#EB996E" />
  <path d="M38.1693 49.1633C38.1841 49.1597 38.1979 49.1526 38.2096 49.1428C38.2213 49.1329 38.2305 49.1205 38.2366 49.1065C38.2427 49.0924 38.2455 49.0772 38.2448 49.0619C38.244 49.0467 38.2398 49.0318 38.2324 49.0184C38.2249 49.0051 38.2146 48.9936 38.202 48.9849C38.1894 48.9762 38.175 48.9705 38.1599 48.9683C38.1448 48.9661 38.1293 48.9674 38.1148 48.9721C38.1002 48.9768 38.087 48.9848 38.076 48.9954C38.0612 48.9991 38.0474 49.0061 38.0357 49.016C38.024 49.0259 38.0148 49.0383 38.0087 49.0523C38.0026 49.0663 37.9998 49.0815 38.0005 49.0968C38.0013 49.1121 38.0055 49.127 38.013 49.1403C38.0204 49.1537 38.0308 49.1652 38.0433 49.1739C38.0559 49.1825 38.0703 49.1882 38.0854 49.1904C38.1006 49.1927 38.116 49.1914 38.1305 49.1867C38.1451 49.182 38.1583 49.174 38.1693 49.1633Z" fill="#EB996E" />
  <path d="M60.7093 41.7791C60.652 41.5039 60.6209 41.2239 60.6164 40.9429C60.5855 40.3235 60.5421 39.5678 60.4925 38.6448C60.3914 36.1289 60.0555 33.628 59.4891 31.1746C59.1596 29.8435 58.3557 28.6784 57.2282 27.8979C56.3328 27.2261 55.301 26.7588 54.2054 26.529C53.4698 26.3606 52.7016 26.4013 51.9879 26.6467C51.48 26.8201 51.2198 26.975 51.2074 26.9502C51.195 26.9254 51.2632 26.8944 51.3809 26.8139C51.5613 26.7049 51.7498 26.6096 51.9445 26.529C52.6739 26.2297 53.4748 26.15 54.2488 26.2998C55.3909 26.5108 56.4707 26.9766 57.4078 27.6625C57.9636 28.0638 58.4581 28.5437 58.8759 29.0872C59.3255 29.6813 59.6404 30.3661 59.7988 31.0941C60.1179 32.456 60.3557 33.8356 60.5111 35.2256C60.6474 36.5078 60.6908 37.6661 60.7155 38.6386C60.7403 39.6111 60.7465 40.3916 60.7465 40.9367C60.7619 41.218 60.7495 41.5002 60.7093 41.7791Z" fill="#455A64" />
  <path d="M59.8608 73.4377L57.8848 70.0928C57.8848 70.0928 62.4995 63.6446 62.1712 61.1608C61.8429 58.6769 61.3226 56.2735 61.3226 56.2735L62.419 57.3266L63.9613 59.6432C63.9613 59.6432 66.1851 63.1367 66.0983 65.7569C66.0116 68.377 59.8608 73.4377 59.8608 73.4377Z" fill="#455A64" />
  <path d="M62.7782 57.5062C62.9003 57.6495 63.0101 57.8028 63.1065 57.9645C63.375 58.399 63.5834 58.8678 63.7259 59.3582C64.1946 60.9982 64.1774 62.7389 63.6764 64.3693C63.1554 65.9758 62.4132 67.5018 61.4712 68.9035C61.1182 69.4486 60.8518 69.8822 60.6226 70.1795L60.3811 70.514C60.3558 70.5574 60.3245 70.597 60.2881 70.6317C60.2881 70.6317 60.2881 70.5821 60.3563 70.5016L60.5793 70.1485L61.3907 68.8539C62.3058 67.4476 63.0325 65.9274 63.5525 64.3322C64.0486 62.7217 64.0787 61.0037 63.6392 59.3768C63.4922 58.8881 63.284 58.4198 63.0198 57.9831C62.8835 57.6796 62.7658 57.5124 62.7782 57.5062Z" fill="#FAFAFA" />
  <path d="M64.0046 69.9317C64.0046 69.9317 63.9365 69.622 63.794 69.1389C63.6119 68.5101 63.3562 67.9051 63.0322 67.3363C62.7027 66.7677 62.3077 66.2397 61.8553 65.763C61.5084 65.4038 61.2358 65.1993 61.2792 65.187C61.3226 65.1746 61.3535 65.2179 61.465 65.3046C61.5765 65.3914 61.7376 65.5276 61.9234 65.7011C62.8852 66.631 63.5639 67.8143 63.8808 69.1141C63.9338 69.3174 63.9711 69.5245 63.9923 69.7335C64.0108 69.8512 64.017 69.9317 64.0046 69.9317Z" fill="#FAFAFA" />
  <path d="M65.2745 63.6446C65.2745 63.6446 65.2002 63.3535 65.0453 62.8951C64.8458 62.2975 64.5644 61.7305 64.2091 61.2103C63.8601 60.6944 63.4434 60.2278 62.9702 59.8228C62.5986 59.5131 62.3508 59.352 62.3508 59.3334C62.4195 59.3536 62.4844 59.385 62.5428 59.4264C62.7119 59.5212 62.8734 59.6289 63.026 59.7484C64.0503 60.5266 64.799 61.6118 65.163 62.8455C65.2193 63.0323 65.2628 63.2227 65.2931 63.4154C65.2807 63.5703 65.2869 63.6446 65.2745 63.6446Z" fill="#FAFAFA" />
  <path d="M57.8786 69.9131C58.0054 69.8098 58.168 69.7608 58.3308 69.7769C58.7704 69.8103 59.1895 69.9767 59.5325 70.2538C60.7382 71.0983 61.8548 72.0634 62.8649 73.1341H62.6172C63.0122 72.5362 63.3721 71.9157 63.695 71.2759C64.5625 69.5443 65.1002 67.6665 65.2807 65.7382C65.4293 64.2578 65.3922 63.3287 65.4541 63.3287C65.5011 63.5423 65.524 63.7604 65.5222 63.9791C65.6564 66.5482 65.1251 69.1085 63.9799 71.4121C63.6491 72.0526 63.2809 72.6731 62.8773 73.2704L62.772 73.4376L62.6358 73.289C61.6469 72.2253 60.5716 71.2453 59.421 70.3591C59.1099 70.0864 58.7312 69.9024 58.3246 69.8264C58.1738 69.8432 58.0247 69.8722 57.8786 69.9131Z" fill="#263238" />
  <path d="M83.1323 179.012L88.5522 197.594L65.4479 204.457C64.9276 202.215 75.563 194.231 75.563 194.231L71.5987 182.462L83.1323 179.012Z" fill="#f75555" />
  <g opacity="0.6">
    <path opacity="0.6" d="M82.4138 191.121C82.6562 191.124 82.889 191.216 83.0682 191.38C83.2474 191.543 83.3606 191.766 83.3863 192.007C83.392 192.249 83.3056 192.484 83.1446 192.664C82.9836 192.845 82.7601 192.958 82.5191 192.98C82.2616 192.978 82.014 192.88 81.824 192.706C81.6341 192.532 81.5154 192.294 81.4909 192.038C81.4909 191.555 82.0298 191.028 82.5067 191.127" fill="white" />
  </g>
  <g opacity="0.6">
    <path opacity="0.6" d="M88.5337 197.538L87.9143 195.68L66.0364 203.113C66.0364 203.113 65.1506 203.869 65.4851 204.563L88.5337 197.538Z" fill="white" />
  </g>
  <path d="M75.1542 194.243C75.1914 194.355 75.7737 194.243 76.4302 194.435C77.0868 194.627 77.5328 195.017 77.6257 194.943C77.7186 194.869 77.3532 194.268 76.5479 194.039C75.7427 193.81 75.0985 194.156 75.1542 194.243Z" fill="#263238" />
  <path d="M73.0296 195.965C73.0296 196.083 73.5809 196.126 74.1074 196.492C74.6339 196.857 74.8879 197.328 74.9994 197.284C75.1109 197.241 74.9994 196.591 74.3304 196.151C73.6614 195.711 72.9986 195.854 73.0296 195.965Z" fill="#263238" />
  <path d="M72.5155 199.273C72.6208 199.273 72.6146 198.653 72.1377 198.127C71.6607 197.6 71.0661 197.507 71.0475 197.613C71.0289 197.718 71.4501 197.953 71.8341 198.393C72.2182 198.833 72.3978 199.298 72.5155 199.273Z" fill="#263238" />
  <path d="M74.5472 191.456C74.6277 191.542 75.0985 191.239 75.7489 191.09C76.3993 190.942 76.9877 190.997 76.9877 190.886C76.9877 190.774 76.4179 190.508 75.656 190.694C74.8941 190.88 74.4667 191.388 74.5472 191.456Z" fill="#263238" />
  <path d="M74.2808 188.582C74.6917 188.576 75.0929 188.456 75.4391 188.235C75.8337 188.034 76.2037 187.789 76.5417 187.504C76.7382 187.331 76.9244 187.147 77.0992 186.952C77.2077 186.842 77.2976 186.714 77.3655 186.575C77.419 186.473 77.4359 186.356 77.4133 186.243C77.3908 186.13 77.3302 186.029 77.2416 185.955C77.163 185.891 77.0699 185.848 76.9706 185.829C76.8713 185.809 76.7687 185.814 76.6718 185.844C76.5245 185.883 76.3844 185.946 76.2568 186.03C76.0369 186.166 75.8296 186.321 75.6374 186.494C75.2996 186.785 75.0109 187.128 74.7826 187.51C74.3923 188.167 74.3304 188.643 74.3799 188.65C74.4295 188.656 74.5967 188.241 74.9994 187.671C75.2483 187.341 75.5375 187.043 75.8604 186.785C76.0533 186.631 76.2608 186.497 76.4798 186.383C76.7028 186.24 76.9134 186.178 77.0063 186.271C77.0992 186.364 77.0496 186.321 77.0063 186.407C76.9546 186.508 76.8877 186.6 76.8081 186.68C76.6498 186.868 76.4802 187.046 76.3001 187.213C75.9952 187.498 75.6633 187.753 75.3091 187.975C74.9517 188.151 74.608 188.354 74.2808 188.582Z" fill="#263238" />
  <path d="M74.4791 188.668C74.6073 188.276 74.6073 187.853 74.4791 187.46C74.3693 187.021 74.1872 186.602 73.9402 186.222C73.797 185.997 73.6287 185.789 73.4385 185.602C73.3307 185.468 73.1903 185.365 73.0309 185.301C72.8715 185.237 72.6983 185.215 72.5279 185.237C72.425 185.268 72.3333 185.329 72.2641 185.411C72.1948 185.494 72.1509 185.594 72.1377 185.701C72.1156 185.853 72.1156 186.008 72.1377 186.16C72.2404 186.898 72.6299 187.565 73.2217 188.018C73.8411 188.483 74.3614 188.476 74.3614 188.433C74.3614 188.39 73.9216 188.266 73.4075 187.814C73.1094 187.54 72.8729 187.207 72.7137 186.835C72.6244 186.619 72.566 186.392 72.5403 186.16C72.5031 185.9 72.5403 185.677 72.6332 185.67C72.7333 185.675 72.8313 185.701 72.9209 185.745C73.0105 185.79 73.0897 185.853 73.1535 185.93C73.3256 186.098 73.4831 186.281 73.6243 186.476C73.8652 186.808 74.0571 187.173 74.1942 187.56C74.4048 188.21 74.4109 188.668 74.4791 188.668Z" fill="#263238" />
  <path d="M91.7361 101.299L59.3838 126.825C57.7005 128.149 56.4444 129.94 55.7724 131.974C55.1005 134.007 55.0423 136.194 55.6053 138.26L68.6132 185.156L86.3781 181L77.0001 141.71L103.301 121.734L91.7361 101.299Z" fill="#263238" />
  <path d="M103.734 98.3321L111.205 111.204C114.562 115.211 112.722 120.495 108.683 122.52L89.6735 132.524L90.5283 130.084C91.0148 128.676 91.6199 127.313 92.337 126.008C92.9886 124.662 93.7424 123.367 94.5917 122.136L99.9744 115.942L93.2475 106.199L103.734 98.3321Z" fill="#FFBE9D" />
  <path d="M106.831 116.06C105.695 115.648 104.507 115.393 103.301 115.304C102.443 115.281 101.586 115.379 100.755 115.595C100.135 115.756 99.7823 115.998 99.7514 115.961C99.7204 115.924 100.03 115.602 100.687 115.379C102.388 114.801 104.241 114.852 105.908 115.521C106.25 115.636 106.564 115.819 106.831 116.06Z" fill="#EB996E" />
  <path d="M72.9863 137.752C73.2747 137.599 73.6076 137.55 73.9278 137.616C74.7157 137.716 75.4413 138.096 75.9719 138.687C76.4849 139.271 76.8446 139.974 77.0187 140.731C77.1267 141.033 77.1586 141.356 77.1116 141.673C76.9723 141.393 76.8663 141.098 76.7957 140.793C76.5762 140.096 76.2133 139.453 75.7303 138.904C75.239 138.363 74.5882 137.992 73.872 137.845C73.3517 137.733 72.9925 137.789 72.9863 137.752Z" fill="#455A64" />
  <path d="M89.8778 121.399C89.8778 121.368 90.2061 121.498 90.6211 121.845C91.1602 122.31 91.5842 122.893 91.86 123.549C92.1427 124.202 92.272 124.912 92.2378 125.624C92.2464 125.918 92.1803 126.21 92.0458 126.472C92.0563 125.52 91.8926 124.573 91.5626 123.679C91.143 122.824 90.5722 122.051 89.8778 121.399Z" fill="#455A64" />
  <path d="M91.9839 118.971C91.9839 118.934 92.337 119.008 92.6776 119.417C93.0796 119.96 93.3259 120.603 93.39 121.275C93.5779 122.2 93.4696 123.16 93.0803 124.019C93.154 123.121 93.154 122.217 93.0803 121.319C93.0176 120.697 92.8234 120.095 92.5104 119.553C92.2378 119.157 91.9591 119.015 91.9839 118.971Z" fill="#455A64" />
  <path d="M87.4992 72.7005C81.2121 67.9867 75.1728 74.4473 74.4543 80.468C74.0331 84.0235 78.1708 90.3787 80.1405 93.29C83.058 97.626 90.9928 107.902 90.9928 107.902L106.478 96.2632L87.4992 72.7005Z" fill="#455A64" />
  <path d="M92.3121 78.8699C92.2728 78.9172 92.2293 78.9607 92.182 79L91.8042 79.3531C91.4759 79.6566 90.9928 80.0902 90.3857 80.5919C89.1779 81.6388 87.4683 83.0696 85.5171 84.5314C83.5659 85.9933 81.7386 87.2631 80.3945 88.1365C79.7255 88.5763 79.1557 88.9231 78.7964 89.1585L78.3566 89.4249C78.3063 89.4597 78.2523 89.4888 78.1956 89.5116C78.239 89.4713 78.2868 89.436 78.338 89.4063L78.7716 89.1152L80.3449 88.0621C81.6767 87.1702 83.4916 85.9004 85.4428 84.4261C87.3939 82.9519 89.1035 81.552 90.33 80.5176L91.7732 79.2788L92.1697 78.9443C92.2564 78.9071 92.3059 78.8638 92.3121 78.8699Z" fill="#FAFAFA" />
  <path d="M100.712 89.6602L100.575 89.7903L100.166 90.1434C99.8072 90.4469 99.2869 90.8805 98.6365 91.3822C97.3357 92.4414 95.5022 93.8599 93.4333 95.3713C91.3645 96.8827 89.4381 98.1711 88.032 99.0878C87.3259 99.54 86.7498 99.9054 86.3534 100.147L85.8888 100.432C85.8378 100.469 85.7814 100.498 85.7216 100.519C85.7702 100.478 85.822 100.44 85.8764 100.407L86.3224 100.11L87.9824 99.0073C89.3761 98.0782 91.2902 96.7712 93.359 95.2908C95.4279 93.8104 97.2614 92.3733 98.5807 91.3327L100.135 90.0938L100.557 89.7594C100.604 89.7205 100.656 89.6872 100.712 89.6602Z" fill="#FAFAFA" />
  <path d="M96.1216 103.572C96.0538 103.501 95.9897 103.427 95.9296 103.349L95.4031 102.693L93.4829 100.265L87.1958 92.2123L80.9396 84.1598L79.0814 81.6821C78.8769 81.4158 78.7097 81.199 78.5734 81.0131C78.4372 80.8273 78.4062 80.7778 78.4062 80.7778C78.4726 80.8483 78.5346 80.9228 78.592 81.0008C78.7407 81.1742 78.9141 81.391 79.1185 81.6202L81.0387 84.0483L87.3258 92.1008L93.582 100.153L95.4402 102.631L95.9482 103.3C96.0659 103.486 96.1216 103.572 96.1216 103.572Z" fill="#FAFAFA" />
  <path d="M105.029 97.2482C104.998 97.2482 100.941 92.0388 95.9667 85.5659C90.9928 79.093 86.9851 73.8279 87.0161 73.7969C87.0471 73.7659 91.0981 79.0062 96.072 85.4792C101.046 91.9521 105.054 97.2296 105.029 97.2482Z" fill="#FAFAFA" />
  <path d="M76.9629 141.376C76.9896 141.435 77.0103 141.498 77.0248 141.561C77.062 141.704 77.1054 141.884 77.1735 142.125C77.2974 142.633 77.4832 143.364 77.7186 144.305C78.1832 146.226 78.8645 149.007 79.7193 152.5C81.4103 159.525 83.7889 169.423 86.5701 180.963L86.6073 181.111L86.4524 181.149L68.6937 185.311L68.545 185.348L68.5016 185.2L68.1424 183.961C65.7824 175.976 63.9675 168.258 61.9482 161.346C60.8766 157.908 60.0589 154.569 59.2041 151.485C58.3493 148.4 57.5998 145.501 56.9247 142.868C56.5902 141.543 56.2 140.31 55.8655 139.152C55.5361 138.036 55.3162 136.891 55.2089 135.733C55.0738 133.861 55.4507 131.987 56.2991 130.313C56.8251 129.258 57.5244 128.299 58.3679 127.476C58.664 127.192 58.983 126.933 59.3218 126.702C59.248 126.777 59.1694 126.847 59.0864 126.912C58.9316 127.042 58.7086 127.253 58.4175 127.532C57.6006 128.364 56.9248 129.325 56.4168 130.375C55.601 132.034 55.248 133.883 55.3947 135.726C55.5101 136.871 55.7363 138.002 56.0699 139.102C56.4106 140.279 56.807 141.518 57.1477 142.819C57.8414 145.464 58.5166 148.394 59.4705 151.423C60.4244 154.452 61.1615 157.834 62.2393 161.271C64.2896 168.19 66.1169 175.908 68.4707 183.88L68.8299 185.088L68.6441 184.977L86.4029 180.833L86.2914 181.018C83.5597 169.466 81.2121 159.556 79.5521 152.525C78.7345 149.019 78.0841 146.238 77.6381 144.312C77.4213 143.364 77.254 142.627 77.1364 142.119L77.0187 141.549C76.9964 141.492 76.9777 141.435 76.9629 141.376Z" fill="#455A64" />
  <path d="M75.0799 84.6429C75.269 84.8962 75.4388 85.1633 75.5878 85.442L76.901 87.6595C78.0159 89.5178 79.5893 92.0884 81.4289 94.851C83.2686 97.6136 85.0402 100.042 86.3471 101.782L87.8957 103.845C88.0995 104.085 88.28 104.345 88.4346 104.619C88.2074 104.407 88 104.175 87.8152 103.925C87.4187 103.461 86.8613 102.78 86.1861 101.925C84.8296 100.215 83.0332 97.7932 81.1812 95.0306C79.3291 92.268 77.7868 89.6788 76.7214 87.7772C76.1887 86.8233 75.7736 86.049 75.4825 85.5039C75.3206 85.2307 75.1858 84.9424 75.0799 84.6429Z" fill="#263238" />
  <path d="M44.8894 69.3371C44.8466 69.163 44.8319 68.9831 44.846 68.8044C44.8635 68.381 44.9471 67.963 45.0938 67.5655C45.2408 67.1581 45.4498 66.7758 45.7132 66.432C45.8163 66.2851 45.9442 66.1572 46.091 66.0541C45.7313 66.5329 45.4337 67.0553 45.2053 67.6089C45.0263 68.169 44.9201 68.7498 44.8894 69.3371Z" fill="#FAFAFA" />
  <path d="M88.0629 51.4358C88.0629 51.4358 81.4661 57.9335 73.8163 64.9268C67.7274 70.5016 61.9977 75.1906 61.6571 75.3826C60.8952 75.81 45.3849 75.3826 45.3849 75.3826L42.8453 74.8499C42.8453 74.8499 40.3676 82.9457 43.4647 84.7978C46.5618 86.6498 64.0171 90.2115 68.1424 88.0745C72.2677 85.9375 89.6177 71.2758 90.0451 71.2758L95.6199 66.5745C97.8199 64.7269 99.2729 62.1422 99.708 59.3025C98.7727 46.7344 88.0629 51.4358 88.0629 51.4358Z" fill="#f75555" />
  <path d="M87.7718 73.0722C87.7718 73.0722 87.8152 73.0226 87.9081 72.9421L88.3231 72.5829L89.9522 71.2449C91.9996 69.6706 93.9158 67.9326 95.6818 66.048C96.2269 65.4285 96.7658 64.772 97.2923 64.0534C97.8543 63.3263 98.3187 62.5287 98.6736 61.6811C99.0651 60.778 99.3098 59.8182 99.3983 58.8379C99.4777 57.8036 99.3427 56.764 99.0019 55.7842C98.6486 54.7267 98.0588 53.7636 97.2774 52.9683C96.4961 52.173 95.5436 51.5662 94.4925 51.1943C93.3647 50.7979 92.1612 50.6643 90.9739 50.8039C89.7866 50.9434 88.6469 51.3524 87.6417 51.9995C86.6856 52.7601 85.7852 53.5881 84.9472 54.4772L82.3829 57.0044C80.698 58.6521 79.0566 60.2316 77.477 61.7182C74.3242 64.6914 71.4253 67.293 68.9476 69.4548C66.4699 71.6166 64.4135 73.2828 62.9764 74.4101C62.2579 74.9862 61.688 75.4136 61.3102 75.7047L60.8642 76.033C60.7651 76.1012 60.7155 76.1383 60.7094 76.1321L60.8456 76.0082L61.2668 75.6552L62.8959 74.311C64.3144 73.1465 66.3399 71.4431 68.799 69.2752C71.2581 67.1072 74.1384 64.4808 77.2726 61.4952C78.846 60.0024 80.4812 58.3981 82.1661 56.7753C83.0023 55.9452 83.8571 55.1028 84.7181 54.2418C85.5678 53.3338 86.4829 52.4891 87.4559 51.7146C88.5073 51.034 89.702 50.606 90.9464 50.4641C92.1908 50.3223 93.4512 50.4704 94.6288 50.897C95.7223 51.2873 96.7127 51.9212 97.525 52.7507C98.3374 53.5802 98.9504 54.5837 99.3178 55.6851C99.6647 56.7063 99.7996 57.7876 99.7142 58.8627C99.6163 59.8694 99.3592 60.8542 98.9523 61.7802C98.5838 62.6468 98.1027 63.4611 97.5215 64.2021C97.0112 64.8947 96.4654 65.5605 95.8862 66.1966C94.0998 68.0777 92.1514 69.798 90.0637 71.3378L88.3912 72.6324L87.9576 72.9669C87.8982 73.0063 87.8361 73.0415 87.7718 73.0722Z" fill="#263238" />
  <path d="M62.5614 85.0889C62.1208 84.8444 61.7449 84.4983 61.465 84.0793C60.727 83.1092 60.2724 81.9535 60.1519 80.7406C60.031 79.5354 60.1813 78.3185 60.5916 77.1789C60.733 76.7008 60.9551 76.2504 61.2482 75.8472C61.2978 75.8472 61.0624 76.3861 60.8146 77.2533C60.4771 78.3722 60.3593 79.5459 60.4678 80.7096C60.5926 81.8687 60.9964 82.9802 61.6447 83.9492C62.1526 84.6863 62.5986 85.0456 62.5614 85.0889Z" fill="#263238" />
  <path d="M77.4833 81.2609C77.2961 81.2148 77.1167 81.1418 76.9506 81.0441C76.4813 80.8233 76.0243 80.5772 75.5816 80.307C72.6275 78.5045 70.1889 75.9698 68.5017 72.9483C68.2423 72.4961 68.0106 72.0286 67.8079 71.5484C67.7183 71.3767 67.6537 71.1932 67.6159 71.0033C67.6655 71.0033 68.0185 71.7156 68.6937 72.8306C69.5806 74.2785 70.6188 75.6282 71.7908 76.8568C72.9731 78.078 74.2835 79.1682 75.6993 80.1088C76.7895 80.8335 77.508 81.2113 77.4833 81.2609Z" fill="#FAFAFA" />
  <path d="M90.2929 70.7122C89.7331 70.2048 89.2036 69.665 88.7072 69.0955C87.7409 68.0797 86.4029 66.686 84.8853 65.187C83.3678 63.688 81.9431 62.381 80.9087 61.4333C80.3276 60.9498 79.7792 60.4284 79.2672 59.8723C79.4502 59.9633 79.6192 60.0801 79.7689 60.2192C80.0848 60.4546 80.5246 60.8386 81.0573 61.266C82.1351 62.1642 83.5784 63.4588 85.1083 64.9826C86.6383 66.5063 87.9515 67.9062 88.8744 68.9654C89.3328 69.4919 89.6982 69.9317 89.9398 70.2352C90.0798 70.3764 90.1987 70.5371 90.2929 70.7122Z" fill="#FAFAFA" />
  <path d="M51.1455 87.6533C51.1455 87.6533 51.0526 87.5047 50.9349 87.2198C50.7777 86.817 50.6514 86.4028 50.557 85.9809C50.2292 84.5599 50.1516 83.0926 50.3278 81.645C50.4998 80.2008 50.9189 78.797 51.5667 77.4949C51.7619 77.1033 51.9855 76.7265 52.2357 76.3675C52.4153 76.1136 52.5268 75.9773 52.5454 75.9897C52.5639 76.0021 52.2233 76.6091 51.7711 77.594C51.1961 78.8938 50.8162 80.2713 50.6437 81.6821C50.475 83.095 50.5188 84.5253 50.7738 85.9252C50.972 86.9968 51.195 87.6162 51.1455 87.6533Z" fill="#FAFAFA" />
</svg>